SplineFontDB: 3.0
FontName: FanwoodText
FullName: Fanwood Text
FamilyName: Fanwood Text
Weight: Regular
Copyright: Copyright (c) 2011, Barry Schwartz
UComments: "Spread Fanwood by using the emboldener. Set to 6, CJK, Squish." 
Version: 1.1
ItalicAngle: 0
UnderlinePosition: -100
UnderlineWidth: 50
Ascent: 690
Descent: 310
LayerCount: 3
Layer: 0 0 "Back"  1
Layer: 1 0 "Fore"  0
Layer: 2 0 "backup"  0
NeedsXUIDChange: 1
XUID: [1021 658 797806517 11107023]
FSType: 0
OS2Version: 0
OS2_WeightWidthSlopeOnly: 0
OS2_UseTypoMetrics: 1
CreationTime: 1287776574
ModificationTime: 1295488441
OS2TypoAscent: 0
OS2TypoAOffset: 1
OS2TypoDescent: 0
OS2TypoDOffset: 1
OS2TypoLinegap: 90
OS2WinAscent: 0
OS2WinAOffset: 1
OS2WinDescent: 0
OS2WinDOffset: 1
HheadAscent: 0
HheadAOffset: 1
HheadDescent: 0
HheadDOffset: 1
OS2Vendor: 'PfEd'
Lookup: 3 0 0 "'aalt' Access All Alternates lookup 0"  {"'aalt' Access All Alternates lookup 0 subtable"  } ['aalt' ('DFLT' <'dflt' > ) ]
Lookup: 3 0 0 "'aalt' Access All Alternates in Latin lookup 0"  {"'aalt' Access All Alternates in Latin lookup 0 subtable"  } ['aalt' ('latn' <'CAT ' 'ROM ' 'MOL ' 'TRK ' 'AZE ' 'CRT ' 'dflt' > ) ]
Lookup: 1 0 0 "catalan"  {"catalan subtable"  } ['locl' ('latn' <'CAT ' > ) ]
Lookup: 1 0 0 "romanian"  {"romanian subtable"  } ['locl' ('latn' <'ROM ' 'MOL ' > ) ]
Lookup: 1 0 0 "turkish"  {"turkish subtable"  } ['locl' ('latn' <'TRK ' 'AZE ' 'CRT ' > ) ]
Lookup: 1 0 0 "numerators"  {"numerators subtable"  } ['frac' ('latn' <'dflt' 'CAT ' 'ROM ' 'MOL ' 'TRK ' 'AZE ' 'CRT ' > 'DFLT' <'dflt' > ) 'numr' ('latn' <'dflt' 'CAT ' 'ROM ' 'MOL ' 'TRK ' 'AZE ' 'CRT ' > 'DFLT' <'dflt' > ) ]
Lookup: 1 0 0 "denominators"  {"denominators subtable"  } ['dnom' ('latn' <'dflt' 'CAT ' 'ROM ' 'MOL ' 'TRK ' 'AZE ' 'CRT ' > 'DFLT' <'dflt' > ) ]

StartChar: a
Encoding: 97 97 0
Width: 419
VWidth: 0
Flags: W
HStem: -20 57<121.331 206.696 294 348.675> 372 30<135.217 232.32>
VStem: 32 76<49.2576 131.002> 46 74<279.192 333.404> 264 71<48.5871 199.999 222.048 347.373>
AnchorPoint: "top" 201 500 basechar 0
AnchorPoint: "l;bl" 0 10 basechar 0
AnchorPoint: "l;x" 10 380 basechar 0
AnchorPoint: "l;o" 0 200 basechar 0
AnchorPoint: "r;bl" 419 10 basechar 0
AnchorPoint: "r;o" 419 200 basechar 0
LayerCount: 3
Back
SplineSet
261 200 m 0xe8
 258 200 228 194 200 185 c 0
 153 170 108 144 108 99 c 0
 108 68 130 33 170 33 c 0
 210 33 264 54 264 61 c 2
 264 192 l 2
 264 199 263 200 261 200 c 0xe8
112 279 m 4
 96 267 63 250 57 250 c 4
 49 250 46 257 46 268 c 4xd8
 46 352 135 402 201 402 c 4
 304 402 335 348 335 268 c 0
 335 217 329 86 329 64 c 0
 329 54 334 38 348 37 c 1
 353 39 380 61 386 61 c 0
 392 61 402 51 402 43 c 0
 402 35 357 7 336 -8 c 0
 329 -13 319 -20 308 -20 c 0
 274 -20 268 24 266 35 c 1
 261 32 255 27 249 24 c 0
 229 12 176 -17 133 -17 c 0
 70 -17 32 18 32 71 c 0xe8
 32 163 160 205 259 222 c 0
 264 223 264 226 264 235 c 0
 264 306 263 371 180 371 c 4
 170 371 159 370 150 366 c 4
 123 355 121 342 120 302 c 4xd8
 120 296 120 284 112 279 c 4
EndSplineSet
Fore
SplineSet
113 279 m 0xd8
 96 267 60 249 55 249 c 0
 50 249 46 257 46 268 c 0xd8
 46 352 135 402 201 402 c 0
 304 402 335 348 335 268 c 0
 335 217 329 86 329 64 c 0
 329 42 344 37 347 37 c 0
 355 37 385 62 387 62 c 0
 392 62 403 48 403 42 c 0
 403 40 376 21 352 3 c 0
 334 -10 317 -20 310 -20 c 0
 278 -20 274 10 268 26 c 0
 265 35 264 33 257 29 c 0
 228 11 177 -17 133 -17 c 0
 70 -17 32 18 32 71 c 0xe8
 32 163 160 205 259 222 c 0
 264 223 264 226 264 235 c 0
 264 306 263 372 180 372 c 0
 170 372 158 370 149 366 c 0
 122 355 120 340 120 299 c 0
 120 293 119 283 113 279 c 0xd8
261 200 m 0
 258 200 228 194 200 185 c 0
 153 170 108 144 108 99 c 0xe8
 108 68 130 33 170 33 c 0
 208 33 264 54 264 61 c 2
 264 192 l 2
 264 199 263 200 261 200 c 0
EndSplineSet
AlternateSubs2: "'aalt' Access All Alternates lookup 0 subtable" a.sc a.sub a.sup a.denom a.numer
AlternateSubs2: "'aalt' Access All Alternates in Latin lookup 0 subtable" a.sc a.sub a.sup a.denom a.numer
Substitution2: "'smcp' Lowercase to Small Capitals in Latin lookup 11 subtable" a.sc
Substitution2: "'subs' Subscript in Latin lookup 8 subtable" a.sub
Substitution2: "'sups' Superscript in Latin lookup 7 subtable" a.sup
Substitution2: "denominators subtable" a.denom
Substitution2: "numerators subtable" a.numer
EndChar

StartChar: b
Encoding: 98 98 1
Width: 485
VWidth: 0
Flags: HMW
HStem: -16 33<169.113 299.716> 354 35<185.148 289.806> 636 43<3.39282 75.3213>
VStem: 86 72<25.7803 344.142 361.009 421.3> 380 78<95.783 268.55>
AnchorPoint: "top" 129 780 basechar 0
AnchorPoint: "l;bl" 20 10 basechar 0
AnchorPoint: "l;x" 10 380 basechar 0
AnchorPoint: "l;hi" 0 650 basechar 0
AnchorPoint: "l;o" 20 200 basechar 0
AnchorPoint: "r;o" 485 200 basechar 0
LayerCount: 3
Back
SplineSet
9.84375 663 m 4
 57.962890625 668.012695312 146.268554688 679 152 679 c 4
 161.911132812 679 161 665.59375 161 660.975585938 c 5
 160.999023438 660.928710938 158 475.962890625 158 394 c 4
 158 377.874023438 158.076171875 364.927734375 158.333984375 360.09375 c 5
 172.227539062 366.256835938 218.586914062 389 263 389 c 4
 377.7578125 389 458 298.479492188 458 188 c 4
 458 56.966796875 349.149414062 -16 234 -16 c 4
 196.8984375 -16 171.576171875 3 145 3 c 4
 126.477539062 3 109.490234375 -15 96 -15 c 4
 86.4775390625 -15 81 -9.244140625 81 1 c 4
 81 7.2333984375 86 130.052734375 86 197 c 4
 86 229.56640625 81.3818359375 606.84375 70.7509765625 635.9296875 c 5
 59.3037109375 635.020507812 15.5673828125 630 11 630 c 4
 4.9521484375 630 2 632.952148438 2 639 c 4
 2 643.063476562 1.0771484375 663 9.84375 663 c 4
158 331.620117188 m 5
 157.985351562 228.973632812 156 97.318359375 156 64 c 4
 156 18.3935546875 208.168945312 17 237 17 c 4
 328.780273438 17 380 98.9560546875 380 187 c 4
 380 274.494140625 308.115234375 354 223 354 c 4
 191.759765625 354 161.241210938 336.155273438 158 331.620117188 c 5
EndSplineSet
Fore
SplineSet
7 663 m 0
 55 667 147 679 153 679 c 0
 160 679 161 676 161 671 c 0
 161 644 158 538 158 390 c 0
 158 373 158 361 160 361 c 0
 163 361 213 389 263 389 c 0
 378 389 458 301 458 188 c 0
 458 59 354 -16 241 -16 c 0
 196 -16 170 3 145 3 c 0
 121 3 108 -15 92 -15 c 0
 82 -15 82 -5 82 1 c 0
 82 7 86 28 86 186 c 0
 86 334 81 636 71 636 c 0
 63 636 15 630 10 630 c 0
 1 630 1 633 1 639 c 0
 1 641 2 663 7 663 c 0
158 330 m 0
 158 228 156 97 156 64 c 0
 156 18 208 17 237 17 c 0
 329 17 380 99 380 187 c 0
 380 279 308 354 223 354 c 0
 195 354 158 337 158 330 c 0
EndSplineSet
AlternateSubs2: "'aalt' Access All Alternates lookup 0 subtable" b.sc b.sub b.sup b.denom b.numer
AlternateSubs2: "'aalt' Access All Alternates in Latin lookup 0 subtable" b.sc b.sub b.sup b.denom b.numer
Substitution2: "'smcp' Lowercase to Small Capitals in Latin lookup 11 subtable" b.sc
Substitution2: "'subs' Subscript in Latin lookup 8 subtable" b.sub
Substitution2: "'sups' Superscript in Latin lookup 7 subtable" b.sup
Substitution2: "denominators subtable" b.denom
Substitution2: "numerators subtable" b.numer
EndChar

StartChar: c
Encoding: 99 99 2
Width: 412
VWidth: 0
Flags: W
HStem: -13 50<175.412 321.439> 369 33<180.035 281.885>
VStem: 32 71<112.742 281.466> 314 63<273.798 339.022>
AnchorPoint: "cedilla" 231 -100 basechar 0
AnchorPoint: "top" 231 500 basechar 0
AnchorPoint: "l;o" 0 200 basechar 0
AnchorPoint: "r;bl" 412 10 basechar 0
AnchorPoint: "r;x" 412 380 basechar 0
AnchorPoint: "r;o" 412 200 basechar 0
LayerCount: 3
Back
SplineSet
103 202 m 4
 103 119.083007812 153.06640625 37 254 37 c 4
 322.743164062 37 364.20703125 67 375 67 c 4
 380.411132812 67 385 63.4111328125 385 56 c 4
 385 46.26171875 323.28515625 -13 224 -13 c 4
 105.471679688 -13 32 62.46875 32 177 c 4
 32 326.737304688 142.520507812 402 241 402 c 4
 306.818359375 402 377 356.643554688 377 303 c 4
 377 294.388671875 374.489257812 287.116210938 365.821289062 280.616210938 c 5
 356.563476562 273.415039062 344.178710938 267 334 267 c 4
 325.439453125 267 317.629882812 269.625 314.163085938 280.0234375 c 5
 297.838867188 325.934570312 295.595703125 369 235 369 c 4
 152.489257812 369 103 280.19921875 103 202 c 4
EndSplineSet
Fore
SplineSet
103 202 m 0
 103 119 153 37 254 37 c 0
 323 37 370 67 375 67 c 0
 382 67 385 66 385 56 c 0
 385 50 323 -13 224 -13 c 0
 105 -13 32 62 32 177 c 0
 32 327 143 402 241 402 c 0
 307 402 377 357 377 303 c 0
 377 294 375 288 366 281 c 0
 357 274 344 267 334 267 c 0
 325 267 317.353515625 270.114257812 314 280 c 0
 298.353515625 326.114257812 296 369 235 369 c 0
 152 369 103 280 103 202 c 0
EndSplineSet
AlternateSubs2: "'aalt' Access All Alternates lookup 0 subtable" c.sc c.sub c.sup c.denom c.numer
AlternateSubs2: "'aalt' Access All Alternates in Latin lookup 0 subtable" c.sc c.sub c.sup c.denom c.numer
Substitution2: "'smcp' Lowercase to Small Capitals in Latin lookup 11 subtable" c.sc
Substitution2: "'subs' Subscript in Latin lookup 8 subtable" c.sub
Substitution2: "'sups' Superscript in Latin lookup 7 subtable" c.sup
Substitution2: "denominators subtable" c.denom
Substitution2: "numerators subtable" c.numer
EndChar

StartChar: d
Encoding: 100 100 3
Width: 499
VWidth: 0
Flags: W
HStem: -26 21G<341.5 347.5> -16 43<171.384 293.531 431.155 476.8> 356 1<245 336> 631 34<257.564 327.684> 640 43<260.306 410>
VStem: 27 79<93.4453 273.626> 339 68<41.4626 331.083 357.004 603.092>
AnchorPoint: "top" 362 780 basechar 0
AnchorPoint: "caron" 450 550 basechar 0
AnchorPoint: "l;o" 0 200 basechar 0
AnchorPoint: "r;bl" 499 10 basechar 0
AnchorPoint: "r;x" 499 380 basechar 0
AnchorPoint: "r;hi" 499 650 basechar 0
AnchorPoint: "r;o" 499 200 basechar 0
LayerCount: 3
Back
SplineSet
27 181 m 4x7c
 27 295.69140625 116.448242188 382 233 382 c 4
 290.263671875 382 331.146484375 358.404296875 336.389648438 356.034179688 c 5
 338.036132812 356.576171875 339 362.661132812 339 371 c 4
 339 464.303710938 332.798828125 618.487304688 329.774414062 639.749023438 c 5
 315.658203125 637.895507812 272.313476562 631 265 631 c 4
 256.342773438 631 256.1484375 636.25390625 258.030273438 649.423828125 c 4
 258.977539062 656.05859375 260.158203125 663.567382812 268.5703125 664.969726562 c 5
 325.845703125 672.00390625 394.052734375 683 400 683 c 4
 411.309570312 683 413 677.512695312 413 657 c 4
 413 622.819335938 407 494.001953125 407 184 c 4
 407 152.0625 408 100.041015625 408.998046875 64.099609375 c 4
 410.342773438 23.7578125 415.368164062 18.111328125 429.111328125 18.111328125 c 4
 436.806640625 18.111328125 447.896484375 20.302734375 462.64453125 21.978515625 c 5
 470.485351562 22.958984375 477 23.046875 477 11 c 4
 477 -3.0830078125 475.912109375 -8.7412109375 461.421875 -10.970703125 c 5
 346.1953125 -26 l 5
 346 -26 l 4xbc
 339.334960938 -26 337 -19.3642578125 337 -14 c 4
 337 -11.8408203125 338 18.125 338 22 c 4
 338 25.5634765625 337.57421875 28.037109375 337.438476562 28.36328125 c 5
 336.193359375 28.271484375 333.040039062 26.958984375 327.599609375 23.4619140625 c 5
 293.265625 2.255859375 249.840820312 -16 206 -16 c 4
 115.685546875 -16 27 35.349609375 27 181 c 4x7c
339 57 m 6
 339 307 l 4
 339 316.696289062 296.377929688 356 245 356 c 4
 159.235351562 356 106 276.016601562 106 188 c 4
 106 96.037109375 148.887695312 27 255 27 c 4x7c
 281.887695312 27 339 43.3212890625 339 57 c 6
EndSplineSet
Fore
SplineSet
27 181 m 0x66
 27 296 116 382 233 382 c 0
 290 382 333 357 336 357 c 0
 338 357 339 363 339 371 c 0
 339 435 334 640 328 640 c 0x6e
 322 640 268 631 261 631 c 0
 256 631 255 636 257 649 c 0
 259 662 258 664 266 665 c 0x36
 332 672 392 683 408 683 c 0
 412 683 413 681 413 667 c 0
 413 633 407 494 407 184 c 0
 407 152 408 105 409 69 c 0
 410 26 414 17 431 17 c 0
 434 17 457 21 467 22 c 0
 473 23 477 23 477 16 c 0
 477 2 477 -9 468 -10 c 2
 468 -10 350 -26 345 -26 c 0xae
 338 -26 337 -23 337 -14 c 0
 337 -12 338 18 338 22 c 0
 338 27 335 28 327 23 c 0
 293 2 245 -16 206 -16 c 0
 116 -16 27 35 27 181 c 0x66
339 57 m 2
 339 307 l 2
 339 317 296 356 245 356 c 0
 159 356 106 276 106 188 c 0
 106 96 149 27 255 27 c 0
 282 27 339 43 339 57 c 2
EndSplineSet
AlternateSubs2: "'aalt' Access All Alternates lookup 0 subtable" d.sc d.sub d.sup d.denom d.numer
AlternateSubs2: "'aalt' Access All Alternates in Latin lookup 0 subtable" d.sc d.sub d.sup d.denom d.numer
Substitution2: "'smcp' Lowercase to Small Capitals in Latin lookup 11 subtable" d.sc
Substitution2: "'subs' Subscript in Latin lookup 8 subtable" d.sub
Substitution2: "'sups' Superscript in Latin lookup 7 subtable" d.sup
Substitution2: "denominators subtable" d.denom
Substitution2: "numerators subtable" d.numer
EndChar

StartChar: e
Encoding: 101 101 4
Width: 424
VWidth: 0
Flags: W
HStem: -18 50<174.103 309.768> 227 23<108.001 310.991> 371 28<174.977 266.398>
VStem: 28 80<97.9886 283.561> 311 75<230.5 325.293>
AnchorPoint: "top" 228 500 basechar 0
AnchorPoint: "l;o" 0 200 basechar 0
AnchorPoint: "r;bl" 394 10 basechar 0
AnchorPoint: "r;o" 424 200 basechar 0
LayerCount: 3
Back
SplineSet
108 255 m 4
 108 251 109 250 117 250 c 4
 122 250 224 252 274 254 c 4
 299 255 311 255 311 257 c 4
 311 351 253 371 222 371 c 4
 158 371 112 304 108 255 c 4
221 -18 m 4
 96 -18 27 64 27 182 c 4
 27 303 111 399 234 399 c 4
 335 399 386 322 386 237 c 4
 386 224 339 222 329 222 c 4
 318 222 122 227 107 227 c 4
 104 227 103 203 103 194 c 4
 103 89 176 32 249 32 c 4
 328 32 370 97 378 97 c 4
 383 97 397 85 397 79 c 4
 397 70 323 -18 221 -18 c 4
EndSplineSet
Fore
SplineSet
108 255 m 0
 108 251 109 250 117 250 c 0
 122 250 224 252 274 254 c 0
 299 255 311 254 311 258 c 0
 311 350 253 371 222 371 c 0
 158 371 112 304 108 255 c 0
246 32 m 0
 330 32 372 97 378 97 c 0
 381 97 398 82 398 80 c 0
 398 74 327 -18 223 -18 c 0
 97 -18 28 66 28 185 c 0
 28 305 112 399 234 399 c 0
 335 399 386 322 386 237 c 0
 386 224 339 222 329 222 c 0
 318 222 121 227 106 227 c 1
 104 222 103 206 103 194 c 0
 103 91 174 32 246 32 c 0
EndSplineSet
Layer: 2
SplineSet
246 32 m 4
 326 32 374 98 378 98 c 4
 381 98 398 83 398 79 c 4
 398 75 328 -18 221 -18 c 4
 95 -18 28 66 28 185 c 4
 28 305 112 399 234 399 c 4
 335 399 386 322 386 237 c 4
 386 224 339 222 329 222 c 4
 318 222 121 227 106 227 c 5
 104 222 103 206 103 194 c 4
 103 91 174 32 246 32 c 4
EndSplineSet
AlternateSubs2: "'aalt' Access All Alternates lookup 0 subtable" e.sc e.sub e.sup e.denom e.numer
AlternateSubs2: "'aalt' Access All Alternates in Latin lookup 0 subtable" e.sc e.sub e.sup e.denom e.numer
Substitution2: "'smcp' Lowercase to Small Capitals in Latin lookup 11 subtable" e.sc
Substitution2: "'subs' Subscript in Latin lookup 8 subtable" e.sub
Substitution2: "'sups' Superscript in Latin lookup 7 subtable" e.sup
Substitution2: "denominators subtable" e.denom
Substitution2: "numerators subtable" e.numer
EndChar

StartChar: f
Encoding: 102 102 5
Width: 306
VWidth: 0
Flags: W
HStem: -3 31<32.009 87.1627 168.854 253> 344 31<38.0015 85.988 164.066 302.627> 653 28<191.38 245.08>
VStem: 87 77<28 342.923 375 602.099> 262 67<574.905 644.779>
AnchorPoint: "top" 218 780 basechar 0
AnchorPoint: "l;bl" 0 10 basechar 0
AnchorPoint: "l;x" 0 380 basechar 0
AnchorPoint: "l;o" 0 200 basechar 0
AnchorPoint: "r;bl" 306 10 basechar 0
AnchorPoint: "r;x" 306 380 basechar 0
AnchorPoint: "r;k;hi" 326 650 basechar 0
AnchorPoint: "r;o" 306 200 basechar 0
LayerCount: 3
Back
SplineSet
171.696289062 28 m 5
 237 28 l 4
 250.521484375 28 253 21.638671875 253 12 c 4
 253 2.802734375 251.84765625 -5 237 -5 c 4
 217.877929688 -5 159.912109375 -3 131 -3 c 4
 106.157226562 -3 78.130859375 -5 48 -5 c 4
 33.54296875 -5 32 0.6611328125 32 12 c 4
 32 21.765625 35.3740234375 28 47 28 c 4
 85.4033203125 28 l 5
 87.2734375 35.6005859375 88 60.654296875 88 88 c 4
 88 122.962890625 87 160.896484375 87 172 c 4
 87 232 l 4
 87 266.627929688 86.8046875 331.161132812 85.6181640625 343 c 5
 55 343 l 4
 43.4140625 343 38 345.596679688 38 359 c 4
 38 371.854492188 41.9443359375 375 52 375 c 4
 79 375 l 4
 86.833984375 375 86 373.592773438 86 384 c 4
 86 432.83984375 84 427.856445312 84 481 c 4
 84 585.526367188 123.631835938 681 243 681 c 4
 282.895507812 681 329 654.432617188 329 611 c 4
 329 585.668945312 293.458984375 561 278 561 c 4
 268.701171875 561 263.2265625 563.002929688 262.026367188 572.603515625 c 4
 255.89453125 618.591796875 251.865234375 653 218 653 c 4
 165.119140625 653 162 554.543945312 162 492 c 4
 162 448.965820312 160.997070312 431.83984375 160 388.96484375 c 5
 160 375.061523438 158.614257812 375 178 375 c 4
 294 375 l 4
 298.701171875 375 304 372.453125 304 367 c 4
 304 362.739257812 301.3359375 344 293 344 c 4
 178 344 l 4
 163.435546875 344 164 343.451171875 164 335 c 4
 164 169 l 4
 164 102.2109375 166.876953125 35.7119140625 171.696289062 28 c 5
EndSplineSet
Fore
SplineSet
173 28 m 2
 241 28 l 2
 253 28 253 24 253 12 c 0
 253 0 253 -5 239 -5 c 0
 220 -5 160 -3 131 -3 c 0
 106 -3 78 -5 48 -5 c 0
 34 -5 32 1 32 12 c 0
 32 22 35 28 47 28 c 2
 84 28 l 2
 88 28 88 64 88 88 c 0
 88 123 87 161 87 172 c 2
 87 232 l 2
 87 256 87 343 85 343 c 2
 52 343 l 2
 40 343 38 346 38 359 c 0
 38 372 40 375 49 375 c 2
 79 375 l 2
 85 375 86 375 86 384 c 0
 86 433 84 428 84 481 c 0
 84 586 124 681 243 681 c 0
 283 681 329 654 329 611 c 0
 329 586 293 561 278 561 c 0
 269 561 263 563 262 573 c 0
 256 619 252 653 218 653 c 0
 165 653 162 555 162 492 c 0
 162 449 161 432 160 389 c 0
 160 375 164 375 183 375 c 2
 294 375 l 2
 299 375 304 375 304 368 c 0
 304 366 301 344 295 344 c 2
 183 344 l 2
 168 344 164 343 164 335 c 2
 164 169 l 2
 164 102 167 28 173 28 c 2
EndSplineSet
AlternateSubs2: "'aalt' Access All Alternates lookup 0 subtable" f.sc f.sub f.sup f.denom f.numer
AlternateSubs2: "'aalt' Access All Alternates in Latin lookup 0 subtable" f.sc f.sub f.sup f.denom f.numer
Substitution2: "'smcp' Lowercase to Small Capitals in Latin lookup 11 subtable" f.sc
Substitution2: "'subs' Subscript in Latin lookup 8 subtable" f.sub
Substitution2: "'sups' Superscript in Latin lookup 7 subtable" f.sup
Substitution2: "denominators subtable" f.denom
Substitution2: "numerators subtable" f.numer
EndChar

StartChar: g
Encoding: 103 103 6
Width: 425
VWidth: 0
Flags: HMW
HStem: -293 32<125.847 289.518> -54 57<79.3284 133> 367 31<155.167 256.397>
VStem: 12 51<-217.964 -117.176> 31 70<169.319 317.88> 45 33<3.04376 39.6055> 302 68<158.361 317.858> 360 63<-201.716 -110.786>
AnchorPoint: "top" 205 500 basechar 0
AnchorPoint: "l;bl" 0 10 basechar 0
AnchorPoint: "l;x" 0 380 basechar 0
AnchorPoint: "l;o" 0 200 basechar 0
AnchorPoint: "l;lo" 0 -260 basechar 0
AnchorPoint: "r;bl" 425 10 basechar 0
AnchorPoint: "r;x" 425 380 basechar 0
AnchorPoint: "r;o" 425 200 basechar 0
AnchorPoint: "r;lo" 425 -260 basechar 0
LayerCount: 3
Back
SplineSet
413 326 m 4
 403 325 365 318 357 314 c 5
 359 307 370 284 370 243 c 4
 370 157 325 115 253 88 c 4
 207 70 147 55 80 36 c 5
 79 36 78 34 78 30 c 4
 78 20 87 5 90 3 c 5
 216 -5 423 9 423 -124 c 4
 423 -228 330 -293 200 -293 c 4
 117 -293 12 -256 12 -173 c 4
 12 -101 103 -65 151 -55 c 4
 157 -54 l 5
 156 -54 155 -54 154 -54 c 4
 97 -54 l 4
 80 -54 61 -48 54 -33 c 5
 46 -13 45 5 45 16 c 4
 45 34 50 48 65 51 c 4
 90 57 109 62 141 71 c 5
 147 73 164 77 171 79 c 5
 167 80 164 81 160 82 c 4
 88 103 31 149 31 246 c 4
 31 336 120 398 210 398 c 4
 283 398 326 352 333 347 c 5
 341 348 377 364 407 366 c 4
 407 366 l 5
 407 366 l 4
 414 366 419 346 419 335 c 4
 419 331 418 326 413 326 c 4
199 -261 m 4
 274 -261 360 -233 360 -148 c 4
 360 -94 263 -71 189 -71 c 4
 142 -71 63 -103 63 -166 c 4
 63 -229 139 -261 199 -261 c 4
205 367 m 4
 150 367 101 315 101 250 c 4
 101 153 184 98 207 98 c 4
 244 98 302 155 302 244 c 4
 302 322 264 367 205 367 c 4
EndSplineSet
Fore
SplineSet
160 82 m 0xe4
 86 103 31 151 31 246 c 0xe8
 31 336 120 398 210 398 c 0
 286 398 329 347 334 347 c 0
 338 347 377 364 407 366 c 0
 414 366 419 346 419 335 c 0
 419 331 418 326 413 326 c 0
 403 325 358 317 358 314 c 0
 358 310 370 284 370 243 c 0
 370 157 325 115 253 88 c 0
 207 70 147 55 80 36 c 0
 79 36 78 34 78 30 c 0xe6
 78 20 88 3 90 3 c 0
 217 -5 423 9 423 -124 c 0
 423 -228 330 -293 200 -293 c 0
 117 -293 12 -256 12 -173 c 0xf1
 12 -108 85 -73 135 -59 c 0
 150 -54 154 -54 133 -54 c 2
 97 -54 l 2
 80 -54 61 -48 54 -33 c 0
 46 -13 45 5 45 16 c 0
 45 34 50 48 65 51 c 0
 69 52 169 78 169 79 c 0
 169 80 165 81 160 82 c 0xe4
199 -261 m 0
 274 -261 360 -233 360 -148 c 0
 360 -94 263 -71 189 -71 c 0
 142 -71 63 -103 63 -166 c 0xf1
 63 -229 139 -261 199 -261 c 0
205 367 m 0
 150 367 101 315 101 250 c 0
 101 153 184 98 207 98 c 0
 244 98 302 155 302 244 c 0xea
 302 322 264 367 205 367 c 0
EndSplineSet
AlternateSubs2: "'aalt' Access All Alternates lookup 0 subtable" g.sc g.sub g.sup g.denom g.numer
AlternateSubs2: "'aalt' Access All Alternates in Latin lookup 0 subtable" g.sc g.sub g.sup g.denom g.numer
Substitution2: "'smcp' Lowercase to Small Capitals in Latin lookup 11 subtable" g.sc
Substitution2: "'subs' Subscript in Latin lookup 8 subtable" g.sub
Substitution2: "'sups' Superscript in Latin lookup 7 subtable" g.sup
Substitution2: "denominators subtable" g.denom
Substitution2: "numerators subtable" g.numer
EndChar

StartChar: h
Encoding: 104 104 7
Width: 503
VWidth: 0
Flags: W
HStem: -5 33<24.0022 84.0927 163.052 225 291.001 354.02 430.534 480.997> 341 47<208.102 319.249> 658 20G<157.5 165>
VStem: 78 91<406.736 633.001> 86 75<28 323.773 355.447 450.225> 356 74<28 301.294>
AnchorPoint: "top" 129 780 basechar 0
AnchorPoint: "l;bl" 0 10 basechar 0
AnchorPoint: "l;x" 0 380 basechar 0
AnchorPoint: "l;hi" 0 650 basechar 0
AnchorPoint: "l;o" 0 200 basechar 0
AnchorPoint: "r;bl" 503 10 basechar 0
AnchorPoint: "r;o" 503 200 basechar 0
LayerCount: 3
Back
SplineSet
85 43.015625 m 4xec
 86 137.041015625 86 190.98828125 86 263 c 4xec
 86 380.908203125 81.9970703125 541.984375 78.005859375 618.806640625 c 5xf4
 76.8828125 633.407226562 77.7001953125 633 75 633 c 4
 72.599609375 633 18.5546875 626 14 626 c 4
 6.0498046875 626 7 636.504882812 7 640 c 4
 7 647.203125 7.0322265625 658.100585938 14.2724609375 659.91015625 c 4
 14.4404296875 659.952148438 l 5
 14.6123046875 659.974609375 l 4
 60.783203125 665.997070312 154.260742188 678 161 678 c 4xec
 171.276367188 678 169 662.879882812 169 655 c 4
 169 654.927734375 l 5
 168.99609375 654.85546875 l 4xf4
 164.999023438 571.909179688 161 441.915039062 161 354 c 4
 161 348.833007812 161.26953125 344.927734375 161.42578125 344.020507812 c 5
 162.890625 344.739257812 164.67578125 345.904296875 167.506835938 347.602539062 c 5
 198.971679688 364.857421875 259.022460938 388 302 388 c 4
 416.94140625 388 430 287.6015625 430 180 c 4
 430 37 l 4
 430 26.732421875 429.004882812 28 438 28 c 4
 464 28 l 4
 477.319335938 28 481 22.0068359375 481 12 c 4
 481 2.4228515625 478.655273438 -5 464 -5 c 4
 444.79296875 -5 421.866210938 -3 393 -3 c 4
 368.150390625 -3 337.125976562 -5 307 -5 c 4
 292.54296875 -5 291 0.6611328125 291 12 c 4
 291 22.1298828125 295.588867188 28 307 28 c 4
 346 28 l 4
 355.260742188 28 353.05859375 25.783203125 354.006835938 36.2109375 c 5
 354.993164062 55.943359375 356 106.068359375 356 212 c 4
 356 283.544921875 328.49609375 341 263 341 c 4
 223.560546875 341 195.08203125 330.186523438 175.341796875 320.31640625 c 4
 161.405273438 313.348632812 161 310.24609375 161 308.01953125 c 4
 162 158 l 4
 162 117.01953125 162.002929688 68.97265625 162.997070312 43.140625 c 5
 164.004882812 24.9970703125 162.478515625 28 171 28 c 4
 209 28 l 4
 222.521484375 28 225 21.638671875 225 12 c 4
 225 2.802734375 223.84765625 -5 209 -5 c 4
 189.833007812 -5 154.88671875 -3 126 -3 c 4
 101.150390625 -3 70.1259765625 -5 40 -5 c 4
 25.54296875 -5 24 0.6611328125 24 12 c 4
 24 21.765625 27.3740234375 28 39 28 c 4
 78 28 l 4
 85.7763671875 28 85 27.5732421875 85 43.015625 c 4xec
EndSplineSet
Fore
SplineSet
78 619 m 0xf4
 77 634 76 633 72 633 c 0
 70 633 18 626 13 626 c 0
 7 626 7 631 7 641 c 0
 7 657 8 659 14 660 c 0
 71 668 154 678 161 678 c 0xec
 169 678 169 674 169 664 c 0xf4
 169 652 161 493 161 354 c 0
 161 344 160 343 168 348 c 0
 199 365 259 388 302 388 c 0
 417 388 430 288 430 180 c 2
 430 95 l 2
 430 60 430 28 433 28 c 2
 467 28 l 2
 480 28 481 22 481 12 c 0
 481 2 480 -5 467 -5 c 0
 448 -5 422 -3 393 -3 c 0
 368 -3 335 -5 305 -5 c 0
 291 -5 291 1 291 12 c 0
 291 22 292 28 303 28 c 2
 351 28 l 2
 356 28 356 108 356 212 c 0
 356 284 328 341 263 341 c 0
 224 341 195 330 175 320 c 0
 161 313 161 310 161 308 c 2
 161 308 162 126 162 116 c 0
 162 76 162 28 166 28 c 2
 212 28 l 2
 225 28 225 22 225 12 c 0
 225 3 225 -5 212 -5 c 0
 193 -5 155 -3 126 -3 c 0
 101 -3 68 -5 38 -5 c 0
 24 -5 24 1 24 12 c 0
 24 22 27 28 39 28 c 2
 82 28 l 2
 86 28 86 143 86 212 c 0xec
 86 339 83 529 78 619 c 0xf4
EndSplineSet
AlternateSubs2: "'aalt' Access All Alternates lookup 0 subtable" h.sc h.sub h.sup h.denom h.numer
AlternateSubs2: "'aalt' Access All Alternates in Latin lookup 0 subtable" h.sc h.sub h.sup h.denom h.numer
Substitution2: "'smcp' Lowercase to Small Capitals in Latin lookup 11 subtable" h.sc
Substitution2: "'subs' Subscript in Latin lookup 8 subtable" h.sub
Substitution2: "'sups' Superscript in Latin lookup 7 subtable" h.sup
Substitution2: "denominators subtable" h.denom
Substitution2: "numerators subtable" h.numer
EndChar

StartChar: i
Encoding: 105 105 8
Width: 249
VWidth: 0
Flags: W
HStem: -5 33<25.0008 91.8861 169.682 226.997> 352 29<23.5048 88.9997> 509 102<88.5314 166.391>
VStem: 74 108<525.049 595.322> 93 74<28 351.99>
AnchorPoint: "l;bl" 0 10 basechar 0
AnchorPoint: "l;x" 0 380 basechar 0
AnchorPoint: "l;o" 0 200 basechar 0
AnchorPoint: "r;bl" 249 10 basechar 0
AnchorPoint: "r;x" 249 380 basechar 0
AnchorPoint: "r;o" 249 200 basechar 0
AnchorPoint: "l;hi" 40 650 basechar 0
AnchorPoint: "r;hi" 219 650 basechar 0
LayerCount: 3
Back
SplineSet
92 37 m 0xe8
 93 66 93 95 93 125 c 0
 93 195 92 266 89 339 c 0
 88 353 88 352 79 352 c 0
 76 352 33 350 29 350 c 0
 25 350 22 353 22 357 c 0
 22 360 22 363 26 371 c 0
 30 379 32 380 44 381 c 0
 63 382 152 386 157 386 c 0
 164 386 167 383 167 377 c 2
 167 207 l 2
 167 150 167 94 170 37 c 0
 170 28 169 28 177 28 c 2
 213 28 l 2
 225 28 227 21 227 12 c 0
 227 3 226 -5 213 -5 c 0
 194 -5 154 -3 129 -3 c 0
 104 -3 59 -5 40 -5 c 0
 27 -5 26 1 26 12 c 0
 26 22 29 28 43 28 c 2
 84 28 l 2
 94 28 92 27 92 37 c 0xe8
182 568 m 0xf0
 182 532 147 509 118 509 c 0
 96 509 74 523 74 553 c 0
 74 591 112 611 137 611 c 0
 159 611 182 599 182 568 c 0xf0
EndSplineSet
Fore
SplineSet
93 125 m 0xe8
 93 195 92 266 89 339 c 0
 88 353 84 352 77 352 c 0
 74 352 33 350 29 350 c 0
 25 350 20 350 20 354 c 0
 20 357 22 363 25 371 c 0
 29 381 32 381 44 381 c 0
 99 383 152 386 157 386 c 0
 167 386 167 383 167 377 c 2
 167 207 l 2
 167 183 167 28 172 28 c 2
 215 28 l 2
 227 28 227 23 227 12 c 0
 227 2 226 -5 215 -5 c 0
 196 -5 154 -3 129 -3 c 0
 104 -3 56 -5 37 -5 c 0
 25 -5 25 1 25 12 c 0
 25 22 26 28 40 28 c 2
 90 28 l 2
 93 28 93 104 93 125 c 0xe8
182 568 m 0xf0
 182 532 147 509 118 509 c 0
 96 509 74 523 74 553 c 0
 74 591 112 611 137 611 c 0
 159 611 182 599 182 568 c 0xf0
EndSplineSet
AlternateSubs2: "'aalt' Access All Alternates lookup 0 subtable" i.sc i.sub i.sup i.denom i.numer
AlternateSubs2: "'aalt' Access All Alternates in Latin lookup 0 subtable" i.sc i.sub i.sup i.denom i.numer i.TRK
Substitution2: "'smcp' Lowercase to Small Capitals in Latin lookup 11 subtable" i.sc
Substitution2: "'subs' Subscript in Latin lookup 8 subtable" i.sub
Substitution2: "'sups' Superscript in Latin lookup 7 subtable" i.sup
Substitution2: "denominators subtable" i.denom
Substitution2: "numerators subtable" i.numer
Substitution2: "turkish subtable" i.TRK
EndChar

StartChar: j
Encoding: 106 106 9
Width: 292
VWidth: 0
Flags: HMW
HStem: -278 79<16.1312 91.125> 342 33<43.8712 125.511> 536 102<91.5314 169.391>
VStem: 77 108<552.049 622.322> 127 78<16.5076 345.001>
AnchorPoint: "r;hi" 222 650 basechar 0
AnchorPoint: "l;hi" 43 650 basechar 0
AnchorPoint: "l;bl" 10 10 basechar 0
AnchorPoint: "l;x" 0 380 basechar 0
AnchorPoint: "l;o" 10 200 basechar 0
AnchorPoint: "l;lo" 0 -260 basechar 0
AnchorPoint: "r;bl" 292 10 basechar 0
AnchorPoint: "r;x" 292 380 basechar 0
AnchorPoint: "r;o" 292 200 basechar 0
LayerCount: 3
Back
SplineSet
185 595 m 0
 185 559 150 536 121 536 c 0
 99 536 77 550 77 580 c 0
 77 618 115 638 140 638 c 0
 162 638 185 626 185 595 c 0
46 -199 m 0
 67 -199 92 -203 101 -203 c 0
 127 -203 136 -188 136 -173 c 0
 136 -134 127 -41 127 258 c 0
 127 282 127 307 125 334 c 0
 124 346 123 345 119 345 c 0
 112 345 58 342 49 342 c 0
 44 342 43 346 43 349 c 0
 43 353 45 360 47 365 c 0
 50 373 51 376 65 376 c 0
 116 377 185 381 190 381 c 0
 199 381 200 372 200 361 c 0
 200 268.340820312 205 158.150390625 205 27 c 0
 205 -80 198 -156 150 -218 c 0
 131 -242 54 -278 24 -278 c 0
 9 -278 2 -267 2 -255 c 0
 2 -232 29 -199 46 -199 c 0
EndSplineSet
Fore
SplineSet
185 595 m 0xf0
 185 559 150 536 121 536 c 0
 99 536 77 550 77 580 c 0
 77 618 115 638 140 638 c 0
 162 638 185 626 185 595 c 0xf0
42 346 m 0
 42 353 46 375 53 375 c 0
 111 377 187 381 190 381 c 0
 201 381 200 372 200 355 c 0
 200 266 205 155 205 27 c 0
 205 -80 198 -156 150 -218 c 0
 131 -242 54 -278 24 -278 c 0
 9 -278 2 -267 2 -255 c 0
 2 -232 30 -199 44 -199 c 0
 65 -199 92 -203 101 -203 c 0
 127 -203 136 -188 136 -173 c 0
 136 -134 127 -41 127 258 c 0xe8
 127 282 127 307 125 334 c 0
 124 346 123 345 119 345 c 0
 112 345 58 342 49 342 c 0
 44 342 42 341 42 346 c 0
EndSplineSet
AlternateSubs2: "'aalt' Access All Alternates lookup 0 subtable" j.sc j.sub j.sup j.denom j.numer
AlternateSubs2: "'aalt' Access All Alternates in Latin lookup 0 subtable" j.sc j.sub j.sup j.denom j.numer
Substitution2: "'smcp' Lowercase to Small Capitals in Latin lookup 11 subtable" j.sc
Substitution2: "'subs' Subscript in Latin lookup 8 subtable" j.sub
Substitution2: "'sups' Superscript in Latin lookup 7 subtable" j.sup
Substitution2: "denominators subtable" j.denom
Substitution2: "numerators subtable" j.numer
EndChar

StartChar: k
Encoding: 107 107 10
Width: 449
VWidth: 0
Flags: W
HStem: -5 33<18.0004 82 152.327 198.992 275.001 301 393.641 442> 190 22<152.024 189.537> 357 33<248.003 285.428 335.281 397.997> 639 35<6.0032 73.8289> 642 42<6.08435 77.103>
VStem: 82 70<28 189.975 212 467.104>
DStem2: 245 215 194 174 0.653282 -0.757115<-16.2133 172.553>
AnchorPoint: "cedilla" 228 -100 basechar 0
AnchorPoint: "l;bl" 0 10 basechar 0
AnchorPoint: "l;x" 0 380 basechar 0
AnchorPoint: "l;hi" 0 650 basechar 0
AnchorPoint: "l;o" 0 200 basechar 0
AnchorPoint: "r;bl" 449 10 basechar 0
AnchorPoint: "r;x" 449 380 basechar 0
AnchorPoint: "r;o" 439 200 basechar 0
LayerCount: 3
Back
SplineSet
292.420898438 345.532226562 m 4xf4
 295.930664062 351.548828125 297.3359375 355.124023438 297.296875 355.483398438 c 5
 296.857421875 355.896484375 293.328125 357 285 357 c 4
 265 357 l 4
 251.478515625 357 249 363.361328125 249 373 c 4
 249 382.577148438 251.344726562 390 266 390 c 4
 276.260742188 390 303.135742188 388 324 388 c 4
 342.817382812 388 365.7734375 390 381 390 c 4
 392.293945312 390 397 385.047851562 397 373 c 4
 397 363.234375 393.625976562 357 382 357 c 4
 350.322265625 357 l 5
 340.33203125 352.171875 262.640625 257.229492188 245.352539062 235.138671875 c 5
 239.623046875 227.975585938 237.106445312 224.96875 237.001953125 224.630859375 c 5
 237.194335938 224.026367188 239.90234375 221.223632812 245.271484375 214.959960938 c 4
 396.288085938 39.9404296875 l 5
 406.206054688 28.0390625 407.645507812 28 416 28 c 4
 426 28 l 4
 439.521484375 28 442 21.638671875 442 12 c 4
 442 2.802734375 440.84765625 -5 426 -5 c 4
 411.779296875 -5 383.872070312 -3 359 -3 c 4
 334.129882812 -3 305.211914062 -5 291 -5 c 4
 276.54296875 -5 275 0.6611328125 275 12 c 4
 275 21.765625 278.374023438 28 290 28 c 4
 301 28 l 4
 305.010742188 28 306.9453125 28.7822265625 307.551757812 29.2666015625 c 4
 308.395507812 29.9423828125 307.838867188 33.107421875 303.681640625 38.0966796875 c 5
 193.657226562 174.125976562 l 4
 181.266601562 189.614257812 182.779296875 190 174 190 c 4
 160 190 l 4
 151.118164062 190 152 189.19921875 152 177 c 4
 152 43 l 4
 152 25.1533203125 151.369140625 28 160 28 c 4
 183 28 l 4
 196.521484375 28 199 21.638671875 199 12 c 4
 199 2.802734375 197.84765625 -5 183 -5 c 4
 163.780273438 -5 143.858398438 -3 115 -3 c 4
 82.095703125 -3 46.1904296875 -5 35 -5 c 4
 20.54296875 -5 19 0.6611328125 19 12 c 4
 19 21.765625 22.3740234375 28 34 28 c 4
 75 28 l 4
 82.7763671875 28 82 27.5703125 82 43 c 4
 82 236 l 4
 82 423.69140625 81.3134765625 621.1171875 74.6357421875 640.969726562 c 5
 64.236328125 640.577148438 29.77734375 638 20 638 c 4xf4
 10.4267578125 638 7 640.720703125 7 649 c 4
 7 658 l 4
 7 666.458007812 9.0048828125 673.831054688 21.74609375 674.989257812 c 5xec
 59.916015625 678.002929688 146.576171875 684 153 684 c 4
 161.936523438 684 163 679.678710938 163 667.962890625 c 5
 152 219.962890625 l 5
 152 211.459960938 150.264648438 212 165 212 c 4
 187 212 l 4
 200.02734375 212 206.209960938 223.298828125 213.620117188 232.826171875 c 5
 241.575195312 269.767578125 269.526367188 307.70703125 292.420898438 345.532226562 c 4xf4
EndSplineSet
Fore
SplineSet
199 9 m 0xec
 199 2 198 -5 186 -5 c 0
 167 -5 144 -3 115 -3 c 0
 82 -3 42 -5 31 -5 c 0
 18 -5 18 1 18 12 c 0
 18 22 18 28 30 28 c 2
 74 28 l 2
 82 28 82 28 82 43 c 2
 82 236 l 2
 82 414 81 642 74 642 c 0xec
 71 642 26 639 17 639 c 0
 7 639 6 640 6 649 c 2
 6 660 l 2
 6 668 7 673 18 674 c 0xf4
 56 677 149 684 155 684 c 0
 164 684 163 680 163 668 c 2
 152 222 l 2
 152 213 153 212 165 212 c 2
 187 212 l 2
 200 212 207 223 214 233 c 0
 242 270 269 308 292 346 c 0
 299 356 295 357 285 357 c 2
 261 357 l 2
 248 357 248 363 248 373 c 0
 248 383 249 390 262 390 c 0
 272 390 298 388 324 388 c 0
 350 388 371 390 386 390 c 0
 395 390 398 385 398 373 c 0
 398 363 397 357 385 357 c 2
 353 357 l 2
 344 357 266 260 245 235 c 0
 235 223 237 225 245 215 c 2
 396 40 l 2
 406 28 408 28 416 28 c 2
 428 28 l 2
 442 28 442 24 442 12 c 0
 442 1 442 -5 428 -5 c 0
 414 -5 384 -3 359 -3 c 0
 334 -3 302 -5 288 -5 c 0
 275 -5 275 1 275 12 c 0
 275 22 276 28 288 28 c 2
 301 28 l 2
 311 28 309 31 304 38 c 2
 194 174 l 2
 182 189 181 190 172 190 c 2
 160 190 l 2
 154 190 152 189 152 177 c 2
 152 93 l 2
 152 59 152 28 154 28 c 2
 186 28 l 2
 199 28 199 22 199 9 c 0xec
EndSplineSet
AlternateSubs2: "'aalt' Access All Alternates lookup 0 subtable" k.sc k.sub k.sup k.denom k.numer
AlternateSubs2: "'aalt' Access All Alternates in Latin lookup 0 subtable" k.sc k.sub k.sup k.denom k.numer
Substitution2: "'smcp' Lowercase to Small Capitals in Latin lookup 11 subtable" k.sc
Substitution2: "'subs' Subscript in Latin lookup 8 subtable" k.sub
Substitution2: "'sups' Superscript in Latin lookup 7 subtable" k.sup
Substitution2: "denominators subtable" k.denom
Substitution2: "numerators subtable" k.numer
EndChar

StartChar: z
Encoding: 122 122 11
Width: 413
VWidth: 0
Flags: W
HStem: -3 33<145.171 337.832> 358 34<77.0012 253>
VStem: 344 32<48 116.965>
DStem2: 43 32 146 53 0.561373 0.827563<61.5676 384.866>
AnchorPoint: "top" 200 500 basechar 0
AnchorPoint: "l;bl" 0 10 basechar 0
AnchorPoint: "l;x" 5 380 basechar 0
AnchorPoint: "l;o" 5 200 basechar 0
AnchorPoint: "r;bl" 413 10 basechar 0
AnchorPoint: "r;x" 393 380 basechar 0
AnchorPoint: "r;o" 393 200 basechar 0
LayerCount: 3
Back
SplineSet
42.5576171875 31.744140625 m 6
 256.486328125 346.638671875 l 5
 260.565429688 353.165039062 266.129882812 359.701171875 267.575195312 362.124023438 c 5
 264.702148438 362.8125 261.862304688 363 257.048828125 363 c 5
 102.116210938 358.001953125 l 5
 80.3291015625 357.01171875 81.748046875 358.53515625 77.919921875 341.310546875 c 5
 67.8984375 301.223632812 l 5
 66.0009765625 294.583007812 64.8388671875 287 52 287 c 4
 43.8447265625 287 33 288.212890625 33 296 c 4
 33 299.747070312 38.9873046875 350.065429688 42.0146484375 376.296875 c 4
 43.0693359375 388.956054688 46.1982421875 392 59 392 c 4
 340 392 l 4
 355.40234375 392 366 389.338867188 366 380 c 4
 366 373.971679688 361.158203125 370.79296875 356.514648438 363.36328125 c 5
 146.49609375 53.3359375 l 4
 142.389648438 47.17578125 138 40.353515625 138 37 c 4
 138 35.064453125 140.149414062 30 149.965820312 30 c 5
 323.965820312 34 l 5
 337.5546875 34 335.137695312 32.12109375 337.02734375 44.408203125 c 5
 344.02734375 102.408203125 l 5
 346.180664062 116.405273438 348.961914062 117 364 117 c 4
 372.727539062 117 376 113.55078125 376 108 c 4
 376 100.70703125 373.000976562 43.912109375 370.9921875 14.7861328125 c 4
 369.954101562 0.2529296875 367.833984375 -3 352 -3 c 4
 57 -3 l 4
 43.98828125 -3 32 -3.1884765625 32 10 c 4
 32 16.419921875 36.50390625 23.671875 42.5576171875 31.744140625 c 6
EndSplineSet
Fore
SplineSet
43 32 m 2
 256 346 l 2
 265 359 264 363 253 363 c 2
 102 358 l 2
 80 357 81 358 77 341 c 2
 67 298 l 2
 65 288 64 284 51 285 c 0
 43 286 34 286 34 291 c 0
 34 295 39 344 42 376 c 0
 43 389 43 392 59 392 c 2
 340 392 l 2
 355 392 367 391 367 382 c 0
 367 376 362 370 357 363 c 2
 146 53 l 2
 140 44 136 30 150 30 c 2
 324 34 l 2
 338 34 337 39 338 48 c 2
 344 102 l 2
 346 116 345 117 364 117 c 0
 375 117 376 114 376 110 c 0
 376 103 373 46 371 15 c 0
 370 0 368 -3 352 -3 c 2
 57 -3 l 2
 44 -3 32 -3 32 10 c 0
 32 16 37 24 43 32 c 2
EndSplineSet
AlternateSubs2: "'aalt' Access All Alternates lookup 0 subtable" z.sc z.sub z.sup z.denom z.numer
AlternateSubs2: "'aalt' Access All Alternates in Latin lookup 0 subtable" z.sc z.sub z.sup z.denom z.numer
Substitution2: "'smcp' Lowercase to Small Capitals in Latin lookup 11 subtable" z.sc
Substitution2: "'subs' Subscript in Latin lookup 8 subtable" z.sub
Substitution2: "'sups' Superscript in Latin lookup 7 subtable" z.sup
Substitution2: "denominators subtable" z.denom
Substitution2: "numerators subtable" z.numer
EndChar

StartChar: l
Encoding: 108 108 12
Width: 257
VWidth: 0
Flags: HMW
HStem: -5 33<27.0008 93.5869 171.394 231> 643 38<18.8154 83.9994>
VStem: 95 76<28 343.017>
AnchorPoint: "cedilla" 137 -100 basechar 0
AnchorPoint: "caron" 202 550 basechar 0
AnchorPoint: "top" 116 780 basechar 0
AnchorPoint: "l;bl" 0 10 basechar 0
AnchorPoint: "l;x" 5 380 basechar 0
AnchorPoint: "l;hi" 0 650 basechar 0
AnchorPoint: "l;o" 5 200 basechar 0
AnchorPoint: "r;bl" 257 10 basechar 0
AnchorPoint: "r;x" 257 380 basechar 0
AnchorPoint: "r;hi" 257 650 basechar 0
AnchorPoint: "r;o" 257 200 basechar 0
LayerCount: 3
Back
SplineSet
171 64 m 4
 171 38.966796875 172.413085938 28 176 28 c 4
 215 28 l 4
 228.521484375 28 231 21.638671875 231 12 c 4
 231 2.802734375 229.84765625 -5 215 -5 c 4
 195.818359375 -5 164.88671875 -3 136 -3 c 4
 111.135742188 -3 73.1142578125 -5 43 -5 c 4
 28.54296875 -5 27 0.6611328125 27 12 c 4
 27 21.765625 30.3740234375 28 42 28 c 4
 92.326171875 28 l 5
 94.8349609375 38.1748046875 95 88.080078125 95 110 c 4
 95 158.869140625 91.974609375 538.146484375 84.015625 626.690429688 c 5
 81.9306640625 644.411132812 83.912109375 643 76 643 c 4
 71.4111328125 643 32.44140625 639 28 639 c 4
 21.93359375 639 17 639.280273438 17 645 c 4
 17 648.540039062 18.0302734375 654.423828125 19.0302734375 661.423828125 c 4
 19.0517578125 661.577148438 l 5
 19.08984375 661.727539062 l 4
 21.162109375 670.017578125 22.65234375 670.979492188 31.7216796875 671.987304688 c 5
 71.943359375 675.00390625 148.513671875 681 155 681 c 4
 164.640625 681 165 674.255859375 165 663.009765625 c 4
 166 356.049804688 171 265.068359375 171 64 c 4
EndSplineSet
Fore
SplineSet
171 64 m 0xd0
 171 39 172 28 176 28 c 2
 219 28 l 2
 231 28 231 23 231 12 c 0
 231 0 231 -5 219 -5 c 0
 200 -5 165 -3 136 -3 c 0
 111 -3 70 -5 40 -5 c 0
 28 -5 27 1 27 12 c 0
 27 22 28 28 39 28 c 2
 90 28 l 2
 95 28 95 83 95 110 c 0xd0
 95 159 92 538 84 627 c 0
 82 645 78 643 73 643 c 0
 67 643 25 639 21 639 c 0
 17 639 16 639 16 644 c 0
 16 645 17 656 19 663 c 0
 21 672 23 671 31 672 c 0
 71 675 149 681 155 681 c 0
 165 681 165 674 165 663 c 0xe0
 166 356 171 265 171 64 c 0xd0
EndSplineSet
AlternateSubs2: "'aalt' Access All Alternates lookup 0 subtable" l.sc l.sub l.sup l.denom l.numer
AlternateSubs2: "'aalt' Access All Alternates in Latin lookup 0 subtable" l.sc l.sub l.sup l.denom l.numer l.CAT
Substitution2: "'smcp' Lowercase to Small Capitals in Latin lookup 11 subtable" l.sc
Substitution2: "'subs' Subscript in Latin lookup 8 subtable" l.sub
Substitution2: "'sups' Superscript in Latin lookup 7 subtable" l.sup
Substitution2: "denominators subtable" l.denom
Substitution2: "numerators subtable" l.numer
Substitution2: "catalan subtable" l.CAT
EndChar

StartChar: m
Encoding: 109 109 13
Width: 739
VWidth: 0
Flags: W
HStem: -5 33<25.0032 86.2969 163.155 216.997 283.003 339.022 413.526 463.991 523.003 582.709 661.428 716.997> 341 50<224.93 321.047 454.139 558.448> 344 40<24.5858 88.907>
VStem: 90 73<28 319.747 340 347> 341 72<28 322.738> 587 76<28 309.906>
AnchorPoint: "top" 381 500 basechar 0
AnchorPoint: "l;bl" 0 10 basechar 0
AnchorPoint: "l;x" 0 380 basechar 0
AnchorPoint: "l;o" 0 200 basechar 0
AnchorPoint: "r;bl" 739 10 basechar 0
AnchorPoint: "r;o" 739 200 basechar 0
LayerCount: 3
Back
SplineSet
162 342 m 6xbc
 162 336.94921875 162.12109375 333.333007812 162.28515625 331.390625 c 5
 167.158203125 335.368164062 l 4
 167.217773438 335.4140625 l 5
 167.279296875 335.458007812 l 4
 197.379882812 356.52734375 251.8515625 391 310 391 c 4
 378.474609375 391 394.674804688 349.741210938 399.249023438 340.346679688 c 5
 401.80859375 341.419921875 404.534179688 343.068359375 409.255859375 346.44140625 c 4
 409.314453125 346.482421875 l 5
 409.374023438 346.520507812 l 4
 440.82421875 366.811523438 497.009765625 389 536 389 c 4
 635.063476562 389 663 326.646484375 663 240 c 4
 663 155.95703125 661 82.92578125 661 35 c 4
 661 29.0419921875 661.411132812 28 668 28 c 4
 700 28 l 4
 713.319335938 28 717 22.0068359375 717 12 c 4
 717 2.4228515625 714.655273438 -5 700 -5 c 4
 680.809570312 -5 652.87890625 -3 624 -3 c 4
 599.15234375 -3 569.127929688 -5 539 -5 c 4
 524.54296875 -5 523 0.6611328125 523 12 c 4
 523 22.7568359375 529.990234375 28 541 28 c 4
 579.912109375 28 l 5
 586.547851562 43.515625 587 172.315429688 587 216 c 4
 587 282.951171875 571.321289062 341 501 341 c 4
 455.193359375 341 413.221679688 318.31640625 407.030273438 313.071289062 c 5
 407.541992188 305.774414062 413 292.94921875 413 236 c 4
 413 66 l 4
 413 46.767578125 413.478515625 31.244140625 414.358398438 28 c 5
 447 28 l 4
 460.319335938 28 464 22.0068359375 464 12 c 4
 464 2.4228515625 461.655273438 -5 447 -5 c 4
 427.799804688 -5 402.87109375 -3 374 -3 c 4
 349.185546875 -3 331.158203125 -5 301 -5 c 4
 286.918945312 -5 283 -0.0380859375 283 12 c 4
 283 21.765625 286.374023438 28 298 28 c 4
 336.094726562 28 l 5
 339.7734375 35.65234375 341 79.423828125 341 122 c 4
 341 165.98046875 340 208.890625 340 216 c 4
 340 284.68359375 336.91796875 341 271 341 c 4xdc
 221.75390625 341 188.315429688 323.236328125 172.837890625 311.627929688 c 5
 163.223632812 303.9375 163 301.247070312 163 296 c 4
 163 68 l 4
 163 28.3408203125 162.397460938 28 179 28 c 4
 200 28 l 4
 213.319335938 28 217 22.0068359375 217 12 c 4
 217 2.4228515625 214.655273438 -5 200 -5 c 4
 180.82421875 -5 148.872070312 -3 124 -3 c 4
 99.1103515625 -3 56.1572265625 -5 40 -5 c 4
 30.962890625 -5 25 -1.365234375 25 11 c 4
 25 20.171875 26.86328125 28 39 28 c 4
 78 28 l 4
 83.3603515625 28 85.8828125 37.0478515625 88.0146484375 57.298828125 c 4
 89.982421875 76.9697265625 90 118.02734375 90 163 c 4
 90 272 l 4
 90 306.563476562 88.4013671875 338.533203125 86.97265625 346.922851562 c 5
 76.037109375 346.415039062 34.8896484375 344 30 344 c 4
 25.5986328125 344 22 345.885742188 22 350 c 4
 22 352.95703125 23.9912109375 362.459960938 26.171875 369.000976562 c 5
 29.3388671875 377.447265625 30.0556640625 378.01171875 43.8203125 378.995117188 c 5
 84.94921875 381.000976562 138.672851562 384 144 384 c 4
 159.4453125 384 162 381.077148438 162 370 c 4
 162 342 l 6xbc
EndSplineSet
Fore
SplineSet
162 370 m 2xbc
 162 340 l 2
 162 331 162 331 167 335 c 0
 197 356 252 391 310 391 c 0
 386 391 396 340 399 340 c 0
 402 340 470 389 536 389 c 0
 635 389 663 327 663 240 c 0
 663 202 661 80 661 70 c 0
 661 45 662 28 663 28 c 2
 703 28 l 2
 716 28 717 22 717 12 c 0
 717 2 716 -5 703 -5 c 0
 684 -5 653 -3 624 -3 c 0
 599 -3 566 -5 536 -5 c 0
 524 -5 523 1 523 12 c 0
 523 23 527 28 538 28 c 2
 579 28 l 2
 587 28 587 180 587 216 c 0
 587 283 571 341 501 341 c 0
 454 341 407 315 407 313 c 0
 407 306 413 296 413 236 c 2
 413 124 l 2
 413 75 413 28 415 28 c 2
 451 28 l 2
 464 28 464 22 464 12 c 0
 464 2 461 -5 451 -5 c 0
 432 -5 403 -3 374 -3 c 0
 349 -3 329 -5 299 -5 c 0
 285 -5 283 0 283 12 c 0
 283 22 284 28 296 28 c 2
 334 28 l 2
 341 28 341 80 341 122 c 0
 341 166 340 209 340 216 c 0
 340 285 337 341 271 341 c 0xdc
 222 341 188 324 173 312 c 0
 163 304 163 301 163 296 c 2
 163 57 l 2
 163 28 164 28 179 28 c 2
 203 28 l 2
 216 28 217 22 217 12 c 0
 217 2 216 -5 203 -5 c 0
 184 -5 149 -3 124 -3 c 0
 99 -3 53 -5 37 -5 c 0
 28 -5 25 -2 25 11 c 0
 25 21 26 28 36 28 c 2
 78 28 l 2
 83 28 86 37 88 57 c 0
 90 77 90 118 90 163 c 2
 90 272 l 2
 90 300 89 327 88 340 c 0
 87 347 88 347 82 347 c 0
 66 346 30 344 26 344 c 0
 23 344 21 345 21 350 c 0
 21 353 24 362 26 369 c 0
 29 379 29 378 43 379 c 0
 84 381 145 384 150 384 c 0
 162 384 162 381 162 370 c 2xbc
EndSplineSet
AlternateSubs2: "'aalt' Access All Alternates lookup 0 subtable" m.sc m.sub m.sup m.denom m.numer
AlternateSubs2: "'aalt' Access All Alternates in Latin lookup 0 subtable" m.sc m.sub m.sup m.denom m.numer
Substitution2: "'smcp' Lowercase to Small Capitals in Latin lookup 11 subtable" m.sc
Substitution2: "'subs' Subscript in Latin lookup 8 subtable" m.sub
Substitution2: "'sups' Superscript in Latin lookup 7 subtable" m.sup
Substitution2: "denominators subtable" m.denom
Substitution2: "numerators subtable" m.numer
EndChar

StartChar: n
Encoding: 110 110 14
Width: 514
VWidth: 0
Flags: W
HStem: -5 33<28.0008 88.7494 167.001 229 300.004 361.625 437 491.997> 339 48<223.706 333.125> 343 34<23.3473 80.826>
VStem: 94 72<28 312.962 336 347.002> 365 77<28 306.659>
AnchorPoint: "cedilla" 264 -100 basechar 0
AnchorPoint: "top" 272 500 basechar 0
AnchorPoint: "l;bl" 0 10 basechar 0
AnchorPoint: "l;x" 0 380 basechar 0
AnchorPoint: "l;o" 0 200 basechar 0
AnchorPoint: "r;bl" 514 10 basechar 0
AnchorPoint: "r;o" 514 200 basechar 0
LayerCount: 3
Back
SplineSet
92.0068359375 335.803710938 m 4xd4
 91.046875 350.1953125 92.376953125 347 83 347 c 4
 80.3857421875 347 32.349609375 343 28 343 c 4
 23.0400390625 343 22 347.056640625 22 350 c 4
 22 354.262695312 25.1806640625 362.030273438 27.2021484375 367.083984375 c 5
 30.310546875 375.37109375 31.0966796875 376.014648438 44.7861328125 376.9921875 c 4xb4
 58.8271484375 377.995117188 121.788085938 381.9921875 149.80078125 383.993164062 c 4
 166.004882812 385.073242188 166 380.107421875 166 370 c 4
 166 328 l 4
 166 328 174.801757812 334.580078125 176.42578125 335.553710938 c 5
 206.013671875 354.29296875 243.916992188 387 306 387 c 4
 424.452148438 387 442 305.098632812 442 207 c 4xd4
 442 151.905273438 437 51.7666015625 437 37 c 4
 437 26.732421875 436.004882812 28 445 28 c 4
 475 28 l 4
 487.654296875 28 492 25.185546875 492 12 c 4
 492 2.943359375 491.00390625 -5 477 -5 c 4
 457.806640625 -5 430.875976562 -3 402 -3 c 4
 377.15234375 -3 347.127929688 -5 317 -5 c 4
 301.983398438 -5 300 -0.642578125 300 11 c 4xd8
 300 24.1083984375 304.93359375 28 316 28 c 4
 353 28 l 4
 362.26171875 28 360.055664062 25.7509765625 361.010742188 36.2490234375 c 4
 362.997070312 60.0947265625 365 106.038085938 365 212 c 4
 365 283.747070312 346.528320312 339 272 339 c 4
 232.901367188 339 204.563476562 321.427734375 184.341796875 311.31640625 c 4
 168.891601562 303.591796875 168 299.044921875 168 291 c 4
 168 208.975585938 167 125.975585938 167 44 c 4
 167 27.904296875 165.829101562 28 177 28 c 4
 213 28 l 4
 226.521484375 28 229 21.638671875 229 12 c 4
 229 2.802734375 227.84765625 -5 213 -5 c 4
 193.828125 -5 160.883789062 -3 132 -3 c 4
 107.145507812 -3 74.1220703125 -5 44 -5 c 4
 29.54296875 -5 28 0.6611328125 28 12 c 4
 28 21.765625 31.3740234375 28 43 28 c 4
 82 28 l 4
 89.6845703125 28 87.9521484375 27.380859375 89.0048828125 43.17578125 c 5
 92 102.06640625 94 173.078125 94 237 c 4
 94 270.999023438 93.9970703125 304.942382812 92.0068359375 335.803710938 c 4xd4
EndSplineSet
Fore
SplineSet
92 336 m 0xd8
 91 350 87 347 81 347 c 0
 78 347 29 343 25 343 c 0
 21 343 20 345 20 348 c 0
 20 352 24 362 26 367 c 0
 29 375 28 376 42 377 c 0xb8
 56 378 124 382 153 384 c 0
 168 385 166 380 166 370 c 2
 166 336 l 2
 166 325 170 332 177 336 c 0
 207 355 244 387 306 387 c 0
 424 387 442 305 442 207 c 0
 442 152 437 52 437 37 c 0
 437 28 437 28 445 28 c 2
 475 28 l 2
 488 28 492 25 492 12 c 0
 492 3 491 -5 477 -5 c 0
 458 -5 431 -3 402 -3 c 0
 377 -3 345 -5 315 -5 c 0
 300 -5 300 -1 300 11 c 0
 300 24 305 28 316 28 c 2
 359 28 l 2
 363 28 365 112 365 212 c 0
 365 284 347 339 272 339 c 0
 233 339 204 321 184 311 c 0
 169 303 168 299 168 291 c 0
 168 209 167 126 167 44 c 0
 167 28 168 28 177 28 c 2
 215 28 l 2
 229 28 229 22 229 12 c 0
 229 3 229 -5 216 -5 c 0
 197 -5 161 -3 132 -3 c 0
 107 -3 71 -5 41 -5 c 0
 28 -5 28 1 28 12 c 0
 28 22 29 28 41 28 c 2
 86 28 l 2
 92 28 94 205 94 237 c 0
 94 271 94 305 92 336 c 0xd8
EndSplineSet
AlternateSubs2: "'aalt' Access All Alternates lookup 0 subtable" n.sc n.sub n.sup n.denom n.numer
AlternateSubs2: "'aalt' Access All Alternates in Latin lookup 0 subtable" n.sc n.sub n.sup n.denom n.numer
Substitution2: "'smcp' Lowercase to Small Capitals in Latin lookup 11 subtable" n.sc
Substitution2: "'subs' Subscript in Latin lookup 8 subtable" n.sub
Substitution2: "'sups' Superscript in Latin lookup 7 subtable" n.sup
Substitution2: "denominators subtable" n.denom
Substitution2: "numerators subtable" n.numer
EndChar

StartChar: o
Encoding: 111 111 15
Width: 446
VWidth: 0
Flags: W
HStem: -18 32<168.382 279.244> 367 32<167.702 275.192>
VStem: 27 77<91.2649 280.597> 341 78<92.012 293.409>
AnchorPoint: "top" 230 500 basechar 0
AnchorPoint: "l;o" 0 200 basechar 0
AnchorPoint: "r;o" 446 200 basechar 0
LayerCount: 3
Back
SplineSet
223 367 m 4
 131.895507812 367 104 279.09375 104 169 c 4
 104 94.5771484375 143.615234375 14 219 14 c 4
 316.021484375 14 340 113.862304688 340 204 c 4
 340 281.604492188 304.291992188 367 223 367 c 4
235 399 m 4
 345.918945312 399 419 308.282226562 419 197 c 4
 419 72.7197265625 344.8046875 -18 219 -18 c 4
 110.212890625 -18 27 72.5009765625 27 183 c 4
 27 302.431640625 110.2265625 399 235 399 c 4
EndSplineSet
Fore
SplineSet
223 367 m 0
 132 367 104 279 104 169 c 0
 104 95 144 14 219 14 c 0
 324 14 341 120 341 204 c 0
 341 276 304 367 223 367 c 0
235 399 m 0
 346 399 419 308 419 197 c 0
 419 73 345 -18 219 -18 c 0
 110 -18 27 73 27 183 c 0
 27 302 110 399 235 399 c 0
EndSplineSet
AlternateSubs2: "'aalt' Access All Alternates lookup 0 subtable" o.sc o.sub o.sup o.denom o.numer
AlternateSubs2: "'aalt' Access All Alternates in Latin lookup 0 subtable" o.sc o.sub o.sup o.denom o.numer
Substitution2: "'smcp' Lowercase to Small Capitals in Latin lookup 11 subtable" o.sc
Substitution2: "'subs' Subscript in Latin lookup 8 subtable" o.sub
Substitution2: "'sups' Superscript in Latin lookup 7 subtable" o.sup
Substitution2: "denominators subtable" o.denom
Substitution2: "numerators subtable" o.numer
EndChar

StartChar: p
Encoding: 112 112 16
Width: 512
VWidth: 0
Flags: W
HStem: -282 31<38.0032 106.734 186.043 272.999> -12 25<210.141 316.772> 345 41<226.312 338.184> 346 31<23.7432 101.284>
VStem: 108 73<-251 4.99779 28.699 285.667> 402 78<104.885 278.639>
AnchorPoint: "top" 280 500 basechar 0
AnchorPoint: "l;bl" 5 10 basechar 0
AnchorPoint: "l;x" 0 380 basechar 0
AnchorPoint: "l;o" 5 200 basechar 0
AnchorPoint: "l;lo" 0 -260 basechar 0
AnchorPoint: "r;o" 512 200 basechar 0
LayerCount: 3
Back
SplineSet
188 -251 m 5
 257 -251 l 6
 271 -251 273 -257 273 -267 c 4
 273 -276 272 -284 257 -284 c 4
 238 -284 180 -282 151 -282 c 4
 126 -282 84 -284 54 -284 c 4
 40 -284 38 -278 38 -267 c 4
 38 -257 41 -251 53 -251 c 6
 106 -251 l 5
 108 -237 108 -165 108 -94 c 6
 108 48 l 6
 108 263 104 294 101 335 c 4
 100 348 102 346 88 346 c 4
 82 346 43 344 38 344 c 4
 29 344 22 343 22 352 c 4
 22 356 27 377 34 377 c 4
 101 379 162 383 166 383 c 4
 175 383 180 381 180 366 c 6
 180 336 l 5
 196 348 l 6
 220 365 263 386 306 386 c 4
 423 386 480 301 480 194 c 4
 480 92 401 -12 268 -12 c 4
 247 -12 220 -7 201 -1 c 4
 193 1 186 5 183 5 c 4
 181 5 181 5 181 2 c 6
 184 -187 l 6
 185 -220 186 -246 188 -251 c 5
275 345 m 4
 247 345 227 339 212 332 c 4
 180 316 181 305 181 302 c 6
 181 52 l 6
 181 32 234 13 265 13 c 4
 356 13 402 108 402 187 c 4
 402 284 347 345 275 345 c 4
EndSplineSet
Fore
SplineSet
189 -251 m 2xec
 259 -251 l 2
 273 -251 273 -257 273 -267 c 0
 273 -276 272 -284 259 -284 c 0
 240 -284 180 -282 151 -282 c 0
 126 -282 81 -284 51 -284 c 0
 39 -284 38 -278 38 -267 c 0
 38 -257 39 -251 51 -251 c 2
 105 -251 l 2
 108 -251 108 -159 108 -94 c 2
 108 48 l 2
 108 263 104 294 101 335 c 0
 100 348 98 346 88 346 c 0
 77 346 34 344 30 344 c 0
 23 344 21 344 21 348 c 0
 21 349 26 377 30 377 c 0
 97 379 162 383 166 383 c 0
 175 383 180 381 180 366 c 2
 180 346 l 2xdc
 180 334 189 343 196 348 c 0
 220 365 263 386 306 386 c 0
 423 386 480 301 480 194 c 0
 480 92 401 -12 268 -12 c 0
 225 -12 186 5 183 5 c 0
 181 5 181 2 181 -8 c 2
 184 -187 l 2
 185 -220 186 -251 189 -251 c 2xec
275 345 m 0xec
 247 345 227 339 212 332 c 0
 182 317 181 307 181 306 c 2
 181 49 l 2
 181 32 234 13 265 13 c 0
 356 13 402 108 402 187 c 0
 402 284 347 345 275 345 c 0xec
EndSplineSet
AlternateSubs2: "'aalt' Access All Alternates lookup 0 subtable" p.sc p.sub p.sup p.denom p.numer
AlternateSubs2: "'aalt' Access All Alternates in Latin lookup 0 subtable" p.sc p.sub p.sup p.denom p.numer
Substitution2: "'smcp' Lowercase to Small Capitals in Latin lookup 11 subtable" p.sc
Substitution2: "'subs' Subscript in Latin lookup 8 subtable" p.sub
Substitution2: "'sups' Superscript in Latin lookup 7 subtable" p.sup
Substitution2: "denominators subtable" p.denom
Substitution2: "numerators subtable" p.numer
EndChar

StartChar: q
Encoding: 113 113 17
Width: 490
VWidth: 0
Flags: W
HStem: -294 35<250.014 332.052> -283 35<413.688 467.997> -16 38<184.981 319.852> 351 33<177.13 308.973> 373 20G<393.5 408.5>
VStem: 32 77<103.03 271.488> 336 76<-247.925 1.27593 29.4143 331.836>
AnchorPoint: "l;o" 0 200 basechar 0
AnchorPoint: "r;bl" 490 10 basechar 0
AnchorPoint: "r;x" 490 380 basechar 0
AnchorPoint: "r;o" 490 200 basechar 0
AnchorPoint: "r;lo" 490 -260 basechar 0
LayerCount: 3
Back
SplineSet
336 291 m 6
 336 328.294921875 298.735351562 351 235 351 c 4
 148.477539062 351 109 268.354492188 109 191 c 4
 109 110.91796875 160.348632812 22 250 22 c 4
 280.793945312 22 336 29.6875 336 41 c 6
 336 291 l 6
412 -88 m 6
 412 -159.044921875 412.247070312 -235.012695312 414.134765625 -248 c 5
 453 -248 l 6
 465.186523438 -248 468 -256.618164062 468 -266 c 4
 468 -277.338867188 466.45703125 -283 452 -283 c 6
 425 -283 l 6
 338.053710938 -283 274.84765625 -294 269 -294 c 4
 255.12890625 -294 251 -289.315429688 251 -279 c 4
 251 -269.833984375 252.67578125 -260.18359375 266.721679688 -259.012695312 c 4
 335.48046875 -251.934570312 332.658203125 -260.0859375 333 -221.97265625 c 6
 335 1 l 6
 335 4.7978515625 334.595703125 6.9541015625 334.595703125 6.9541015625 c 5
 334 7 l 6
 332.135742188 7 326.93359375 5.146484375 319.83984375 3.1201171875 c 4
 295.7265625 -3.76953125 251.54296875 -16 209 -16 c 4
 129.662109375 -16 32 37.2392578125 32 180 c 4
 32 297.703125 122.485351562 384 243 384 c 4
 299.698242188 384 341.920898438 358 360 358 c 4
 374.66796875 358 379.145507812 391 398 391 c 4
 408.825195312 391 417 386.068359375 417 374.94921875 c 4
 412.997070312 255.864257812 412 168.01171875 412 77 c 6
 412 -88 l 6
EndSplineSet
Fore
SplineSet
336 291 m 2x36
 336 328 299 351 235 351 c 0
 148 351 109 268 109 191 c 0
 109 111 160 22 250 22 c 0
 281 22 336 30 336 41 c 2
 336 291 l 2x36
412 -88 m 2
 412 -154 412 -248 416 -248 c 2
 452 -248 l 2
 464 -248 468 -249 468 -266 c 0
 468 -280 468 -283 455 -283 c 2
 425 -283 l 2x6e
 338 -283 266 -294 260 -294 c 0
 250 -294 250 -286 250 -273 c 0
 250 -267 251 -260 262 -259 c 0
 325 -253 333 -258 333 -230 c 2
 335 0 l 2
 335 10 330 6 320 3 c 0
 296 -4 252 -16 209 -16 c 0
 130 -16 32 37 32 180 c 0
 32 298 122 384 243 384 c 0xb6
 300 384 342 358 360 358 c 0
 375 358 384 393 403 393 c 0x2e
 414 393 417 386 417 375 c 0
 413 256 412 168 412 77 c 2
 412 -88 l 2
EndSplineSet
AlternateSubs2: "'aalt' Access All Alternates lookup 0 subtable" q.sc q.sub q.sup q.denom q.numer
AlternateSubs2: "'aalt' Access All Alternates in Latin lookup 0 subtable" q.sc q.sub q.sup q.denom q.numer
Substitution2: "'smcp' Lowercase to Small Capitals in Latin lookup 11 subtable" q.sc
Substitution2: "'subs' Subscript in Latin lookup 8 subtable" q.sub
Substitution2: "'sups' Superscript in Latin lookup 7 subtable" q.sup
Substitution2: "denominators subtable" q.denom
Substitution2: "numerators subtable" q.numer
EndChar

StartChar: r
Encoding: 114 114 18
Width: 329
VWidth: 0
Flags: W
HStem: -3 31<32.0008 92.5937 171.618 255.997> 338 59<212.067 284.966> 348 28<23.6292 91.3842>
VStem: 96 66<28 362.998>
AnchorPoint: "cedilla" 144 -100 basechar 0
AnchorPoint: "top" 181 500 basechar 0
AnchorPoint: "l;bl" 0 10 basechar 0
AnchorPoint: "l;x" 0 380 basechar 0
AnchorPoint: "l;o" 0 200 basechar 0
AnchorPoint: "r;bl" 329 10 basechar 0
AnchorPoint: "r;x" 329 380 basechar 0
AnchorPoint: "r;o" 329 200 basechar 0
LayerCount: 3
Back
SplineSet
89.904296875 347.952148438 m 5
 78.849609375 347.643554688 31.814453125 346 28 346 c 4
 23.0400390625 346 22 350.056640625 22 353 c 4
 22 356.629882812 23.1552734375 360.965820312 25.2021484375 366.083984375 c 5
 28.310546875 374.37109375 29.0966796875 375.014648438 42.7861328125 375.9921875 c 4
 57.0478515625 377.010742188 140.818359375 379 148 379 c 4
 164.727539062 379 163 375.581054688 163 366 c 4
 163 346.909179688 162 320.909179688 162 302 c 4
 162 299.313476562 162.001953125 297.837890625 162.001953125 297.837890625 c 5
 163.415039062 302.623046875 164.602539062 306.4921875 166.249023438 310.197265625 c 5
 189.478515625 364.736328125 230.107421875 397 262 397 c 4
 293.518554688 397 322 365.432617188 322 351 c 4
 322 338.428710938 300.576171875 307 282 307 c 4
 256.510742188 307 239.279296875 338 222 338 c 4
 176.404296875 338 168 223.724609375 168 137 c 4
 168 81.419921875 169.740234375 28 177 28 c 4
 240 28 l 4
 253.521484375 28 256 21.638671875 256 12 c 4
 256 2.802734375 254.84765625 -5 240 -5 c 4
 220.877929688 -5 162.912109375 -3 134 -3 c 4
 109.150390625 -3 78.1259765625 -5 48 -5 c 4
 33.54296875 -5 32 0.6611328125 32 12 c 4
 32 21.765625 35.3740234375 28 47 28 c 4
 89.37109375 28 l 5
 94.4296875 35.919921875 96 96.173828125 96 162 c 4
 96 241.837890625 92.4482421875 333.229492188 89.904296875 347.952148438 c 5
EndSplineSet
Fore
SplineSet
88 348 m 0xb0
 82 348 31 346 28 346 c 0
 23 346 21 346 21 349 c 0
 21 353 24 363 25 368 c 0
 27 376 29 376 43 376 c 0xb0
 80 377 144 379 151 379 c 0
 163 379 163 379 163 370 c 0
 163 354 162 330 162 312 c 0
 162 296 161 300 166 310 c 0
 189 365 230 397 262 397 c 0
 294 397 322 365 322 351 c 0
 322 339 300 306 281 306 c 0
 259 306 239 338 222 338 c 0xd0
 176 338 168 224 168 137 c 0
 168 81 170 28 177 28 c 2
 243 28 l 2
 255 28 256 22 256 12 c 0
 256 3 256 -5 243 -5 c 0
 224 -5 163 -3 134 -3 c 0
 109 -3 75 -5 45 -5 c 0
 33 -5 32 1 32 12 c 0
 32 22 32 28 44 28 c 2
 88 28 l 2
 95 28 96 97 96 162 c 0
 96 243 94 348 88 348 c 0xb0
EndSplineSet
AlternateSubs2: "'aalt' Access All Alternates lookup 0 subtable" r.sc r.sub r.sup r.denom r.numer
AlternateSubs2: "'aalt' Access All Alternates in Latin lookup 0 subtable" r.sc r.sub r.sup r.denom r.numer
Substitution2: "'smcp' Lowercase to Small Capitals in Latin lookup 11 subtable" r.sc
Substitution2: "'subs' Subscript in Latin lookup 8 subtable" r.sub
Substitution2: "'sups' Superscript in Latin lookup 7 subtable" r.sup
Substitution2: "denominators subtable" r.denom
Substitution2: "numerators subtable" r.numer
EndChar

StartChar: s
Encoding: 115 115 19
Width: 337
VWidth: 0
Flags: W
HStem: -15 29<123.922 219.044> 369 27<125.014 206.129>
VStem: 35 64<258.795 339.814> 240 65<39.794 123.573>
AnchorPoint: "cedilla" 175 -100 basechar 0
AnchorPoint: "top" 169 500 basechar 0
AnchorPoint: "l;bl" 0 10 basechar 0
AnchorPoint: "l;x" 0 380 basechar 0
AnchorPoint: "l;o" 0 200 basechar 0
AnchorPoint: "r;bl" 337 10 basechar 0
AnchorPoint: "r;x" 337 380 basechar 0
AnchorPoint: "r;o" 337 200 basechar 0
LayerCount: 3
Back
SplineSet
182 396 m 4
 259.142578125 396 289 351.151367188 289 326 c 4
 289 311.012695312 256.521484375 304 246 304 c 4
 217.499023438 304 231.98046875 369 169 369 c 4
 136.942382812 369 99 351.890625 99 302 c 4
 99 261.333984375 136.755859375 244.962890625 179.3046875 224.701171875 c 4
 236.719726562 196.983398438 305 167.518554688 305 106 c 4
 305 30.794921875 236.006835938 -15 161 -15 c 4
 100.08203125 -15 32 15.4736328125 32 50 c 4
 32 67.607421875 54.408203125 91 65 91 c 4
 74.3671875 91 75.7685546875 75.212890625 86.291015625 62.9365234375 c 5
 106.220703125 39.021484375 130.287109375 14 177 14 c 4
 209.798828125 14 240 32.8642578125 240 76 c 4
 240 120.764648438 200.083007812 142.129882812 152.799804688 162.25 c 4
 98.3798828125 185.997070312 35 206.68359375 35 280 c 4
 35 349.4375 110.11328125 396 182 396 c 4
EndSplineSet
Fore
SplineSet
182 396 m 0
 259 396 289 352 289 324 c 0
 289 312 257 304 244 304 c 0
 219 304 232 369 169 369 c 0
 137 369 99 352 99 302 c 0
 99 261 136 246 179 225 c 0
 236 198 305 168 305 106 c 0
 305 31 236 -15 161 -15 c 0
 100 -15 32 15 32 50 c 0
 32 70 58 92 65 92 c 0
 72 92 76 76 86 63 c 0
 107 37 133 14 177 14 c 0
 210 14 240 33 240 76 c 0
 240 121 200 142 153 162 c 0
 99 186 35 213 35 280 c 0
 35 349 110 396 182 396 c 0
EndSplineSet
AlternateSubs2: "'aalt' Access All Alternates lookup 0 subtable" longs s.sc s.sub s.sup s.denom s.numer
AlternateSubs2: "'aalt' Access All Alternates in Latin lookup 0 subtable" longs s.sc s.sub s.sup s.denom s.numer
Substitution2: "'hist' Historical Forms in Latin lookup 13 subtable" longs
Substitution2: "'smcp' Lowercase to Small Capitals in Latin lookup 11 subtable" s.sc
Substitution2: "'subs' Subscript in Latin lookup 8 subtable" s.sub
Substitution2: "'sups' Superscript in Latin lookup 7 subtable" s.sup
Substitution2: "denominators subtable" s.denom
Substitution2: "numerators subtable" s.numer
EndChar

StartChar: t
Encoding: 116 116 20
Width: 289
VWidth: 0
Flags: W
HStem: -12 53<119 228.716> 335 40<145.178 260.412>
VStem: 73 72<45.5242 333.785>
AnchorPoint: "top" 142 540 basechar 0
AnchorPoint: "caron" 181 550 basechar 0
AnchorPoint: "cedilla" 155 -100 basechar 0
AnchorPoint: "l;bl" 0 10 basechar 0
AnchorPoint: "l;x" 0 380 basechar 0
AnchorPoint: "l;o" 0 200 basechar 0
AnchorPoint: "r;bl" 289 10 basechar 0
AnchorPoint: "r;x" 289 380 basechar 0
AnchorPoint: "r;o" 289 200 basechar 0
LayerCount: 3
Back
SplineSet
35.705078125 353.947265625 m 6
 126.532226562 480.706054688 l 5
 128.915039062 484.28125 132.908203125 487 138 487 c 4
 144.20703125 487 151 482.87109375 151 474 c 4
 151 470.556640625 145 397.764648438 145 382 c 4
 145 374.329101562 144.649414062 375 153 375 c 4
 248 375 l 4
 251.24609375 375 253.768554688 375.043945312 256.033203125 374.584960938 c 4
 264.083007812 372.955078125 262.59375 365.340820312 259.922851562 353.325195312 c 4
 256.881835938 340.145507812 252.8046875 335 244 335 c 4
 146.3984375 335 l 5
 145.1015625 329.911132812 145 314.037109375 145 292 c 4
 145 100 l 4
 145 68.857421875 146.57421875 41 190 41 c 4
 228.563476562 41 260.05859375 57 270 57 c 4
 277.555664062 57 277 43.28125 277 38 c 4
 277 28.41796875 188.6796875 -12 148 -12 c 4
 89.0244140625 -12 73 29.0048828125 73 60.0205078125 c 5
 74 132.048828125 75 247.025390625 75 276 c 4
 75 314.986328125 72.5947265625 334 66 334 c 4
 41 334 l 4
 34.9599609375 334 32 339.024414062 32 344 c 4
 32 347.627929688 32.9970703125 351.239257812 35.705078125 353.947265625 c 6
EndSplineSet
Fore
SplineSet
140 490 m 0
 148 490 151 485 151 478 c 0
 151 475 145 398 145 382 c 0
 145 375 145 375 153 375 c 2
 256 375 l 2
 261 375 263 374 263 369 c 0
 263 365 261 358 260 353 c 0
 256 339 253 335 244 335 c 2
 149 335 l 2
 145 335 145 318 145 292 c 2
 145 100 l 2
 145 69 147 41 190 41 c 0
 229 41 262 57 272 57 c 0
 276 57 277 48 277 42 c 0
 277 37 277 36 272 32 c 0
 251 17 183 -12 148 -12 c 0
 90 -12 73 28 73 59 c 0
 73 131 75 247 75 276 c 0
 75 315 73 334 64 334 c 2
 39 334 l 2
 33 334 31 338 31 344 c 0
 31 348 33 351 36 354 c 2
 127 481 l 2
 131 487 135 490 140 490 c 0
EndSplineSet
AlternateSubs2: "'aalt' Access All Alternates lookup 0 subtable" t.sc t.sub t.sup t.denom t.numer
AlternateSubs2: "'aalt' Access All Alternates in Latin lookup 0 subtable" t.sc t.sub t.sup t.denom t.numer
Substitution2: "'smcp' Lowercase to Small Capitals in Latin lookup 11 subtable" t.sc
Substitution2: "'subs' Subscript in Latin lookup 8 subtable" t.sub
Substitution2: "'sups' Superscript in Latin lookup 7 subtable" t.sup
Substitution2: "denominators subtable" t.denom
Substitution2: "numerators subtable" t.numer
EndChar

StartChar: u
Encoding: 117 117 21
Width: 510
VWidth: 0
Flags: W
HStem: -19 42<424.093 487.18> -2 31<439.121 488.997> 352 35<13.5281 74.8568 284.051 344.384>
VStem: 77 76<60.7683 352.98> 349 74<47.7575 355.883>
AnchorPoint: "top" 240 500 basechar 0
AnchorPoint: "l;bl" 10 10 basechar 0
AnchorPoint: "l;x" 0 380 basechar 0
AnchorPoint: "l;o" 0 200 basechar 0
AnchorPoint: "r;bl" 510 10 basechar 0
AnchorPoint: "r;x" 510 380 basechar 0
AnchorPoint: "r;o" 510 200 basechar 0
LayerCount: 3
Back
SplineSet
342.32421875 355.956054688 m 5x5c
 332.572265625 355.626953125 295.973632812 354 292 354 c 4
 287.768554688 354 285 356.768554688 285 361 c 4
 285 361.19921875 l 5
 285.026367188 361.396484375 l 4
 286.907226562 375.505859375 285.729492188 382.833984375 300.805664062 383.994140625 c 5
 319.978515625 385.002929688 408.715820312 389 414 389 c 4
 420.772460938 389 424 386.279296875 424 379.987304688 c 4
 424 379.987304688 423 140.984375 423 79 c 4
 423 29 426.4296875 23 439 23 c 4x9c
 441.307617188 23 477.224609375 29 480 29 c 4
 487.137695312 29 488 21.515625 488 16 c 4
 488 1.19921875 484.908203125 -0.8955078125 471.436523438 -2.9677734375 c 4x3c
 437.305664062 -7.9873046875 374.83203125 -18 367 -18 c 4x9c
 359.65234375 -18 354.106445312 -14.306640625 353.008789062 -2.2353515625 c 5
 352.211914062 9.7138671875 351.708984375 27.1953125 350.640625 32.43359375 c 5
 334.727539062 25.904296875 258.991210938 -14 189 -14 c 4
 91.607421875 -14 77 54.7685546875 77 122 c 4
 77 279 l 4
 77 325.298828125 75.291015625 353 68 353 c 4
 65.109375 353 23.0986328125 352 19 352 c 4
 13.8447265625 352 12 356.387695312 12 360 c 4
 12 363.701171875 13.2216796875 367.131835938 15.2021484375 372.083984375 c 5
 18.4150390625 380.650390625 20.6953125 381.985351562 32.8076171875 382.994140625 c 5
 55.0244140625 384.00390625 137.747070312 387 143 387 c 4
 149.772460938 387 153 384.26953125 153 378 c 4
 153 106 l 4
 153 52.9482421875 201.728515625 42 261 42 c 4
 295.185546875 42 349 47.9443359375 349 55 c 4
 349 173 l 4
 349 200.720703125 346.715820312 338.284179688 342.32421875 355.956054688 c 5x5c
EndSplineSet
Fore
SplineSet
357 -19 m 0xb8
 351 -19 353 32 350 32 c 0
 348 32 263 -14 189 -14 c 0
 92 -14 77 55 77 122 c 2
 77 279 l 2
 77 325 75 353 68 353 c 0
 65 353 23 352 19 352 c 0
 14 352 11 353 11 357 c 0
 11 361 13 369 15 374 c 0
 18 383 21 382 33 383 c 0
 55 384 142 387 147 387 c 0
 153 387 153 384 153 378 c 2
 153 106 l 2
 153 53 202 42 261 42 c 0
 295 42 349 48 349 55 c 2
 349 173 l 2
 349 195 347 356 341 356 c 0
 333 356 294 354 291 354 c 0
 287 354 283 354 283 357 c 0
 283 360 284 372 285 375 c 0
 286 382 289 384 298 384 c 0
 349 386 409 389 414 389 c 0
 425 389 424 386 424 380 c 2
 424 380 423 141 423 79 c 0
 423 29 426 23 439 23 c 0xb8
 441 23 480 29 483 29 c 0
 489 29 489 22 489 16 c 0
 489 1 489 0 476 -2 c 0x78
 442 -7 361 -19 357 -19 c 0xb8
EndSplineSet
AlternateSubs2: "'aalt' Access All Alternates lookup 0 subtable" u.sc u.sub u.sup u.denom u.numer
AlternateSubs2: "'aalt' Access All Alternates in Latin lookup 0 subtable" u.sc u.sub u.sup u.denom u.numer
Substitution2: "'smcp' Lowercase to Small Capitals in Latin lookup 11 subtable" u.sc
Substitution2: "'subs' Subscript in Latin lookup 8 subtable" u.sub
Substitution2: "'sups' Superscript in Latin lookup 7 subtable" u.sup
Substitution2: "denominators subtable" u.denom
Substitution2: "numerators subtable" u.numer
EndChar

StartChar: v
Encoding: 118 118 22
Width: 461
VWidth: 0
Flags: HMW
HStem: -28 21G<199.5 210> 352 33<22.0032 65.9985 146.003 205.999 300 348.998 393.668 438.999>
DStem2: 146 347 66 339 0.314409 -0.949288<0.610369 293.091>
AnchorPoint: "l;x" 0 380 basechar 0
AnchorPoint: "l;o" 20 200 basechar 0
AnchorPoint: "r;x" 461 380 basechar 0
AnchorPoint: "r;o" 431 200 basechar 0
LayerCount: 3
Back
SplineSet
397.587890625 343.48046875 m 4
 375.861328125 303.9765625 315.7734375 144.845703125 270.69921875 50.69140625 c 4
 254.423828125 17.1220703125 247.17578125 18.85546875 221.49609375 -19.6640625 c 4
 221.423828125 -19.7724609375 l 5
 221.342773438 -19.8740234375 l 4
 217.021484375 -25.275390625 212.322265625 -28 208 -28 c 4
 191.038085938 -28 181.475585938 21.087890625 175.145507812 40.076171875 c 4
 164.19921875 73.912109375 106.161132812 235.0234375 66.20703125 338.904296875 c 5
 60.4140625 353.38671875 61.6337890625 352 47 352 c 4
 38 352 l 4
 24.478515625 352 22 358.361328125 22 368 c 4
 22 377.197265625 23.15234375 385 38 385 c 4
 57.224609375 385 76.1435546875 383 105 383 c 4
 129.884765625 383 171.849609375 385 190 385 c 4
 204.45703125 385 206 379.338867188 206 368 c 4
 206 358.234375 202.625976562 352 191 352 c 4
 161 352 l 4
 149.892578125 352 146.293945312 350.31640625 145.99609375 347.232421875 c 5
 148.092773438 337.555664062 211.450195312 151.556640625 239.7578125 85.181640625 c 4
 244.319335938 74.537109375 247.963867188 70.0625 248.973632812 69.2041015625 c 5
 250.185546875 70.5693359375 252.237304688 75.6708984375 255.224609375 83.1396484375 c 5
 279.188476562 140.052734375 349 307.690429688 349 339 c 4
 349 348.787109375 346.38671875 352 342 352 c 4
 316 352 l 4
 302.478515625 352 300 358.361328125 300 368 c 4
 300 377.577148438 302.344726562 385 317 385 c 4
 325.271484375 385 354.127929688 383 374 383 c 4
 395.806640625 383 409.708007812 385 425 385 c 4
 436.715820312 385 439 379.322265625 439 368 c 4
 439 358.234375 435.625976562 352 424 352 c 4
 408 352 l 4
 401.225585938 352 402.874023438 351.938476562 397.587890625 343.48046875 c 4
EndSplineSet
Fore
SplineSet
397 342 m 0
 375 302 316 145 271 51 c 0
 255 17 247 19 221 -20 c 0
 217 -25 212 -28 208 -28 c 0
 191 -28 181 21 175 40 c 0
 164 74 106 235 66 339 c 0
 61 351 62 352 53 352 c 2
 35 352 l 2
 23 352 22 358 22 368 c 0
 22 377 23 385 35 385 c 0
 54 385 76 383 105 383 c 0
 130 383 177 385 195 385 c 0
 206 385 206 379 206 368 c 0
 206 358 205 352 196 352 c 2
 161 352 l 2
 150 352 146 350 146 347 c 0
 148 337 211 150 240 85 c 0
 244 77 246 72 248 72 c 0
 250 72 252 75 255 83 c 0
 279 140 349 308 349 339 c 0
 349 349 346 352 342 352 c 2
 313 352 l 2
 300 352 300 358 300 368 c 0
 300 378 300 385 314 385 c 0
 322 385 354 383 374 383 c 0
 396 383 413 385 428 385 c 0
 438 385 439 379 439 368 c 0
 439 358 437 352 427 352 c 2
 408 352 l 2
 402 352 402 350 397 342 c 0
EndSplineSet
AlternateSubs2: "'aalt' Access All Alternates lookup 0 subtable" v.sc v.sub v.sup v.denom v.numer
AlternateSubs2: "'aalt' Access All Alternates in Latin lookup 0 subtable" v.sc v.sub v.sup v.denom v.numer
Substitution2: "'smcp' Lowercase to Small Capitals in Latin lookup 11 subtable" v.sc
Substitution2: "'subs' Subscript in Latin lookup 8 subtable" v.sub
Substitution2: "'sups' Superscript in Latin lookup 7 subtable" v.sup
Substitution2: "denominators subtable" v.denom
Substitution2: "numerators subtable" v.numer
EndChar

StartChar: w
Encoding: 119 119 23
Width: 697
VWidth: 0
Flags: HMW
HStem: -28 21G<198.5 207.5 457.5 468> 352 33<22.0004 67.9988 152.002 205.999 280.001 336.716 410.013 454.998 536.003 591 638.859 675.999>
DStem2: 255 92 269 52 0.350597 0.936527<-18.0866 205.938> 410 344 364 264 0.304752 -0.952432<52.1121 288.362>
AnchorPoint: "top" 367 500 basechar 0
AnchorPoint: "l;x" 0 380 basechar 0
AnchorPoint: "l;o" 20 200 basechar 0
AnchorPoint: "r;x" 697 380 basechar 0
AnchorPoint: "r;o" 677 200 basechar 0
LayerCount: 3
Back
SplineSet
479.64453125 -19.419921875 m 4
 476.006835938 -26.6953125 469.640625 -28 466 -28 c 4
 449.004882812 -28 438.575195312 21.0654296875 433.109375 40.1982421875 c 5
 426.129882812 66.1220703125 395.127929688 170.130859375 364.154296875 264.051757812 c 4
 361.752929688 271.254882812 359.991210938 276.2265625 358.831054688 278.83203125 c 5
 356.615234375 274.844726562 355.254882812 271.276367188 352.827148438 263.994140625 c 5
 327.793945312 197.90625 297.84375 111.990234375 268.69921875 51.69140625 c 4
 252.310546875 17.888671875 243.255859375 21.873046875 220.658203125 -19.3916015625 c 5
 216.95703125 -26.79296875 209.4765625 -28 206 -28 c 4
 190.973632812 -28 177.640625 20.8369140625 172.122070312 40.1533203125 c 4
 162.198242188 73.89453125 107.169921875 225.004882812 68.154296875 339.051757812 c 4
 63.4560546875 353.143554688 62.732421875 352 49 352 c 6
 38 352 l 4
 24.478515625 352 22 358.361328125 22 368 c 4
 22 377.197265625 23.15234375 385 38 385 c 4
 57.224609375 385 76.1435546875 383 105 383 c 4
 129.884765625 383 171.849609375 385 190 385 c 4
 204.45703125 385 206 379.338867188 206 368 c 4
 206 358.234375 202.625976562 352 191 352 c 4
 166 352 l 4
 154.891601562 352 151.294921875 350.33203125 150.994140625 347.213867188 c 5
 152.935546875 337.374023438 210.490234375 151.462890625 238.74609375 85.208984375 c 5
 242.05078125 77.9384765625 244.598632812 72.6044921875 245.268554688 71.541015625 c 5
 247.365234375 73.927734375 250.796875 81.0703125 255.2109375 92.1044921875 c 4
 274.229492188 140.151367188 314.194335938 238.065429688 335.18359375 298.034179688 c 5
 340.204101562 311.087890625 342 317.610351562 342 324 c 4
 342 329.506835938 341.387695312 330.515625 337.31640625 338.658203125 c 4
 331.12109375 351.049804688 321.06640625 352 306 352 c 4
 296 352 l 4
 282.478515625 352 280 358.361328125 280 368 c 4
 280 377.197265625 281.15234375 385 296 385 c 4
 321.203125 385 335.150390625 383 369 383 c 4
 394.829101562 383 413.818359375 385 439 385 c 4
 453.45703125 385 455 379.338867188 455 368 c 4
 455 358.234375 451.625976562 352 440 352 c 4
 419 352 l 4
 408.8125 352 409.181640625 351.60546875 408.991210938 347.213867188 c 5
 410.837890625 337.200195312 464.45703125 151.421875 490.7734375 85.14453125 c 5
 494.975585938 75.3388671875 498.998046875 66.8369140625 500.135742188 65.01953125 c 5
 502.4140625 68.6982421875 505.280273438 76.7783203125 508.225585938 84.1416015625 c 5
 530.06640625 135.765625 592 321.557617188 592 344 c 4
 592 349.65625 590.646484375 352 583 352 c 4
 552 352 l 4
 538.478515625 352 536 358.361328125 536 368 c 4
 536 377.577148438 538.344726562 385 553 385 c 4
 561.271484375 385 590.127929688 383 610 383 c 4
 631.879882812 383 653.654296875 385 661 385 c 4
 672.715820312 385 675 379.322265625 675 368 c 4
 675 358.234375 671.625976562 352 660 352 c 4
 654 352 l 4
 647.005859375 352 646.555664062 351.40234375 642.670898438 343.6328125 c 5
 620.94921875 302.166015625 570.834960938 144.974609375 525.69921875 50.69140625 c 4
 509.390625 17.0546875 502.346679688 20.0634765625 479.64453125 -19.419921875 c 4
EndSplineSet
Fore
SplineSet
480 -19 m 0
 476 -26 470 -28 466 -28 c 0
 449 -28 438 21 433 40 c 0
 426 64 394 176 364 264 c 0
 362 268 361 273 359 273 c 0
 357 273 355 269 353 264 c 0
 328 198 298 112 269 52 c 0
 253 18 244 22 221 -19 c 0
 217 -26 209 -28 206 -28 c 0
 191 -28 178 21 172 40 c 0
 162 74 107 225 68 339 c 0
 64 351 61 352 52 352 c 2
 36 352 l 2
 22 352 22 358 22 368 c 0
 22 377 22 385 36 385 c 0
 55 385 76 383 105 383 c 0
 130 383 174 385 192 385 c 0
 206 385 206 379 206 368 c 0
 206 358 205 352 193 352 c 2
 166 352 l 2
 155 352 152 348 152 345 c 0
 152 338 211 151 239 85 c 0
 242 79 244 76 246 76 c 0
 249 76 251 82 255 92 c 0
 274 140 314 238 335 298 c 0
 340 311 342 318 342 324 c 0
 342 330 341 331 337 339 c 0
 331 351 321 352 306 352 c 2
 294 352 l 2
 281 352 280 358 280 368 c 0
 280 377 280 385 294 385 c 0
 319 385 335 383 369 383 c 0
 395 383 416 385 441 385 c 0
 455 385 455 379 455 368 c 0
 455 358 452 352 440 352 c 2
 419 352 l 2
 409 352 410 348 410 344 c 0
 412 334 465 151 491 85 c 0
 495 74 498 70 500 70 c 0
 502 70 504 75 508 84 c 0
 530 136 591 318 591 340 c 0
 591 346 591 352 583 352 c 2
 549 352 l 2
 537 352 536 358 536 368 c 0
 536 378 537 385 550 385 c 0
 558 385 590 383 610 383 c 0
 632 383 657 385 664 385 c 0
 674 385 676 379 676 368 c 0
 676 358 674 352 663 352 c 2
 657 352 l 2
 650 352 646 350 642 342 c 0
 621 302 571 145 526 51 c 0
 510 17 503 20 480 -19 c 0
EndSplineSet
AlternateSubs2: "'aalt' Access All Alternates lookup 0 subtable" w.sc w.sub w.sup w.denom w.numer
AlternateSubs2: "'aalt' Access All Alternates in Latin lookup 0 subtable" w.sc w.sub w.sup w.denom w.numer
Substitution2: "'smcp' Lowercase to Small Capitals in Latin lookup 11 subtable" w.sc
Substitution2: "'subs' Subscript in Latin lookup 8 subtable" w.sub
Substitution2: "'sups' Superscript in Latin lookup 7 subtable" w.sup
Substitution2: "denominators subtable" w.denom
Substitution2: "numerators subtable" w.numer
EndChar

StartChar: x
Encoding: 120 120 24
Width: 468
VWidth: 0
Flags: W
HStem: -5 33<22.0022 70.1062 126.407 173 275.001 314.997 397.363 444> 352 33<42.0004 99.6719 180.004 210.999 306 355.999 401.047 445.999>
DStem2: 188 333 98 338 0.586197 -0.810169<-16.7619 119.232 157.854 316.415>
AnchorPoint: "l;bl" 0 10 basechar 0
AnchorPoint: "l;x" 20 380 basechar 0
AnchorPoint: "l;o" 25 200 basechar 0
AnchorPoint: "r;bl" 468 10 basechar 0
AnchorPoint: "r;x" 468 380 basechar 0
AnchorPoint: "r;o" 448 200 basechar 0
LayerCount: 3
Back
SplineSet
352 339 m 4
 355 345 358 347 358 348 c 6
 358 348 356 352 335 352 c 6
 322 352 l 6
 308 352 306 358 306 368 c 4
 306 378 308 385 323 385 c 4
 342 385 357 383 377 383 c 4
 399 383 415 385 430 385 c 4
 441 385 446 380 446 368 c 4
 446 358 443 352 431 352 c 4
 414 352 405 339 389 324 c 4
 349 287 305 241 284 220 c 4
 276 212 275 211 275 210 c 4
 275 209 278.15234375 205.111328125 284 197 c 4
 309.15234375 162.111328125 373.244140625 74.1884765625 400 40 c 4
 409.244140625 28.1884765625 408 28 416 28 c 6
 428 28 l 6
 442 28 444 22 444 12 c 4
 444 3 443 -5 428 -5 c 4
 409 -5 388 -3 359 -3 c 4
 334 -3 309 -5 291 -5 c 4
 277 -5 275 1 275 12 c 4
 275 22 278 28 290 28 c 6
 301 28 l 6
 317 28 318 29 318 33 c 4
 317 37 305.875976562 49.9208984375 297 64 c 4
 276.875976562 95.9208984375 248 137 233 157 c 4
 230 161 227 164 226 165 c 4
 224 166 224 167 217 158 c 4
 196 133 146 77 123 45 c 4
 118 38 114 33 114 31 c 5
 114 31 115 28 129 28 c 6
 157 28 l 6
 171 28 173 22 173 12 c 4
 173 3 172 -5 157 -5 c 4
 138 -5 123 -3 94 -3 c 4
 69 -3 53 -5 38 -5 c 4
 26 -5 22 0 22 12 c 4
 22 22 25 28 37 28 c 4
 55 28 56.8115234375 30.1826171875 82 56 c 6
 202 179 l 6
 212 189 211.33984375 185.467773438 205 194 c 6
 98 338 l 6
 87 353 89 352 74 352 c 6
 58 352 l 6
 44 352 42 358 42 368 c 4
 42 377 43 385 58 385 c 4
 77 385 108 383 137 383 c 4
 162 383 177 385 195 385 c 4
 209 385 211 379 211 368 c 4
 211 358 208 352 196 352 c 4
 180 352 179 349 179 349 c 5
 179 347 183.139648438 340.09765625 188 333 c 6
 251 241 l 6
 255 235 257 231 258 231 c 4
 260 232 263 236 268 241 c 5
 269 240 351 337 352 339 c 4
EndSplineSet
Fore
SplineSet
335 352 m 2
 319 352 l 2
 306 352 306 358 306 368 c 0
 306 378 306 385 320 385 c 0
 325 385 350 383 377 383 c 0
 406 383 426 385 434 385 c 0
 445 385 446 380 446 368 c 0
 446 358 445 352 433 352 c 0
 413 352 405 339 389 324 c 0
 349 287 305 241 284 220 c 0
 278 214 276 212 276 210 c 0
 276 208 278 205 284 197 c 0
 309 162 373 74 400 40 c 0
 409 28 410 28 418 28 c 2
 430 28 l 2
 444 28 444 22 444 12 c 0
 444 3 444 -5 431 -5 c 0
 420 -5 388 -3 359 -3 c 0
 334 -3 295 -5 289 -5 c 0
 275 -5 275 1 275 12 c 0
 275 22 276 28 288 28 c 2
 301 28 l 2
 311 28 315 30 315 34 c 0
 315 41 304 52 297 64 c 0
 277 96 248 137 233 157 c 0
 229 162 227 165 225 165 c 0
 223 165 221 163 217 158 c 0
 196 133 146 77 123 45 c 0
 115 33 114 28 129 28 c 2
 159 28 l 2
 173 28 173 22 173 12 c 0
 173 3 173 -5 159 -5 c 0
 144 -5 123 -3 94 -3 c 0
 69 -3 47 -5 32 -5 c 0
 22 -5 22 0 22 12 c 0
 22 26 25 28 37 28 c 0
 55 28 57 30 82 56 c 2
 202 179 l 2
 209 186 210 187 205 194 c 2
 98 338 l 2
 88 351 87 352 78 352 c 2
 56 352 l 2
 42 352 42 358 42 368 c 0
 42 377 42 385 56 385 c 0
 65 385 108 383 137 383 c 0
 162 383 192 385 199 385 c 0
 210 385 211 379 211 368 c 0
 211 358 211 352 200 352 c 0
 185 352 180 352 180 348 c 0
 180 346 183 339 188 333 c 2
 251 241 l 2
 259 228 258 231 269 242 c 0
 278 251 340 324 350 337 c 0
 354 342 356 345 356 347 c 0
 356 350 355 352 335 352 c 2
EndSplineSet
AlternateSubs2: "'aalt' Access All Alternates lookup 0 subtable" x.sc x.sub x.sup x.denom x.numer
AlternateSubs2: "'aalt' Access All Alternates in Latin lookup 0 subtable" x.sc x.sub x.sup x.denom x.numer
Substitution2: "'smcp' Lowercase to Small Capitals in Latin lookup 11 subtable" x.sc
Substitution2: "'subs' Subscript in Latin lookup 8 subtable" x.sub
Substitution2: "'sups' Superscript in Latin lookup 7 subtable" x.sup
Substitution2: "denominators subtable" x.denom
Substitution2: "numerators subtable" x.numer
EndChar

StartChar: y
Encoding: 121 121 25
Width: 467
VWidth: 0
Flags: W
HStem: 352 33<22.0032 66.9985 159.007 215.998 293.003 358.997 403.157 444.999>
DStem2: 179 -163 233 -115 0.352687 0.935741<-33.3886 127.322 243.37 474.67>
AnchorPoint: "top" 251 500 basechar 0
AnchorPoint: "l;x" 0 380 basechar 0
AnchorPoint: "l;o" 20 200 basechar 0
AnchorPoint: "l;lo" 40 -260 basechar 0
AnchorPoint: "r;x" 467 380 basechar 0
AnchorPoint: "r;o" 447 200 basechar 0
LayerCount: 3
Back
SplineSet
90.986328125 -212.17578125 m 4
 117.802734375 -201.861328125 169.029296875 -189.735351562 179.20703125 -162.905273438 c 5
 196.168945312 -120.999023438 223 -53.2890625 223 -43 c 4
 223 -28.1533203125 108.1484375 239.047851562 67.21484375 338.885742188 c 4
 61.3251953125 353.609375 63.5517578125 352 49 352 c 4
 38 352 l 4
 24.478515625 352 22 358.361328125 22 368 c 4
 22 377.197265625 23.15234375 385 38 385 c 4
 57.1962890625 385 83.126953125 383 112 383 c 4
 136.888671875 383 181.85546875 385 200 385 c 4
 214.45703125 385 216 379.338867188 216 368 c 4
 216 358.234375 212.625976562 352 201 352 c 4
 182 352 l 4
 167.775390625 352 159 350.19140625 159 345 c 4
 159 328.779296875 216.893554688 172.850585938 247.778320312 97.1318359375 c 4
 255.71484375 77.65234375 261.3515625 65.1201171875 263.931640625 60.6171875 c 5
 267.25390625 66.9091796875 271.747070312 78.4404296875 278.171875 97.001953125 c 4
 306.067382812 175.70703125 360 336.735351562 360 348 c 4
 360 351.059570312 356.7578125 352 332 352 c 4
 309 352 l 4
 295.478515625 352 293 358.361328125 293 368 c 4
 293 377.577148438 295.344726562 385 310 385 c 4
 329.1875 385 354.178710938 383 374 383 c 4
 395.822265625 383 413.73828125 385 429 385 c 4
 440.293945312 385 445 380.047851562 445 368 c 4
 445 358.234375 441.625976562 352 430 352 c 6
 416 352 l 4
 408.73046875 352 408.6328125 352.41015625 405.833007812 344.012695312 c 5
 389.747070312 299.775390625 280.837890625 22.017578125 272.771484375 1.8515625 c 5
 269.916015625 -4.8115234375 251.831054688 -59.994140625 232.829101562 -114.998046875 c 4
 214.896484375 -165.807617188 211.452148438 -182.73828125 168.341796875 -235.875 c 5
 153.555664062 -254.603515625 151.517578125 -259.599609375 126.297851562 -271.704101562 c 4
 101.1796875 -283.76171875 70.7900390625 -298 63 -298 c 4
 46.72265625 -298 42 -284.681640625 42 -275 c 4
 42 -261.690429688 51.505859375 -245.330078125 61.5302734375 -231.295898438 c 5
 68.1826171875 -221.317382812 81.779296875 -215.244140625 90.986328125 -212.17578125 c 4
EndSplineSet
Fore
SplineSet
91 -212 m 0
 118 -202 168 -190 179 -163 c 0
 196 -121 223 -53 223 -43 c 0
 223 -28 108 239 67 339 c 0
 62 351 62 352 55 352 c 2
 35 352 l 2
 22 352 22 358 22 368 c 0
 22 377 23 385 35 385 c 0
 51 385 83 383 112 383 c 0
 150 383 185 385 200 385 c 0
 214 385 216 379 216 368 c 0
 216 358 213 352 201 352 c 2
 182 352 l 2
 168 352 159 350 159 345 c 0
 159 329 217 173 248 97 c 0
 256 79 261 65 264 65 c 0
 266 65 271 78 278 97 c 0
 302 167 348 300 358 338 c 0
 359 342 359 344 359 346 c 0
 359 351 355 352 341 352 c 2
 306 352 l 2
 293 352 293 358 293 368 c 0
 293 378 294 385 307 385 c 0
 315 385 354 383 374 383 c 0
 396 383 423 385 432 385 c 0
 443 385 445 380 445 368 c 0
 445 358 445 352 433 352 c 2
 418 352 l 2
 412 352 409 352 406 344 c 0
 390 300 281 22 273 2 c 0
 270 -5 252 -60 233 -115 c 0
 215 -166 211 -183 168 -236 c 0
 153 -255 151 -260 126 -272 c 0
 101 -284 71 -298 63 -298 c 0
 47 -298 42 -285 42 -275 c 0
 42 -264 52 -245 62 -231 c 0
 69 -221 82 -215 91 -212 c 0
EndSplineSet
AlternateSubs2: "'aalt' Access All Alternates lookup 0 subtable" y.sc y.sub y.sup y.denom y.numer
AlternateSubs2: "'aalt' Access All Alternates in Latin lookup 0 subtable" y.sc y.sub y.sup y.denom y.numer
Substitution2: "'smcp' Lowercase to Small Capitals in Latin lookup 11 subtable" y.sc
Substitution2: "'subs' Subscript in Latin lookup 8 subtable" y.sub
Substitution2: "'sups' Superscript in Latin lookup 7 subtable" y.sup
Substitution2: "denominators subtable" y.denom
Substitution2: "numerators subtable" y.numer
EndChar

StartChar: A
Encoding: 65 65 26
Width: 698
VWidth: 0
Flags: W
HStem: -6 36<27.0062 84.8834 133.001 222.999 449.015 521.999 626.044 680.993> 272 30<234.307 434.999>
DStem2: 219 359 239 319 0.376131 0.926567<-198.804 -73.406 -44.3032 243.41> 395 681 349 559 0.335451 -0.942058<86.5355 366.6 397.273 611.904>
AnchorPoint: "top" 371 780 basechar 0
AnchorPoint: "l;bl" 0 10 basechar 0
AnchorPoint: "l;x" 70 380 basechar 0
AnchorPoint: "l;o" 40 200 basechar 0
AnchorPoint: "r;bl" 698 10 basechar 0
AnchorPoint: "r;x" 638 380 basechar 0
AnchorPoint: "r;o" 668 200 basechar 0
AnchorPoint: "l;hi" 130 650 basechar 0
AnchorPoint: "r;hi" 598 650 basechar 0
LayerCount: 3
Back
SplineSet
394.875 680.869140625 m 6
 514.823242188 344.015625 l 4
 554.576171875 233.481445312 622.66796875 41.1240234375 635.4921875 30 c 5
 667 30 l 4
 679.189453125 30 681 26.33203125 681 14 c 4
 681 -1.0947265625 678.745117188 -6 667 -6 c 4
 651.758789062 -6 606.86328125 -3 577 -3 c 4
 547.137695312 -3 489.163085938 -6 466 -6 c 4
 451.794921875 -6 449 -2.42578125 449 15 c 4
 449 28.7109375 454.078125 30 470 30 c 4
 522 30 l 5
 522 52.474609375 472.10546875 199.186523438 452.1640625 255.021484375 c 5
 446.07421875 273.290039062 448.97265625 272 435 272 c 4
 234 272 l 4
 216.278320312 272 218.947265625 269.305664062 213.791015625 255.900390625 c 4
 187.860351562 190.076171875 133 50.25390625 133 30 c 4
 209 30 l 4
 221.189453125 30 223 26.33203125 223 14 c 4
 223 -1.0947265625 220.745117188 -6 209 -6 c 4
 185.7890625 -6 146.833984375 -3 117 -3 c 4
 87.21484375 -3 67.29296875 -6 44 -6 c 4
 29.794921875 -6 27 -2.42578125 27 15 c 4
 27 28.7109375 32.078125 30 48 30 c 4
 75.244140625 30 l 5
 91.4150390625 47.169921875 205.775390625 328.399414062 219.245117188 359.1875 c 4
 325.229492188 605.150390625 l 5
 333.69921875 626.327148438 350.588867188 635.033203125 361.231445312 661.157226562 c 5
 366.959960938 674.522460938 373.813476562 690 383 690 c 4
 389.423828125 690 393.598632812 685.974609375 394.875 680.869140625 c 6
247 302 m 6
 426 302 l 4
 436.424804688 302 436 304 436 304 c 4
 436 305.76953125 434.220703125 309.8515625 432.161132812 316.030273438 c 4
 349.146484375 559.07421875 l 5
 346.717773438 566.965820312 344.651367188 572.90234375 343.87109375 574.659179688 c 5
 341.64453125 570.637695312 339.83984375 566.216796875 336.77734375 558.866210938 c 4
 238.767578125 318.841796875 l 5
 235.751953125 311.806640625 234 306.875 234 305 c 4
 234 304.234375 234.3984375 302 247 302 c 6
EndSplineSet
Fore
SplineSet
395 681 m 2
 515 344 l 2
 555 233 628 30 635 30 c 2
 670 30 l 2
 680 30 681 26 681 14 c 0
 681 -1 680 -6 670 -6 c 0
 655 -6 607 -3 577 -3 c 0
 547 -3 485 -6 462 -6 c 0
 450 -6 449 -2 449 15 c 0
 449 29 450 30 466 30 c 2
 521 30 l 1
 521 30 522 30 522 31 c 0
 522 51 471 202 452 255 c 0
 447 271 447 272 437 272 c 2
 235 272 l 2
 220 272 219 269 214 256 c 0
 189 193 134 52 133 31 c 0
 133 30 134 30 134 30 c 1
 211 30 l 2
 223 30 223 26 223 14 c 0
 223 -1 223 -6 211 -6 c 0
 200 -6 161 -3 117 -3 c 0
 76 -3 53 -6 41 -6 c 0
 27 -6 27 -2 27 15 c 0
 27 29 29 30 45 30 c 2
 75 30 l 2
 84 30 206 328 219 359 c 2
 325 605 l 2
 333 626 350 635 361 661 c 0
 367 674 374 690 383 690 c 0
 389 690 394 686 395 681 c 2
247 302 m 2
 426 302 l 2
 433 302 435 303 435 306 c 0
 435 308 434 311 432 316 c 2
 349 559 l 2
 346 569 345 571 344 571 c 0
 342 571 340 567 337 559 c 2
 239 319 l 2
 236 312 234 307 234 305 c 0
 234 304 234 302 247 302 c 2
EndSplineSet
AlternateSubs2: "'aalt' Access All Alternates lookup 0 subtable" A.c2
AlternateSubs2: "'aalt' Access All Alternates in Latin lookup 0 subtable" A.c2
Position2: "'cpsp' Capital Spacing in Latin lookup 2 subtable" dx=4 dy=0 dh=8 dv=0
Substitution2: "'c2sc' Capitals to Small Capitals in Latin lookup 12 subtable" A.c2
EndChar

StartChar: B
Encoding: 66 66 27
Width: 592
VWidth: 0
Flags: W
HStem: -5 35<48.0336 123.578 216.538 375.892> 323 28<212 374.385> 631 34<37.0176 118.583> 641 27<216 334.573>
VStem: 124 88<62.1839 323 351 630.562> 431 90<434.218 569.623> 456 94<93.0692 253.903>
AnchorPoint: "top" 291 780 basechar 0
AnchorPoint: "l;bl" 0 10 basechar 0
AnchorPoint: "l;x" 0 380 basechar 0
AnchorPoint: "l;hi" 0 650 basechar 0
AnchorPoint: "l;o" 0 200 basechar 0
AnchorPoint: "r;bl" 567 10 basechar 0
AnchorPoint: "r;x" 587 380 basechar 0
AnchorPoint: "r;hi" 567 650 basechar 0
AnchorPoint: "r;o" 592 200 basechar 0
LayerCount: 3
Back
SplineSet
282 351 m 6xdc
 299.091796875 351 309.290039062 350 315 350 c 4
 320.702148438 350 328.456054688 350.981445312 334.088867188 352.858398438 c 5
 379.276367188 366.611328125 431 405.529296875 431 488 c 4
 431 585.053710938 357.866210938 641 257 641 c 4
 241.575195312 641 228.404296875 640.6875 216.227539062 637.504882812 c 5
 212.9765625 619.954101562 212 480.72265625 212 406 c 4
 212 358 l 4
 212 351.791015625 211.282226562 351 225 351 c 4
 282 351 l 6xdc
279 30 m 6
 422.51171875 30 456 102.31640625 456 176 c 4xca
 456 246.315429688 433.578125 292.637695312 371.08203125 313.143554688 c 4
 343.833984375 321.90234375 297.943359375 323 254 323 c 4
 220 323 l 4
 211.884765625 323 212 320.4375 212 315 c 4
 212 256.344726562 212.85546875 49.4765625 219.418945312 30 c 5
 279 30 l 6
171 -3 m 4
 141.100585938 -3 74.2080078125 -6 65 -6 c 4
 50.794921875 -6 48 -2.42578125 48 15 c 4
 48 28.7109375 53.078125 30 69 30 c 4
 121.631835938 30 l 5
 123.4921875 33.0263671875 124 47.5126953125 124 69 c 4
 124 392 l 4
 124 505.791015625 120.783203125 616.782226562 115.711914062 630.953125 c 5
 60.052734375 629 l 5
 47.5927734375 629 37 631.921875 37 649 c 4
 37 666.2421875 47.1669921875 667 60 667 c 4
 76.1201171875 667 143.072265625 665 173 665 c 4xea
 211.8515625 665 254.858398438 668 296 668 c 4
 416.333984375 668 521 627.532226562 521 504 c 4xdc
 521 404.526367188 412.749023438 361.080078125 369.0703125 345.197265625 c 5
 365.883789062 343.922851562 360.290039062 341.853515625 360.116210938 341.7890625 c 5
 398.1640625 336.180664062 550 320.002929688 550 169 c 4
 550 11.77734375 378.467773438 -5 267 -5 c 4
 220.943359375 -5 183.80078125 -3 171 -3 c 4
EndSplineSet
Fore
SplineSet
282 351 m 2xdc
 299 351 309 350 315 350 c 0
 321 350 328 351 334 353 c 0
 379 367 431 406 431 488 c 0
 431 585 358 641 257 641 c 0
 242 641 220 639 216 637 c 0
 213 635 212 481 212 406 c 2
 212 358 l 2
 212 352 212 351 225 351 c 2
 282 351 l 2xdc
279 30 m 2
 423 30 456 102 456 176 c 0xca
 456 246 433 292 371 313 c 0
 344 322 298 323 254 323 c 2
 220 323 l 2
 212 323 212 320 212 315 c 0
 212 256 213 30 219 30 c 2
 279 30 l 2
171 -3 m 0
 141 -3 73 -6 64 -6 c 0
 50 -6 48 -2 48 15 c 0
 48 29 53 30 69 30 c 2
 121 30 l 2
 123 30 124 48 124 69 c 2
 124 392 l 2
 124 506 120 631 116 631 c 2
 55 629 l 2
 43 629 37 632 37 649 c 0
 37 666 42 667 55 667 c 0
 71 667 143 665 173 665 c 0xea
 212 665 255 668 296 668 c 0
 416 668 521 628 521 504 c 0xdc
 521 407 418 363 372 346 c 0
 367 344 364 343 364 342 c 0
 364 341 365 341 371 340 c 0
 420 333 550 309 550 169 c 0
 550 12 378 -5 267 -5 c 0
 221 -5 184 -3 171 -3 c 0
EndSplineSet
AlternateSubs2: "'aalt' Access All Alternates lookup 0 subtable" B.c2
AlternateSubs2: "'aalt' Access All Alternates in Latin lookup 0 subtable" B.c2
Position2: "'cpsp' Capital Spacing in Latin lookup 2 subtable" dx=4 dy=0 dh=8 dv=0
Substitution2: "'c2sc' Capitals to Small Capitals in Latin lookup 12 subtable" B.c2
EndChar

StartChar: C
Encoding: 67 67 28
Width: 731
VWidth: 0
Flags: W
HStem: -19 45<325.464 526.57> 426 21G<631.5 648> 647 36<312.041 486.375>
VStem: 42 108<217.725 460.093> 623 41<426.02 555.933 611 653.973>
AnchorPoint: "cedilla" 396 -100 basechar 0
AnchorPoint: "top" 395 780 basechar 0
AnchorPoint: "l;x" 0 380 basechar 0
AnchorPoint: "l;o" 0 200 basechar 0
AnchorPoint: "r;bl" 731 10 basechar 0
AnchorPoint: "r;x" 731 380 basechar 0
AnchorPoint: "r;hi" 731 650 basechar 0
AnchorPoint: "r;o" 731 200 basechar 0
AnchorPoint: "l;bl" 20 10 basechar 0
AnchorPoint: "l;hi" 20 650 basechar 0
LayerCount: 3
Back
SplineSet
42 335 m 4
 42 545.735351562 198.567382812 683 402 683 c 4
 520.984375 683 590.865234375 624.356445312 610.720703125 610.458007812 c 4
 610.782226562 610.4140625 l 5
 610.841796875 610.368164062 l 4
 616.727539062 605.790039062 621.103515625 603.35546875 621.709960938 603.446289062 c 5
 621.846679688 603.556640625 623 605.408203125 623 611 c 4
 623 638 l 4
 623 649.756835938 625.103515625 654 641 654 c 4
 655.904296875 654 664 652.198242188 664 638 c 4
 664 619.850585938 660 495.924804688 660 445 c 4
 660 431.95703125 655.278320312 426 641 426 c 4
 622.494140625 426 619 430.545898438 619 441 c 4
 619 445.255859375 623 522.197265625 623 531 c 4
 623 541.626953125 527.23828125 647 395 647 c 4
 252.232421875 647 150 513.038085938 150 333 c 4
 150 165.353515625 271.96484375 26 424 26 c 4
 536.051757812 26 613.83984375 82.9072265625 616.013671875 91.2880859375 c 5
 629.024414062 204.383789062 l 5
 631.239257812 219.884765625 637.772460938 223.051757812 654.334960938 220.981445312 c 5
 665.8125 219.833984375 669 212.861328125 669 205 c 4
 669 194.481445312 664.977539062 161.634765625 652.977539062 71.6357421875 c 5
 650.557617188 49.8505859375 522.876953125 -19 396 -19 c 4
 210.73828125 -19 42 92.1962890625 42 335 c 4
EndSplineSet
Fore
SplineSet
42 335 m 0
 42 546 199 683 402 683 c 0
 521 683 591 624 611 610 c 0
 620 603 623 603 623 611 c 2
 623 638 l 2
 623 650 625 654 641 654 c 0
 656 654 664 652 664 638 c 0
 664 620 660 491 660 440 c 0
 660 427 655 426 641 426 c 0
 622 426 619 429 619 439 c 0
 619 443 623 522 623 531 c 0
 623 542 527 647 395 647 c 0
 252 647 150 513 150 333 c 0
 150 165 272 26 424 26 c 0
 536 26 615 82 616 91 c 2
 629 207 l 2
 631 219 635 222 643 222 c 0
 646 222 650 221 654 221 c 0
 666 220 669 217 669 210 c 0
 669 207 665 165 653 72 c 0
 650 50 523 -19 396 -19 c 0
 211 -19 42 92 42 335 c 0
EndSplineSet
AlternateSubs2: "'aalt' Access All Alternates lookup 0 subtable" C.c2
AlternateSubs2: "'aalt' Access All Alternates in Latin lookup 0 subtable" C.c2
Position2: "'cpsp' Capital Spacing in Latin lookup 2 subtable" dx=4 dy=0 dh=8 dv=0
Substitution2: "'c2sc' Capitals to Small Capitals in Latin lookup 12 subtable" C.c2
EndChar

StartChar: D
Encoding: 68 68 29
Width: 758
VWidth: 0
Flags: W
HStem: -7 35<32.0051 117.961 216.15 416.55> 636 34<43.0146 126.407> 638 31<57.2086 127.547 220.666 309.816> 649 32<222.842 403.856>
VStem: 128 88<310.096 637.09> 609 107<209.258 455.063>
AnchorPoint: "top" 342 780 basechar 0
AnchorPoint: "l;bl" 0 10 basechar 0
AnchorPoint: "l;x" 0 380 basechar 0
AnchorPoint: "l;hi" 0 650 basechar 0
AnchorPoint: "l;o" 0 200 basechar 0
AnchorPoint: "r;x" 758 380 basechar 0
AnchorPoint: "r;o" 748 200 basechar 0
AnchorPoint: "r;bl" 718 10 basechar 0
AnchorPoint: "r;hi" 718 650 basechar 0
LayerCount: 3
Back
SplineSet
332 681 m 4xac
 549.208007812 681 716 550.916015625 716 335 c 4
 716 114.142578125 548.325195312 -4.9853515625 368.016601562 -7 c 5
 302.854492188 -7 237.888671875 -3 173 -3 c 4
 145.125 -3 57.2109375 -7 46 -7 c 4
 33.4638671875 -7 32 -2.1416015625 32 10 c 4
 32 26.6123046875 38.7685546875 28 52 28 c 4
 115.911132812 28 l 5xb4
 121.5703125 60.224609375 128 405.21875 128 563 c 4
 128 601.954101562 127.206054688 630.544921875 126.53515625 637.928710938 c 5
 59.04296875 636 l 5
 49.7294921875 636 43 637.270507812 43 651 c 4
 43 663.077148438 44.19140625 670 59 670 c 4xcc
 63.162109375 670 94.015625 669 128 669 c 4
 201.75 669 291.569335938 681 332 681 c 4xac
217.337890625 28.1494140625 m 5
 225.515625 25.1181640625 253.298828125 25 272 25 c 4
 605.577148438 25 609 261.145507812 609 348 c 4
 609 488.5859375 494.069335938 649 311 649 c 4
 285.57421875 649 244.409179688 648.575195312 223.021484375 643.416992188 c 5
 219.732421875 630.522460938 217 541.374023438 217 499.982421875 c 4xac
 216.204101562 361.880859375 215.83984375 224.471679688 215.83984375 85.9755859375 c 4
 215.83984375 57.51953125 216.387695312 33.1640625 217.337890625 28.1494140625 c 5
EndSplineSet
Fore
SplineSet
216 86 m 0x9c
 216 58 216 29 217 28 c 0
 224 25 253 25 272 25 c 0
 606 25 609 261 609 348 c 0
 609 489 494 649 311 649 c 0
 286 649 244 648 223 643 c 0
 220 642 217 541 217 500 c 0
 216 363 216 224 216 86 c 0x9c
128 563 m 0
 128 600 128 638 126 638 c 2xac
 57 636 l 2
 48 636 43 637 43 651 c 0
 43 663 44 670 57 670 c 0xcc
 61 670 94 669 128 669 c 0xac
 202 669 292 681 332 681 c 0
 549 681 716 551 716 335 c 0
 716 109 545 -7 358 -7 c 0
 297 -7 234 -3 173 -3 c 0
 145 -3 57 -7 46 -7 c 0
 33 -7 32 -2 32 10 c 0
 32 27 39 28 52 28 c 2
 116 28 l 2
 122 28 128 478 128 563 c 0
EndSplineSet
AlternateSubs2: "'aalt' Access All Alternates lookup 0 subtable" D.c2
AlternateSubs2: "'aalt' Access All Alternates in Latin lookup 0 subtable" D.c2
Position2: "'cpsp' Capital Spacing in Latin lookup 2 subtable" dx=4 dy=0 dh=8 dv=0
Substitution2: "'c2sc' Capitals to Small Capitals in Latin lookup 12 subtable" D.c2
EndChar

StartChar: E
Encoding: 69 69 30
Width: 605
VWidth: 0
Flags: W
HStem: -6 36<37.0272 120.75> -3 40<214.985 532.646> 322 33<207.003 435> 633 35<45.0037 112.479 207.376 412.154>
VStem: 122 85<61.0938 322 355 632.484> 435 37<247.013 319.931 357 429.987> 478 34<536.014 629.964 668.305 692.988> 536 37<39.9479 157.998>
AnchorPoint: "top" 316 780 basechar 0
AnchorPoint: "l;bl" 0 10 basechar 0
AnchorPoint: "l;x" 0 380 basechar 0
AnchorPoint: "l;hi" 0 650 basechar 0
AnchorPoint: "l;o" 0 200 basechar 0
AnchorPoint: "r;bl" 605 10 basechar 0
AnchorPoint: "r;x" 605 380 basechar 0
AnchorPoint: "r;hi" 605 650 basechar 0
AnchorPoint: "r;o" 605 200 basechar 0
LayerCount: 3
Back
SplineSet
480.024414062 678.396484375 m 4xbf
 481.158203125 689.736328125 487.086914062 693 496 693 c 4
 510.020507812 693 516 690.95703125 516 679 c 4
 516 659.646484375 512 626.942382812 512 549 c 4
 512 539.208984375 507.282226562 536 493 536 c 4
 479.775390625 536 475 541.80078125 475 553 c 4
 475 557.82421875 477.611328125 617.015625 477.958007812 628.911132812 c 5
 456.967773438 632.3203125 310.177734375 634.98046875 209.940429688 635 c 5
 206.279296875 627.254882812 205 579.481445312 205 510 c 4
 205 467.026367188 205.999023438 418.099609375 207 368.030273438 c 4
 207 354.971679688 205.763671875 355 216 355 c 6
 383 355 l 6
 402.888671875 355 435 356.41015625 435 368 c 6
 435 418 l 6
 435 427.370117188 447.2421875 430 455 430 c 4
 462.043945312 430 472 427.147460938 472 419 c 4
 472 409.745117188 470 376.950195312 470 341 c 4
 470 305.079101562 472 271.208984375 472 258 c 4
 472 250.11328125 463.254882812 247 456 247 c 4
 448.391601562 247 435 249.458984375 435 259 c 6
 435 305 l 6
 435 312.774414062 437.053710938 322 383 322 c 6
 220 322 l 6
 204.569335938 322 207 324.208984375 207 310.03125 c 4
 209.778320312 177.603515625 213.065429688 52.822265625 217.588867188 37 c 5x7f
 317.119140625 37.0400390625 512.68359375 40 517 40 c 4
 532.002929688 40 531.041992188 37.609375 533.009765625 60.2392578125 c 4
 534.995117188 85.0537109375 535.000976562 108.088867188 536 147.038085938 c 4
 536 155.922851562 545.147460938 158 553 158 c 4
 561.592773438 158 573 156.212890625 573 146 c 4
 573 95.90234375 570 37.8447265625 570 8 c 4
 570 -4.4873046875 554.323242188 -6 545 -6 c 4xbf
 521.95703125 -6 204.9609375 -3 175 -3 c 4x7f
 145.122070312 -3 76.1484375 -6 53 -6 c 4
 38.6259765625 -6 37 -2.11328125 37 15 c 4
 37 28.423828125 40.92578125 30 57 30 c 6
 117.817382812 30 l 5
 120.340820312 32.7890625 122 53.6513671875 122 102 c 6
 122 198 l 6
 122 308.9765625 118 485.866210938 118 492 c 4
 118 558.1171875 113.708984375 624.33984375 109.111328125 633 c 5
 67 633 l 6
 55.0986328125 633 45 633.806640625 45 651 c 4
 45 664.217773438 50.845703125 668 60 668 c 4
 67.2333984375 668 132.079101562 665 167 665 c 4
 219.939453125 665 372.9296875 668 416 668 c 4
 484.0703125 668 478.4140625 668.731445312 480.024414062 678.396484375 c 4xbf
EndSplineSet
Fore
SplineSet
175 -3 m 0x7f
 145 -3 76 -6 53 -6 c 0
 39 -6 37 -2 37 15 c 0
 37 28 41 30 57 30 c 2
 118 30 l 2xbf
 120 30 122 54 122 102 c 2
 122 198 l 2
 122 309 118 486 118 492 c 0
 118 558 113 633 109 633 c 2
 62 633 l 2
 50 633 45 634 45 651 c 0
 45 664 49 668 58 668 c 0
 65 668 132 665 167 665 c 0
 222 665 375 668 419 668 c 0
 484 668 479 668 480 678 c 0
 482 689 482 693 496 693 c 0
 510 693 516 692 516 679 c 0
 516 660 512 625 512 547 c 0
 512 537 507 536 493 536 c 0
 480 536 475 540 475 551 c 0
 475 555 478 615 478 628 c 0
 478 632 299 635 211 635 c 0
 205 635 205 534 205 510 c 0
 205 467 206 418 207 368 c 0
 207 355 208 355 216 355 c 2
 383 355 l 2
 403 355 435 356 435 368 c 2
 435 420 l 2
 435 429 447 430 455 430 c 0
 462 430 472 429 472 421 c 0
 472 412 470 377 470 341 c 0
 470 305 472 269 472 256 c 0
 472 248 463 247 456 247 c 0
 448 247 435 247 435 257 c 2
 435 307 l 2
 435 314 433 322 383 322 c 2
 220 322 l 2
 210 322 207 324 207 310 c 0
 210 178 213 37 218 37 c 0x7f
 325 37 513 40 524 40 c 0
 531 40 531 42 533 60 c 0
 535 85 535 110 536 149 c 0
 536 158 545 158 553 158 c 0
 562 158 573 158 573 148 c 0
 573 98 570 38 570 8 c 0
 570 -4 559 -6 550 -6 c 0xbf
 527 -6 205 -3 175 -3 c 0x7f
EndSplineSet
AlternateSubs2: "'aalt' Access All Alternates lookup 0 subtable" E.c2
AlternateSubs2: "'aalt' Access All Alternates in Latin lookup 0 subtable" E.c2
Position2: "'cpsp' Capital Spacing in Latin lookup 2 subtable" dx=4 dy=0 dh=8 dv=0
Substitution2: "'c2sc' Capitals to Small Capitals in Latin lookup 12 subtable" E.c2
EndChar

StartChar: F
Encoding: 70 70 31
Width: 550
VWidth: 0
Flags: W
HStem: -3 33<46.0037 112.853 203.218 299.999> 322 33<199.01 437> 633 35<37.0058 104.479 199.14 479.887>
VStem: 114 85<54.5469 322 355 632.404> 437 37<237.012 320.132 357 429.999> 477 37<536.003 629 668.222 692.98>
AnchorPoint: "top" 308 780 basechar 0
AnchorPoint: "l;bl" 0 10 basechar 0
AnchorPoint: "l;x" 0 380 basechar 0
AnchorPoint: "l;hi" 0 650 basechar 0
AnchorPoint: "l;o" 0 200 basechar 0
AnchorPoint: "r;x" 550 380 basechar 0
AnchorPoint: "r;hi" 550 650 basechar 0
AnchorPoint: "r;o" 530 200 basechar 0
LayerCount: 3
Back
SplineSet
482.024414062 678.396484375 m 4xf6
 483.158203125 689.736328125 489.086914062 693 498 693 c 4
 512.020507812 693 518 690.95703125 518 679 c 4
 518 659.646484375 514 626.942382812 514 549 c 4
 514 539.208984375 509.282226562 536 495 536 c 4
 481.775390625 536 477 541.80078125 477 553 c 4
 477 557.814453125 479.612304688 617.038085938 479.95703125 628.884765625 c 5
 458.486328125 632.293945312 302.391601562 634.98046875 201.986328125 635 c 5
 198.110351562 625.956054688 197 577.223632812 197 524 c 4
 197 461.01171875 197.999023438 391.083984375 199 368.065429688 c 5
 199 352.612304688 196.666992188 355 212 355 c 4
 385 355 l 4
 404.888671875 355 437 356.41015625 437 368 c 4
 437 418 l 4
 437 427.370117188 449.2421875 430 457 430 c 4
 464.043945312 430 474 427.147460938 474 419 c 4
 474 409.745117188 472 376.950195312 472 341 c 4
 472 305.073242188 474 261.17578125 474 248 c 4
 474 240.11328125 465.254882812 237 458 237 c 4
 450.391601562 237 437 239.458984375 437 249 c 4
 437 305 l 4
 437 312.774414062 439.053710938 322 385 322 c 4
 212 322 l 4
 198.321289062 322 199 322.575195312 199 305.032226562 c 5xee
 201.779296875 174.399414062 200.764648438 46.0029296875 204.685546875 30 c 5
 286 30 l 4
 298.189453125 30 300 26.33203125 300 14 c 4
 300 -1.0947265625 297.745117188 -6 286 -6 c 4
 262.841796875 -6 195.884765625 -3 166 -3 c 4
 136.146484375 -3 86.1826171875 -6 63 -6 c 4
 48.794921875 -6 46 -2.42578125 46 15 c 4
 46 28.7109375 51.078125 30 67 30 c 4
 109.817382812 30 l 5
 112.340820312 32.7890625 114 53.6513671875 114 102 c 4
 114 198 l 4
 114 308.9765625 110 485.866210938 110 492 c 4
 110 558.1171875 105.708984375 624.33984375 101.111328125 633 c 5
 59 633 l 4
 47.0986328125 633 37 633.806640625 37 651 c 4
 37 664.217773438 42.845703125 668 52 668 c 4
 59.2333984375 668 124.079101562 665 159 665 c 4
 211.94140625 665 374.93359375 668 418 668 c 4
 486.0703125 668 480.4140625 668.731445312 482.024414062 678.396484375 c 4xf6
EndSplineSet
Fore
SplineSet
482 678 m 0
 484 693 489 693 498 693 c 0
 512 693 518 691 518 679 c 0
 518 660 514 625 514 547 c 0
 514 537 509 536 495 536 c 0
 482 536 477 540 477 551 c 0
 477 556 480 617 480 629 c 1
 459 632 303 635 203 635 c 0
 198 635 197 577 197 524 c 0
 197 461 198 391 199 368 c 0
 199 353 197 355 212 355 c 2
 385 355 l 2
 405 355 437 356 437 368 c 2
 437 421 l 2
 437 430 445 430 457 430 c 0
 466 430 474 430 474 422 c 0
 474 413 472 377 472 341 c 0
 472 305 474 258 474 245 c 0
 474 237 465 237 458 237 c 0
 450 237 437 237 437 246 c 2
 437 307 l 2
 437 315 435 322 385 322 c 2
 212 322 l 2
 198 322 199 323 199 305 c 0
 202 174 201 30 205 30 c 2
 286 30 l 2
 298 30 300 26 300 14 c 0
 300 -1 298 -6 286 -6 c 0
 263 -6 196 -3 166 -3 c 0
 136 -3 76 -6 61 -6 c 0
 47 -6 46 -2 46 15 c 0
 46 29 51 30 67 30 c 2
 109 30 l 2
 113 30 114 54 114 102 c 2
 114 198 l 2
 114 309 110 486 110 492 c 0
 110 558 105 633 101 633 c 2
 57 633 l 2
 45 633 37 634 37 651 c 0
 37 664 41 668 50 668 c 0
 57 668 124 665 159 665 c 0
 212 665 375 668 418 668 c 0
 486 668 481 668 482 678 c 0
EndSplineSet
AlternateSubs2: "'aalt' Access All Alternates lookup 0 subtable" F.c2
AlternateSubs2: "'aalt' Access All Alternates in Latin lookup 0 subtable" F.c2
Position2: "'cpsp' Capital Spacing in Latin lookup 2 subtable" dx=4 dy=0 dh=8 dv=0
Substitution2: "'c2sc' Capitals to Small Capitals in Latin lookup 12 subtable" F.c2
EndChar

StartChar: G
Encoding: 71 71 32
Width: 764
VWidth: 0
Flags: W
HStem: -21 36<334.418 520.594> 217 36<482.025 585.001 676.16 726.993> 642 20G<633 648.5> 647 33<323.278 495.91>
VStem: 42 108<211.06 458.106> 587 87<51.071 217> 623 40<446.026 566.233 621 661.973>
AnchorPoint: "cedilla" 416 -100 basechar 0
AnchorPoint: "top" 404 780 basechar 0
AnchorPoint: "l;x" 0 380 basechar 0
AnchorPoint: "l;o" 0 200 basechar 0
AnchorPoint: "r;bl" 744 10 basechar 0
AnchorPoint: "r;x" 744 380 basechar 0
AnchorPoint: "r;hi" 744 650 basechar 0
AnchorPoint: "r;o" 764 200 basechar 0
AnchorPoint: "l;bl" 20 10 basechar 0
AnchorPoint: "l;hi" 20 650 basechar 0
LayerCount: 3
Back
SplineSet
674 73 m 4xdc
 674 50.587890625 531.427734375 -21 396 -21 c 4
 210.763671875 -21 42 86.2021484375 42 335 c 4
 42 557.84375 204.748046875 680 408 680 c 4xdc
 519.830078125 680 590.458984375 634.640625 610.720703125 620.458007812 c 4
 610.782226562 620.4140625 l 5
 610.841796875 620.368164062 l 4
 616.727539062 615.790039062 621.103515625 613.35546875 621.709960938 613.446289062 c 5
 621.846679688 613.556640625 623 615.408203125 623 621 c 4
 623 646 l 4
 623 657.756835938 625.103515625 662 641 662 c 4
 656.041015625 662 663 659.973632812 663 646 c 4
 663 631.875 660 515.944335938 660 465 c 4
 660 451.95703125 655.278320312 446 641 446 c 4
 622.494140625 446 619 450.545898438 619 461 c 4
 619 465.349609375 623 532.130859375 623 541 c 4xea
 623 551.637695312 539.349609375 647 404 647 c 4
 261.138671875 647 150 512.897460938 150 333 c 4
 150 165.176757812 264.11328125 15 424 15 c 4
 536.990234375 15 583.318359375 60.6416015625 584.015625 68.3115234375 c 5
 585.987304688 85.06640625 587 127.0625 587 162 c 4
 587 195.111328125 583.256835938 217 580 217 c 4
 493 217 l 4
 484.400390625 217 482 224.806640625 482 232 c 4
 482 240.44921875 483.58203125 253 494.030273438 253 c 5
 543.1328125 251.998046875 594.088867188 250 626 250 c 4
 657.840820312 250 668.784179688 251.99609375 715.967773438 253 c 5
 725.98046875 253 727 243.577148438 727 236 c 4
 727 228.744140625 726.376953125 217 716 217 c 4
 685 217 l 4
 676.288085938 217 675 199.018554688 675 162 c 4
 675 136.923828125 674 105.942382812 674 73 c 4xdc
EndSplineSet
Fore
SplineSet
674 73 m 0xdc
 674 51 531 -21 396 -21 c 0
 211 -21 42 86 42 335 c 0
 42 558 205 680 408 680 c 0xdc
 520 680 591 634 611 620 c 0
 620 613 623 615 623 621 c 2
 623 646 l 2
 623 658 625 662 641 662 c 0
 656 662 663 660 663 646 c 0
 663 632 660 512 660 461 c 0
 660 448 655 446 641 446 c 0
 622 446 619 449 619 459 c 0
 619 463 623 532 623 541 c 0xea
 623 552 539 647 404 647 c 0
 261 647 150 513 150 333 c 0
 150 165 264 15 424 15 c 0
 537 15 583 60 584 68 c 0
 586 85 587 127 587 162 c 0
 587 195 583 217 580 217 c 2
 493 217 l 2
 484 217 482 225 482 232 c 0
 482 240 482 253 492 253 c 0
 541 252 594 250 626 250 c 0
 674 250 700 253 716 253 c 0
 726 253 727 244 727 236 c 0
 727 229 726 217 716 217 c 2
 685 217 l 2
 676 217 675 199 675 162 c 0
 675 137 674 106 674 73 c 0xdc
EndSplineSet
AlternateSubs2: "'aalt' Access All Alternates lookup 0 subtable" G.c2
AlternateSubs2: "'aalt' Access All Alternates in Latin lookup 0 subtable" G.c2
Position2: "'cpsp' Capital Spacing in Latin lookup 2 subtable" dx=4 dy=0 dh=8 dv=0
Substitution2: "'c2sc' Capitals to Small Capitals in Latin lookup 12 subtable" G.c2
EndChar

StartChar: H
Encoding: 72 72 33
Width: 791
VWidth: 0
Flags: W
HStem: -6 36<37.0062 115.577 213.941 294.999 518.021 594.708 686.625 753.992> 328 30<208 597> 636 36<50.0058 116.215 209.068 285.979 515.004 592.286 685.431 749.979>
VStem: 119 89<60.3493 328 358 636> 597 87<147.196 328 358 636>
AnchorPoint: "top" 402 780 basechar 0
AnchorPoint: "l;bl" 0 10 basechar 0
AnchorPoint: "l;x" 0 380 basechar 0
AnchorPoint: "l;hi" 0 650 basechar 0
AnchorPoint: "l;o" 0 200 basechar 0
AnchorPoint: "r;bl" 791 10 basechar 0
AnchorPoint: "r;x" 791 380 basechar 0
AnchorPoint: "r;hi" 791 650 basechar 0
AnchorPoint: "r;o" 791 200 basechar 0
LayerCount: 3
Back
SplineSet
114.18359375 636 m 5xf4
 73 636 l 4
 61.220703125 636 50 636.625976562 50 654 c 4
 50 671.2421875 60.1669921875 672 73 672 c 4
 89.23828125 672 133.141601562 669 163 669 c 4
 192.857421875 669 245.82421875 672 269 672 c 4
 283.205078125 672 286 668.42578125 286 651 c 4
 286 637.2890625 280.921875 636 265 636 c 4
 212.131835938 636 l 5
 208.124023438 625.817382812 207 566.793945312 207 505 c 4
 207 455.034179688 208 403.055664062 208 373 c 4
 208 356.52734375 207.092773438 358 220 358 c 4
 585 358 l 4
 599.119140625 358 597 356.603515625 597 370 c 4
 597 492 l 4xf4
 597 557.778320312 593.721679688 626.083007812 589.059570312 636 c 5
 533 636 l 4
 520.5234375 636 515 637.71875 515 654 c 4
 515 670.0859375 519.459960938 672 533 672 c 4
 549.194335938 672 608.12109375 669 638 669 c 4
 667.889648438 669 722.758789062 672 733 672 c 4
 747.205078125 672 750 668.42578125 750 651 c 4
 750 637.2890625 744.921875 636 729 636 c 4
 685.717773438 636 l 5xf8
 684.817382812 617.26953125 684 513.771484375 684 397 c 4
 684 237.671875 685.010742188 53.5361328125 687.399414062 30 c 5
 740 30 l 4
 752.189453125 30 754 26.33203125 754 14 c 4
 754 -1.0947265625 751.745117188 -6 740 -6 c 4
 716.794921875 -6 675.837890625 -3 646 -3 c 4
 616.137695312 -3 558.163085938 -6 535 -6 c 4
 520.794921875 -6 518 -2.42578125 518 15 c 4
 518 28.7109375 523.078125 30 539 30 c 4
 592.495117188 30 l 5
 596.017578125 42.3203125 597 111.317382812 597 192 c 4
 597 316 l 4
 597 330.178710938 598.28125 328 591 328 c 4
 217 328 l 4
 207.375 328 208 329.706054688 208 314 c 4
 208 191.188476562 210.552734375 46.0302734375 217.134765625 30 c 5
 281 30 l 4
 293.189453125 30 295 26.33203125 295 14 c 4
 295 -1.0947265625 292.745117188 -6 281 -6 c 4
 257.830078125 -6 200.866210938 -3 171 -3 c 4
 141.133789062 -3 77.1474609375 -6 54 -6 c 4
 39.794921875 -6 37 -2.42578125 37 15 c 4
 37 28.7109375 42.078125 30 58 30 c 4
 113.334960938 30 l 5
 117.931640625 47.552734375 119 179.565429688 119 285 c 4
 119 387 l 4
 119 500.548828125 117.736328125 620.161132812 114.18359375 636 c 5xf4
EndSplineSet
Fore
SplineSet
114 636 m 2
 70 636 l 2
 58 636 50 637 50 654 c 0
 50 671 57 672 70 672 c 0
 86 672 121 669 163 669 c 0
 206 669 248 672 271 672 c 0
 285 672 286 668 286 651 c 0
 286 637 283 636 267 636 c 2
 212 636 l 2
 208 636 207 567 207 505 c 0
 207 455 208 403 208 373 c 0
 208 358 208 358 220 358 c 2
 585 358 l 2
 597 358 597 358 597 370 c 2
 597 492 l 2
 597 558 593 636 589 636 c 2
 532 636 l 2
 520 636 515 638 515 654 c 0
 515 670 517 672 531 672 c 0
 547 672 590 669 638 669 c 0
 680 669 725 672 735 672 c 0
 749 672 750 668 750 651 c 0
 750 637 747 636 731 636 c 2
 687 636 l 2
 684 636 684 514 684 397 c 0
 684 238 685 30 688 30 c 2
 741 30 l 2
 753 30 754 26 754 14 c 0
 754 -1 753 -6 741 -6 c 0
 718 -6 676 -3 646 -3 c 0
 616 -3 556 -6 533 -6 c 0
 519 -6 518 -2 518 15 c 0
 518 29 521 30 537 30 c 2
 592 30 l 2
 596 30 597 111 597 192 c 2
 597 316 l 2
 597 328 596 328 591 328 c 2
 217 328 l 2
 208 328 208 328 208 314 c 0
 208 191 211 30 217 30 c 2
 283 30 l 2
 295 30 295 26 295 14 c 0
 295 -1 295 -6 283 -6 c 0
 260 -6 201 -3 171 -3 c 0
 141 -3 74 -6 51 -6 c 0
 37 -6 37 -2 37 15 c 0
 37 29 39 30 55 30 c 2
 113 30 l 2
 118 30 119 180 119 285 c 2
 119 387 l 2
 119 501 118 636 114 636 c 2
EndSplineSet
AlternateSubs2: "'aalt' Access All Alternates lookup 0 subtable" H.c2
AlternateSubs2: "'aalt' Access All Alternates in Latin lookup 0 subtable" H.c2
Position2: "'cpsp' Capital Spacing in Latin lookup 2 subtable" dx=4 dy=0 dh=8 dv=0
Substitution2: "'c2sc' Capitals to Small Capitals in Latin lookup 12 subtable" H.c2
EndChar

StartChar: I
Encoding: 73 73 34
Width: 333
VWidth: 0
Flags: W
HStem: -3 33<27.0148 117.26 219.819 305.999> 636 36<31.0044 117.85 218.641 305.974>
VStem: 123 91<142.353 636>
AnchorPoint: "top" 168 780 basechar 0
AnchorPoint: "l;bl" 0 10 basechar 0
AnchorPoint: "l;x" 0 380 basechar 0
AnchorPoint: "l;hi" 0 650 basechar 0
AnchorPoint: "l;o" 0 200 basechar 0
AnchorPoint: "r;bl" 333 10 basechar 0
AnchorPoint: "r;x" 333 380 basechar 0
AnchorPoint: "r;hi" 333 650 basechar 0
AnchorPoint: "r;o" 333 200 basechar 0
LayerCount: 3
Back
SplineSet
115.059570312 636 m 5
 54 636 l 4
 42.220703125 636 31 636.625976562 31 654 c 4
 31 671.2421875 41.1669921875 672 54 672 c 4
 70.171875 672 144.096679688 669 174 669 c 4
 203.865234375 669 265.846679688 672 289 672 c 4
 303.205078125 672 306 668.42578125 306 651 c 4
 306 637.2890625 300.921875 636 285 636 c 4
 222.600585938 636 l 5
 215.674804688 625.65234375 214 533.201171875 214 481 c 4
 214 346 l 4
 214 218.126953125 215.62890625 48.1083984375 222.265625 30 c 5
 292 30 l 4
 304.189453125 30 306 26.33203125 306 14 c 4
 306 -1.0947265625 303.745117188 -6 292 -6 c 4
 268.841796875 -6 201.884765625 -3 172 -3 c 4
 142.116210938 -3 67.1396484375 -6 44 -6 c 4
 29.794921875 -6 27 -2.42578125 27 15 c 4
 27 28.7109375 32.078125 30 48 30 c 4
 114.580078125 30 l 5
 121.809570312 52.2138671875 123 263.1015625 123 394 c 4
 123 492 l 4
 123 557.778320312 119.721679688 626.083007812 115.059570312 636 c 5
EndSplineSet
Fore
SplineSet
115 636 m 2
 49 636 l 2
 37 636 31 637 31 654 c 0
 31 671 36 672 49 672 c 0
 65 672 116 669 174 669 c 0
 221 669 269 672 292 672 c 0
 304 672 306 668 306 651 c 0
 306 637 304 636 288 636 c 2
 223 636 l 2
 216 636 214 533 214 481 c 2
 214 346 l 2
 214 218 216 30 223 30 c 2
 292 30 l 2
 304 30 306 26 306 14 c 0
 306 -1 304 -6 292 -6 c 0
 276 -6 219 -3 172 -3 c 0
 121 -3 67 -6 44 -6 c 0
 30 -6 27 -2 27 15 c 0
 27 29 32 30 48 30 c 2
 114 30 l 2
 122 30 123 263 123 394 c 2
 123 492 l 2
 123 558 118 636 115 636 c 2
EndSplineSet
AlternateSubs2: "'aalt' Access All Alternates lookup 0 subtable" I.c2
AlternateSubs2: "'aalt' Access All Alternates in Latin lookup 0 subtable" I.c2
Position2: "'cpsp' Capital Spacing in Latin lookup 2 subtable" dx=4 dy=0 dh=8 dv=0
Substitution2: "'c2sc' Capitals to Small Capitals in Latin lookup 12 subtable" I.c2
EndChar

StartChar: J
Encoding: 74 74 35
Width: 333
VWidth: 0
Flags: W
HStem: -215 73<-0.822144 106> 636 36<31.0058 121.351 223.917 295.979>
VStem: 126 95<-36.1523 631.049>
AnchorPoint: "top" 167 780 basechar 0
AnchorPoint: "l;bl" 0 10 basechar 0
AnchorPoint: "l;x" 0 380 basechar 0
AnchorPoint: "l;hi" 0 650 basechar 0
AnchorPoint: "l;o" 0 200 basechar 0
AnchorPoint: "l;k;lo" -40 -260 basechar 0
AnchorPoint: "r;bl" 333 10 basechar 0
AnchorPoint: "r;x" 333 380 basechar 0
AnchorPoint: "r;hi" 333 650 basechar 0
AnchorPoint: "r;o" 333 200 basechar 0
LayerCount: 3
Back
SplineSet
126 -5 m 6
 126 492 l 4
 126 557.778320312 122.721679688 626.083007812 118.059570312 636 c 5
 54 636 l 4
 42.220703125 636 31 636.625976562 31 654 c 4
 31 671.2421875 41.1669921875 672 54 672 c 4
 70.1591796875 672 147.10546875 669 177 669 c 4
 206.8515625 669 255.814453125 672 279 672 c 4
 293.205078125 672 296 668.42578125 296 651 c 4
 296 637.2890625 290.921875 636 275 636 c 4
 226.448242188 636 l 5
 221.260742188 619.129882812 221 492.0703125 221 370 c 4
 221 130 l 4
 221 43.888671875 213.056640625 -66.1279296875 134.190429688 -150.049804688 c 4
 105.220703125 -181.017578125 70.53125 -215 23 -215 c 4
 0.462890625 -215 -33 -205.744140625 -33 -188 c 4
 -33 -150.23828125 28.5888671875 -121 37 -121 c 4
 55.458984375 -121 69.900390625 -142 89 -142 c 4
 123.025390625 -142 126 -92.5849609375 126 -5 c 6
EndSplineSet
Fore
SplineSet
126 -5 m 2
 126 492 l 2
 126 558 123 636 117 636 c 2
 51 636 l 2
 39 636 31 637 31 654 c 0
 31 671 38 672 51 672 c 0
 67 672 128 669 177 669 c 0
 218 669 264 672 281 672 c 0
 295 672 296 668 296 651 c 0
 296 637 293 636 277 636 c 2
 226 636 l 2
 222 636 221 492 221 370 c 2
 221 130 l 2
 221 44 213 -66 134 -150 c 0
 105 -181 71 -215 23 -215 c 0
 0 -215 -33 -206 -33 -188 c 0
 -33 -150 29 -121 37 -121 c 0
 55 -121 70 -142 89 -142 c 0
 123 -142 126 -93 126 -5 c 2
EndSplineSet
AlternateSubs2: "'aalt' Access All Alternates lookup 0 subtable" J.c2
AlternateSubs2: "'aalt' Access All Alternates in Latin lookup 0 subtable" J.c2
Position2: "'cpsp' Capital Spacing in Latin lookup 2 subtable" dx=4 dy=0 dh=8 dv=0
Substitution2: "'c2sc' Capitals to Small Capitals in Latin lookup 12 subtable" J.c2
EndChar

StartChar: K
Encoding: 75 75 36
Width: 650
VWidth: 0
Flags: W
HStem: -6 36<37.0148 114.798 213.328 302.986 422.004 473 596.003 652.999> 307 27<208.01 256.81> 631 36<46.0058 114.9 215.172 293.979 403.006 463.065 525.474 607.994>
VStem: 118 90<40.099 307 334 631>
DStem2: 327 356 259 300 0.655394 -0.755287<-17.373 336.166>
AnchorPoint: "cedilla" 336 -100 basechar 0
AnchorPoint: "l;bl" 0 10 basechar 0
AnchorPoint: "l;x" 0 380 basechar 0
AnchorPoint: "l;hi" 0 650 basechar 0
AnchorPoint: "l;o" 0 200 basechar 0
AnchorPoint: "r;bl" 650 10 basechar 0
AnchorPoint: "r;x" 610 380 basechar 0
AnchorPoint: "r;hi" 645 650 basechar 0
AnchorPoint: "r;o" 630 200 basechar 0
LayerCount: 3
Back
SplineSet
466.599609375 614.80078125 m 4
 471.767578125 622.037109375 475 626.760742188 475 629 c 4
 475 629.2109375 472.313476562 631 463 631 c 4
 426 631 l 4
 414.220703125 631 403 631.625976562 403 649 c 4
 403 666.2421875 413.166992188 667 426 667 c 4
 442.2578125 667 481.1484375 664 511 664 c 4
 540.803710938 664 567.747070312 667 591 667 c 4
 605.205078125 667 608 663.42578125 608 646 c 4
 608 632.2890625 602.921875 631 587 631 c 4
 539.283203125 631 l 5
 525.407226562 615.354492188 379.796875 440.095703125 324.258789062 374.025390625 c 5
 315.166015625 364.022460938 316.909179688 368.395507812 327.28515625 355.943359375 c 5
 596.248046875 45.986328125 l 5
 605.131835938 36.1162109375 612.223632812 30 625 30 c 6
 639 30 l 4
 651.189453125 30 653 26.33203125 653 14 c 4
 653 -1.0947265625 650.745117188 -6 639 -6 c 4
 615.809570312 -6 568.849609375 -3 539 -3 c 4
 509.15234375 -3 462.188476562 -6 439 -6 c 4
 424.794921875 -6 422 -2.42578125 422 15 c 4
 422 28.7109375 427.078125 30 443 30 c 4
 473 30 l 4
 481 30 485.463867188 31.052734375 486.686523438 31.525390625 c 5
 484.280273438 34.6357421875 480.461914062 37.5185546875 475.708007812 43.064453125 c 4
 258.724609375 300.043945312 l 5
 251.990234375 307.741210938 254.100585938 307 239 307 c 4
 219 307 l 4
 207.28125 307 208 308.616210938 208 298 c 4
 208 179.161132812 209.112304688 43.703125 216.750976562 30 c 5
 289 30 l 4
 301.189453125 30 303 26.33203125 303 14 c 4
 303 -1.0947265625 300.745117188 -6 289 -6 c 4
 265.841796875 -6 198.884765625 -3 169 -3 c 4
 139.134765625 -3 77.1533203125 -6 54 -6 c 4
 39.794921875 -6 37 -2.42578125 37 15 c 4
 37 28.7109375 42.078125 30 58 30 c 4
 111.978515625 30 l 5
 116.818359375 41.3974609375 118 113.631835938 118 197 c 4
 118 487 l 4
 118 552.73828125 116.365234375 621.14453125 112.014648438 631 c 5
 69 631 l 4
 57.220703125 631 46 631.625976562 46 649 c 4
 46 666.2421875 56.1669921875 667 69 667 c 4
 85.2021484375 667 141.125 664 171 664 c 4
 200.857421875 664 253.82421875 667 277 667 c 4
 291.205078125 667 294 663.42578125 294 646 c 4
 294 632.2890625 288.921875 631 273 631 c 4
 219.5625 631 l 5
 212.227539062 620.494140625 208 528.157226562 208 476 c 4
 208 351 l 4
 208 336.844726562 208.352539062 334 218 334 c 4
 240 334 l 4
 261.3359375 334 429.017578125 567.061523438 466.599609375 614.80078125 c 4
EndSplineSet
Fore
SplineSet
467 615 m 0
 475 626 475 631 463 631 c 2
 423 631 l 2
 411 631 403 632 403 649 c 0
 403 666 410 667 423 667 c 0
 439 667 473 664 511 664 c 0
 548 664 580 667 594 667 c 0
 608 667 608 663 608 646 c 0
 608 632 606 631 590 631 c 2
 542 631 l 2
 537 631 356 412 324 374 c 0
 315 364 317 368 327 356 c 2
 596 46 l 2
 605 36 612 30 625 30 c 2
 641 30 l 2
 653 30 653 26 653 14 c 0
 653 -1 653 -6 641 -6 c 0
 618 -6 569 -3 539 -3 c 0
 509 -3 459 -6 436 -6 c 0
 422 -6 422 -2 422 15 c 0
 422 29 427 30 440 30 c 2
 473 30 l 2
 488 30 483 35 476 43 c 2
 259 300 l 2
 254 306 254 307 239 307 c 2
 220 307 l 2
 208 307 208 307 208 296 c 0
 208 177 210 30 217 30 c 2
 289 30 l 2
 301 30 303 26 303 14 c 0
 303 -1 302 -6 290 -6 c 0
 267 -6 199 -3 169 -3 c 0
 139 -3 75 -6 52 -6 c 0
 38 -6 37 -2 37 15 c 0
 37 29 42 30 58 30 c 2
 111 30 l 2
 117 30 118 114 118 197 c 2
 118 487 l 2
 118 553 116 631 112 631 c 2
 66 631 l 2
 54 631 46 632 46 649 c 0
 46 666 53 667 66 667 c 0
 82 667 129 664 171 664 c 0
 201 664 256 667 279 667 c 0
 293 667 294 663 294 646 c 0
 294 632 291 631 275 631 c 2
 220 631 l 2
 213 631 208 528 208 476 c 2
 208 351 l 2
 208 337 208 334 218 334 c 2
 240 334 l 2
 261 334 429 567 467 615 c 0
EndSplineSet
AlternateSubs2: "'aalt' Access All Alternates lookup 0 subtable" K.c2
AlternateSubs2: "'aalt' Access All Alternates in Latin lookup 0 subtable" K.c2
Position2: "'cpsp' Capital Spacing in Latin lookup 2 subtable" dx=4 dy=0 dh=8 dv=0
Substitution2: "'c2sc' Capitals to Small Capitals in Latin lookup 12 subtable" K.c2
EndChar

StartChar: L
Encoding: 76 76 37
Width: 592
VWidth: 0
Flags: W
HStem: -6 36<37.0272 120.178> -3 37<220.905 534.806> 636 33<44.0206 122.998 222.215 314.985>
VStem: 125 93<62.1844 636>
AnchorPoint: "caron" 337 550 basechar 0
AnchorPoint: "cedilla" 332 -100 basechar 0
AnchorPoint: "top" 172 780 basechar 0
AnchorPoint: "l;bl" 0 10 basechar 0
AnchorPoint: "l;x" 0 380 basechar 0
AnchorPoint: "l;hi" 0 650 basechar 0
AnchorPoint: "l;o" 0 200 basechar 0
AnchorPoint: "r;bl" 592 10 basechar 0
AnchorPoint: "r;o" 592 200 basechar 0
LayerCount: 3
Back
SplineSet
223.884765625 34 m 5x78
 326.297851562 34.0341796875 504.993164062 39.01171875 515.770507812 39.9912109375 c 5
 531.370117188 40.966796875 533.151367188 39.3115234375 536.030273438 60.423828125 c 4
 548.041992188 144.506835938 l 5
 548.05859375 144.587890625 l 4
 549.3671875 151.134765625 554.926757812 155 562 155 c 4
 571.7890625 155 585 151.428710938 585 142 c 4
 585 133.0703125 567.974609375 36.6083984375 563.977539062 7.62890625 c 5
 562.651367188 -4.3017578125 548.624023438 -6 539 -6 c 4xb8
 515.956054688 -6 204.959960938 -3 175 -3 c 4x78
 145.122070312 -3 76.1484375 -6 53 -6 c 4
 38.6259765625 -6 37 -2.11328125 37 15 c 4
 37 28.423828125 40.92578125 30 57 30 c 4
 117.725585938 30 l 5xb8
 123.733398438 46.0859375 125 181.27734375 125 319 c 4
 125 550 l 4
 125 598.265625 123.205078125 631.239257812 120.361328125 636 c 5
 63 636 l 4
 49.4033203125 636 44 638.6875 44 654 c 4
 44 669.771484375 50.8125 672 67 672 c 4
 83.185546875 672 147.114257812 669 177 669 c 4
 206.8671875 669 271.854492188 672 295 672 c 4
 311.619140625 672 315 669.0078125 315 654 c 4
 315 640.80859375 310.841796875 636 294 636 c 4
 225.12109375 636 l 5
 219.301757812 622.163085938 218 513.6796875 218 424 c 4
 218 147 l 4
 218 86.73046875 220.4296875 40.935546875 223.884765625 34 c 5x78
EndSplineSet
Fore
SplineSet
224 34 m 0x70
 326 34 505 39 516 40 c 0
 532 41 533 39 536 60 c 2
 548 146 l 2
 549 153 555 156 562 155 c 0
 574 154 585 152 585 143 c 0
 585 134 568 37 564 8 c 0
 563 -4 558 -6 539 -6 c 0xb0
 516 -6 205 -3 175 -3 c 0x70
 145 -3 76 -6 53 -6 c 0
 39 -6 37 -2 37 15 c 0
 37 28 41 30 57 30 c 2
 117 30 l 2xb0
 123 30 125 181 125 319 c 2
 125 550 l 2
 125 598 123 636 120 636 c 2
 61 636 l 2
 47 636 44 639 44 654 c 0
 44 670 48 672 64 672 c 0
 80 672 147 669 177 669 c 0
 207 669 274 672 297 672 c 0
 314 672 315 669 315 654 c 0
 315 641 313 636 296 636 c 2
 226 636 l 2
 219 636 218 514 218 424 c 2
 218 147 l 2
 218 87 221 34 224 34 c 0x70
EndSplineSet
AlternateSubs2: "'aalt' Access All Alternates lookup 0 subtable" L.c2
AlternateSubs2: "'aalt' Access All Alternates in Latin lookup 0 subtable" L.c2 L.CAT
Position2: "'cpsp' Capital Spacing in Latin lookup 2 subtable" dx=4 dy=0 dh=8 dv=0
Substitution2: "'c2sc' Capitals to Small Capitals in Latin lookup 12 subtable" L.c2
Substitution2: "catalan subtable" L.CAT
EndChar

StartChar: M
Encoding: 77 77 38
Width: 895
VWidth: 0
Flags: W
HStem: -10 21G<416 423.5> -6 36<32.0336 97.1816 146.66 232.986 624.034 692.938 796.701 867.973> 636 33<40 119 787.002 855.991>
VStem: 101 44<30 333.871> 119 34<434.428 577.031> 697 88<219.013 576.932>
DStem2: 243 657 167 595 0.375555 -0.9268<28.9194 564.51> 665 644 494 108 0.358734 0.93344<-546.574 -53.7844>
AnchorPoint: "top" 458 780 basechar 0
AnchorPoint: "l;bl" 0 10 basechar 0
AnchorPoint: "l;x" 0 380 basechar 0
AnchorPoint: "l;hi" 0 650 basechar 0
AnchorPoint: "l;o" 0 200 basechar 0
AnchorPoint: "r;bl" 895 10 basechar 0
AnchorPoint: "r;x" 895 380 basechar 0
AnchorPoint: "r;hi" 895 650 basechar 0
AnchorPoint: "r;o" 895 200 basechar 0
LayerCount: 3
Back
SplineSet
400.22265625 19.865234375 m 6xac
 167.23046875 594.845703125 l 5
 160.94921875 609.501953125 156.397460938 619.142578125 154.752929688 621.576171875 c 5
 153.876953125 616.73046875 153.647460938 607.5234375 152.998046875 593.88671875 c 4xac
 148 461.951171875 145 259.955078125 145 129 c 4
 145 76.431640625 146.7734375 38.369140625 148.73046875 30 c 5
 219 30 l 4
 231.189453125 30 233 26.33203125 233 14 c 4
 233 -1.0947265625 230.745117188 -6 219 -6 c 4
 195.776367188 -6 160.825195312 -3 131 -3 c 4
 101.189453125 -3 72.24609375 -6 49 -6 c 4
 34.794921875 -6 32 -2.42578125 32 15 c 4
 32 28.7109375 37.078125 30 53 30 c 4
 94.4619140625 30 l 5
 98.2275390625 36.4287109375 98.3408203125 75.005859375 101.00390625 129.147460938 c 4x74
 104 190.069335938 119 556.201171875 119 626 c 4
 119 634.069335938 118.768554688 636 100 636 c 4
 54 636 l 4
 41.810546875 636 40 639.66796875 40 652 c 4
 40 667.094726562 42.2548828125 672 54 672 c 4
 68.1689453125 672 140.12890625 669 161 669 c 4
 182.836914062 669 213.584960938 672 220 672 c 4
 230.439453125 672 237.334960938 670.196289062 242.77734375 657.134765625 c 5
 452.78515625 133.114257812 l 4
 456.762695312 123.170898438 459.9375 116.036132812 461.046875 114.110351562 c 5
 463.578125 118.315429688 465.887695312 123.806640625 469.186523438 133.041992188 c 5
 665.196289062 644.068359375 l 4
 673.23046875 665.158203125 676.905273438 669 693 669 c 4
 739 669 l 4
 768.84765625 669 815.811523438 672 839 672 c 4
 853.205078125 672 856 668.42578125 856 651 c 4
 856 637.2890625 850.921875 636 835 636 c 4
 789.532226562 636 l 5
 786.44921875 631.375 785 602.154296875 785 559 c 4
 785 469 l 4
 785 297.10546875 791.15234375 52.2919921875 799.327148438 30 c 5
 852 30 l 4
 863.776367188 30 868 27.0830078125 868 14 c 4
 868 -1.0947265625 865.745117188 -6 854 -6 c 4
 830.825195312 -6 776.860351562 -3 747 -3 c 4
 717.142578125 -3 664.17578125 -6 641 -6 c 4
 626.794921875 -6 624 -2.42578125 624 15 c 4
 624 28.7109375 629.078125 30 645 30 c 4
 689.987304688 30 l 5x6c
 694.921875 40.984375 697 114.87890625 697 204 c 4
 697 307.76171875 693.75 557.5859375 691.046875 610.145507812 c 5
 666.579101562 552.68359375 558.541015625 265.278320312 493.772460938 107.854492188 c 4
 474.53515625 61.2802734375 461.370117188 58.03125 437.704101562 10.7001953125 c 5
 431.88671875 -1.9052734375 426.673828125 -10 420 -10 c 4
 411.6328125 -10 406.825195312 3.83203125 400.22265625 19.865234375 c 6xac
EndSplineSet
Fore
SplineSet
400 20 m 2xac
 167 595 l 2
 157 621 155 623 153 594 c 0xac
 148 462 145 260 145 129 c 0
 145 76 146 30 150 30 c 2
 219 30 l 2
 231 30 233 26 233 14 c 0
 233 -1 231 -6 219 -6 c 0
 196 -6 161 -3 131 -3 c 0
 101 -3 65 -6 48 -6 c 0
 34 -6 32 -2 32 15 c 0
 32 29 37 30 53 30 c 2
 94 30 l 2
 98 30 98 75 101 129 c 0x74
 104 190 119 556 119 626 c 0
 119 634 119 636 100 636 c 2
 50 636 l 2
 40 636 40 640 40 652 c 0
 40 667 40 672 50 672 c 0
 64 672 125 669 161 669 c 0
 183 669 218 672 224 672 c 0
 234 672 238 670 243 657 c 2
 453 133 l 2
 461 113 463 118 469 134 c 2
 665 644 l 2
 673 665 675 669 691 669 c 2
 739 669 l 2
 769 669 818 672 841 672 c 0
 855 672 856 668 856 651 c 0
 856 637 853 636 837 636 c 2
 790 636 l 1
 787 631 785 602 785 559 c 2
 785 469 l 2
 785 297 792 30 800 30 c 2
 852 30 l 2
 864 30 868 27 868 14 c 0
 868 -1 866 -6 854 -6 c 0
 831 -6 777 -3 747 -3 c 0
 704 -3 654 -6 640 -6 c 0
 626 -6 624 -2 624 15 c 0
 624 29 629 30 645 30 c 2
 690 30 l 2x6c
 694 30 697 115 697 204 c 0
 697 295 694 496 692 581 c 0
 691 613 688 603 679 581 c 2
 494 108 l 2
 475 61 462 58 438 11 c 0
 432 -2 427 -10 420 -10 c 0
 412 -10 407 4 400 20 c 2xac
EndSplineSet
AlternateSubs2: "'aalt' Access All Alternates lookup 0 subtable" M.c2
AlternateSubs2: "'aalt' Access All Alternates in Latin lookup 0 subtable" M.c2
Position2: "'cpsp' Capital Spacing in Latin lookup 2 subtable" dx=4 dy=0 dh=8 dv=0
Substitution2: "'c2sc' Capitals to Small Capitals in Latin lookup 12 subtable" M.c2
EndChar

StartChar: N
Encoding: 78 78 39
Width: 814
VWidth: 0
Flags: W
HStem: -21 21G<678 686> -3 33<37.0091 107.97 155.494 256> 636 36<40.014 119 558.001 663.807 709.18 776.988>
VStem: 111 43<30 331.578> 119 36<440.037 594.003> 664 44<379.939 636>
DStem2: 243 658 170 594 0.635345 -0.772228<3.04242 643.292>
AnchorPoint: "cedilla" 414 -100 basechar 0
AnchorPoint: "top" 421 780 basechar 0
AnchorPoint: "l;bl" 0 10 basechar 0
AnchorPoint: "l;x" 0 380 basechar 0
AnchorPoint: "l;hi" 0 650 basechar 0
AnchorPoint: "l;o" 0 200 basechar 0
AnchorPoint: "r;bl" 814 10 basechar 0
AnchorPoint: "r;x" 814 380 basechar 0
AnchorPoint: "r;hi" 814 650 basechar 0
AnchorPoint: "r;o" 814 200 basechar 0
LayerCount: 3
Back
SplineSet
243.334960938 657.883789062 m 6x6c
 649.322265625 158.899414062 l 4
 656.3671875 150.288085938 661.862304688 142.955078125 664.4609375 140.561523438 c 5
 665.500976562 143.939453125 666 151.673828125 666 165 c 4
 666 207 l 4
 666 304.969726562 664 481.969726562 664 583 c 4
 664 610.098632812 663.901367188 630.349609375 663.512695312 636 c 5
 572 636 l 4
 559.810546875 636 558 639.66796875 558 652 c 4
 558 667.094726562 560.254882812 672 572 672 c 4
 595.176757812 672 648.141601562 669 678 669 c 4
 707.810546875 669 736.75390625 672 760 672 c 4
 774.205078125 672 777 668.42578125 777 651 c 4
 777 637.2890625 771.921875 636 756 636 c 4
 711.173828125 636 l 5
 709.8671875 628.955078125 708 609.483398438 708 579.98046875 c 4
 707 424.94921875 695 14.82421875 695 4 c 4
 695 -12.021484375 689.970703125 -21 682 -21 c 4
 674.422851562 -21 667.352539062 -10.5205078125 661.702148438 -3.9296875 c 5
 169.669921875 594.109375 l 5
 163.703125 601.568359375 158.739257812 608.32421875 156.883789062 610.13671875 c 5
 156.153320312 606.025390625 156 602.217773438 156 593.940429688 c 5
 154.999023438 568.922851562 155 525.032226562 155 472 c 4xac
 155 365.984375 154 223.982421875 154 129 c 4
 154 76.431640625 155.7734375 38.369140625 157.73046875 30 c 5
 242 30 l 4
 254.189453125 30 256 26.33203125 256 14 c 4
 256 -1.0947265625 253.745117188 -6 242 -6 c 4
 218.823242188 -6 165.858398438 -3 136 -3 c 4
 106.189453125 -3 77.24609375 -6 54 -6 c 4
 39.794921875 -6 37 -2.42578125 37 15 c 4
 37 28.7109375 42.078125 30 58 30 c 4
 102 30 l 4
 110.16015625 30 108.911132812 65.3349609375 111.000976562 129.086914062 c 4x74
 115.723632812 291.548828125 118.665039062 602.497070312 118.97265625 636 c 5
 54 636 l 4
 41.810546875 636 40 639.66796875 40 652 c 4
 40 667.094726562 42.2548828125 672 54 672 c 4
 68.1630859375 672 145.119140625 669 166 669 c 4
 187.83984375 669 214.526367188 672 221 672 c 4
 233.088867188 672 235.602539062 667.548828125 243.334960938 657.883789062 c 6x6c
EndSplineSet
Fore
SplineSet
243 658 m 2x6c
 649 159 l 2
 665 139 666 145 666 165 c 2
 666 207 l 2
 666 305 664 482 664 583 c 0
 664 591 664 636 663 636 c 2
 570 636 l 2
 558 636 558 640 558 652 c 0
 558 667 558 672 570 672 c 0
 577 672 634 669 678 669 c 0
 718 669 749 672 763 672 c 0
 777 672 777 668 777 651 c 0
 777 637 773 636 757 636 c 2
 712 636 l 2
 710 636 708 610 708 580 c 0
 707 425 695 15 695 4 c 0
 695 -12 690 -21 682 -21 c 0
 674 -21 668 -11 662 -4 c 2
 170 594 l 2
 161 604 156 613 156 594 c 0
 155 554 155 525 155 472 c 0xac
 155 366 154 224 154 129 c 0
 154 76 155 30 158 30 c 2
 244 30 l 2
 256 30 256 26 256 14 c 0
 256 -1 256 -6 244 -6 c 0
 221 -6 181 -3 136 -3 c 0
 92 -3 65 -6 52 -6 c 0
 38 -6 37 -2 37 15 c 0
 37 29 40 30 56 30 c 2
 102 30 l 2
 110 30 109 65 111 129 c 0x74
 116 291 119 602 119 636 c 1
 54 636 l 2
 42 636 40 640 40 652 c 0
 40 667 42 672 54 672 c 0
 68 672 145 669 166 669 c 0
 188 669 215 672 221 672 c 0
 233 672 235 668 243 658 c 2x6c
EndSplineSet
AlternateSubs2: "'aalt' Access All Alternates lookup 0 subtable" N.c2
AlternateSubs2: "'aalt' Access All Alternates in Latin lookup 0 subtable" N.c2
Position2: "'cpsp' Capital Spacing in Latin lookup 2 subtable" dx=4 dy=0 dh=8 dv=0
Substitution2: "'c2sc' Capitals to Small Capitals in Latin lookup 12 subtable" N.c2
EndChar

StartChar: O
Encoding: 79 79 40
Width: 752
VWidth: 0
Flags: W
HStem: -14 34<295.944 451.839> 644 34<300.782 456.336>
VStem: 42 100<201.6 449.342> 612 98<200.449 456.406>
AnchorPoint: "top" 375 780 basechar 0
AnchorPoint: "l;x" 0 380 basechar 0
AnchorPoint: "l;o" 10 200 basechar 0
AnchorPoint: "r;x" 752 380 basechar 0
AnchorPoint: "l;bl" 40 10 basechar 0
AnchorPoint: "l;hi" 40 650 basechar 0
AnchorPoint: "r;bl" 712 10 basechar 0
AnchorPoint: "r;hi" 712 650 basechar 0
AnchorPoint: "r;o" 742 200 basechar 0
LayerCount: 3
Fore
SplineSet
370 -14 m 0
 209 -14 42 102 42 318 c 0
 42 536 199 678 385 678 c 0
 585 678 710 519 710 324 c 0
 710 122 569 -14 370 -14 c 0
371 20 m 0
 533 20 612 180 612 333 c 0
 612 485 535 644 375 644 c 0
 234 644 142 497 142 345 c 0
 142 166 229 20 371 20 c 0
EndSplineSet
AlternateSubs2: "'aalt' Access All Alternates lookup 0 subtable" O.c2
AlternateSubs2: "'aalt' Access All Alternates in Latin lookup 0 subtable" O.c2
Position2: "'cpsp' Capital Spacing in Latin lookup 2 subtable" dx=4 dy=0 dh=8 dv=0
Substitution2: "'c2sc' Capitals to Small Capitals in Latin lookup 12 subtable" O.c2
EndChar

StartChar: P
Encoding: 80 80 41
Width: 564
VWidth: 0
Flags: W
HStem: -3 33<47.0037 118.684 213.308 299.999> 290 25<212.05 336.359> 631 34<37.0091 123.87> 638 27<213.196 335.506>
VStem: 125 87<223.572 289.999 315.438 630.469> 455 92<397.02 555.926>
AnchorPoint: "top" 304 780 basechar 0
AnchorPoint: "l;bl" 0 10 basechar 0
AnchorPoint: "l;x" 0 380 basechar 0
AnchorPoint: "l;hi" 0 650 basechar 0
AnchorPoint: "l;o" 0 200 basechar 0
AnchorPoint: "r;x" 554 380 basechar 0
AnchorPoint: "r;hi" 564 650 basechar 0
AnchorPoint: "r;o" 524 200 basechar 0
LayerCount: 3
Back
SplineSet
455 486 m 4xd6
 455 580.587890625 365.299804688 638 247 638 c 4
 236.518554688 638 224.04296875 637.850585938 215.07421875 637.083984375 c 5
 212.993164062 632.196289062 212 611.087890625 212 586 c 4
 212 325 l 4
 212 317.12109375 229.490234375 315 247 315 c 4
 360.346679688 315 455 359.2421875 455 486 c 4xd6
547 471 m 4
 547 340.708984375 446.591796875 287 305 287 c 4
 268.815429688 287 245.7578125 290 218 290 c 4
 210.129882812 290 211 287.93359375 211 282 c 4
 211 216 l 4
 211 142.984375 212.173828125 44.81640625 214.958984375 30 c 5
 286 30 l 4
 298.189453125 30 300 26.33203125 300 14 c 4
 300 -1.0947265625 297.745117188 -6 286 -6 c 4
 262.836914062 -6 200.875 -3 171 -3 c 4
 141.100585938 -3 73.2041015625 -6 64 -6 c 4
 49.794921875 -6 47 -2.42578125 47 15 c 4
 47 28.7109375 52.078125 30 68 30 c 4
 117.229492188 30 l 5xda
 123.939453125 58.6201171875 125 349.88671875 125 474 c 4
 125 526 l 4
 125 580.809570312 123.856445312 622.353515625 121.530273438 630.952148438 c 5
 60.0478515625 629 l 5
 47.5966796875 629 37 631.921875 37 649 c 4
 37 666.2421875 47.1669921875 667 60 667 c 4xe6
 76.1201171875 667 156 665 173 665 c 4
 202.811523438 665 280.772460938 670 304 670 c 4
 440.796875 670 547 608.17578125 547 471 c 4
EndSplineSet
Fore
SplineSet
455 486 m 0xdc
 455 581 365 638 247 638 c 0
 237 638 225 638 216 637 c 0
 213 636 212 611 212 586 c 2
 212 325 l 2
 212 317 229 315 247 315 c 0
 360 315 455 359 455 486 c 0xdc
547 471 m 0
 547 341 447 287 305 287 c 0
 269 287 246 290 218 290 c 0
 211 290 211 288 211 282 c 2
 211 216 l 2
 211 143 212 30 215 30 c 2
 286 30 l 2
 298 30 300 26 300 14 c 0
 300 -1 298 -6 286 -6 c 0
 263 -6 201 -3 171 -3 c 0
 141 -3 71 -6 62 -6 c 0
 48 -6 47 -2 47 15 c 0
 47 29 52 30 68 30 c 2
 116 30 l 2
 124 30 125 350 125 474 c 2
 125 526 l 2
 125 581 125 631 121 631 c 2xec
 55 629 l 2
 40 629 37 632 37 649 c 0
 37 666 42 667 55 667 c 0
 71 667 156 665 173 665 c 0
 203 665 281 670 304 670 c 0
 441 670 547 608 547 471 c 0
EndSplineSet
AlternateSubs2: "'aalt' Access All Alternates lookup 0 subtable" P.c2
AlternateSubs2: "'aalt' Access All Alternates in Latin lookup 0 subtable" P.c2
Position2: "'cpsp' Capital Spacing in Latin lookup 2 subtable" dx=4 dy=0 dh=8 dv=0
Substitution2: "'c2sc' Capitals to Small Capitals in Latin lookup 12 subtable" P.c2
EndChar

StartChar: Q
Encoding: 81 81 42
Width: 783
VWidth: 0
Flags: W
HStem: -190 69<536.222 686.94> -125 62<158.695 252.869> 644 34<300.062 464.868>
VStem: 42 93<233.274 462.827> 637 104<220.154 455.213>
AnchorPoint: "l;hi" 40 650 basechar 0
AnchorPoint: "l;bl" 40 10 basechar 0
AnchorPoint: "l;o" 10 200 basechar 0
AnchorPoint: "l;x" 0 380 basechar 0
AnchorPoint: "r;bl" 783 10 basechar 0
AnchorPoint: "r;x" 783 380 basechar 0
AnchorPoint: "r;o" 783 200 basechar 0
AnchorPoint: "r;k;lo" 763 -260 basechar 0
AnchorPoint: "r;hi" 743 650 basechar 0
LayerCount: 3
Back
SplineSet
434 21 m 4x38
 462.797851562 21 637 109.520507812 637 332 c 4
 637 484.108398438 542.63671875 644 382 644 c 4
 241.122070312 644 135 507.802734375 135 356 c 4
 135 264.721679688 168.77734375 178.383789062 219.255859375 120.977539062 c 4
 275.27734375 57.0927734375 412.078125 21 434 21 c 4x38
42 340 m 4
 42 557.8515625 206.700195312 678 392 678 c 4
 591.513671875 678 741 535.69921875 741 340 c 4
 741 177.657226562 639.059570312 52.4697265625 494.8125 11.1123046875 c 4
 467.673828125 3.4794921875 343.55859375 -51.2578125 313.604492188 -65.77734375 c 5
 338.848632812 -68.1201171875 411.494140625 -69.27734375 459.646484375 -80.0703125 c 4
 527.91015625 -95.12890625 596.006835938 -121 639 -121 c 4
 706.76171875 -121 735.703125 -91 745 -91 c 4
 750.346679688 -91 762 -101.139648438 762 -111 c 4
 762 -127.7421875 677.421875 -190 603 -190 c 4xb8
 465.166992188 -190 306.172851562 -107 254 -107 c 4
 229.958984375 -107 196.931640625 -125 187 -125 c 4
 171.271484375 -125 148 -92.58984375 148 -80 c 4
 148 -65.453125 159.036132812 -62 176 -62 c 4x78
 183.268554688 -62 191.268554688 -63 198 -63 c 4
 214.862304688 -63 233.658203125 -61.9970703125 254.268554688 -57.08984375 c 5
 282.563476562 -49.6005859375 366.165039062 -12.775390625 388.220703125 -0.70703125 c 5
 385.052734375 -0.4150390625 383.912109375 -0.3037109375 381.603515625 0.0263671875 c 5
 202.92578125 22.1103515625 42 116.036132812 42 340 c 4
EndSplineSet
Fore
SplineSet
434 21 m 0x38
 463 21 637 110 637 332 c 0
 637 484 543 644 382 644 c 0
 241 644 135 508 135 356 c 0
 135 265 169 178 219 121 c 0
 275 57 412 21 434 21 c 0x38
42 340 m 0
 42 558 207 678 392 678 c 0
 592 678 741 536 741 340 c 0
 741 178 639 52 495 11 c 0
 471 4 372 -39 328 -59 c 0
 320 -63 311 -66 328 -67 c 0
 360 -69 419 -71 460 -80 c 0
 528 -95 596 -121 639 -121 c 0
 707 -121 737 -90 746 -90 c 0
 750 -90 763 -104 763 -110 c 0
 763 -127 677 -190 603 -190 c 0xb8
 465 -190 306 -107 254 -107 c 0
 230 -107 197 -125 187 -125 c 0
 171 -125 148 -93 148 -80 c 0
 148 -65 159 -62 176 -62 c 0
 183 -62 191 -63 198 -63 c 0x78
 215 -63 233 -62 254 -57 c 0
 279 -50 347 -21 378 -6 c 0
 384 -3 385 -2 385 -1 c 0
 385 0 382 0 374 1 c 0
 198 25 42 119 42 340 c 0
EndSplineSet
AlternateSubs2: "'aalt' Access All Alternates lookup 0 subtable" Q.c2
AlternateSubs2: "'aalt' Access All Alternates in Latin lookup 0 subtable" Q.c2
Position2: "'cpsp' Capital Spacing in Latin lookup 2 subtable" dx=4 dy=0 dh=8 dv=0
Substitution2: "'c2sc' Capitals to Small Capitals in Latin lookup 12 subtable" Q.c2
EndChar

StartChar: R
Encoding: 82 82 43
Width: 641
VWidth: 0
Flags: W
HStem: -3 33<56.0148 122.169 218.61 292.999 574.514 643.692> 309 27<210 379.917> 631 34<37.0205 117.26> 639 32<211.631 345.546>
VStem: 124 86<50.1313 309.998 337.824 536.792> 448 91<425.541 558.327> 480 92<30 199.651>
AnchorPoint: "cedilla" 362 -100 basechar 0
AnchorPoint: "top" 297 780 basechar 0
AnchorPoint: "l;bl" 0 10 basechar 0
AnchorPoint: "l;x" 0 380 basechar 0
AnchorPoint: "l;hi" 0 650 basechar 0
AnchorPoint: "l;o" 0 200 basechar 0
AnchorPoint: "r;bl" 641 10 basechar 0
AnchorPoint: "r;o" 641 200 basechar 0
AnchorPoint: "r;x" 621 380 basechar 0
AnchorPoint: "r;hi" 591 650 basechar 0
LayerCount: 3
Back
SplineSet
351.043945312 336 m 4xdc
 355.606445312 336 358.725585938 335.216796875 361.704101562 336.706054688 c 5
 408.87890625 358.328125 448 401.106445312 448 484 c 4
 448 580.798828125 358.973632812 639 266 639 c 4
 249.591796875 639 230.19921875 637.9453125 214.928710938 637.049804688 c 5
 212.309570312 631.814453125 210 611.076171875 210 586 c 4
 210 345 l 4
 210 338.791015625 209.252929688 338 223.03515625 338 c 5
 266.069335938 336.999023438 316.944335938 337.002929688 351.043945312 336 c 4xdc
219.830078125 30 m 5
 279 30 l 4
 291.189453125 30 293 26.33203125 293 14 c 4
 293 -1.0947265625 290.745117188 -6 279 -6 c 4
 255.827148438 -6 200.862304688 -3 171 -3 c 4
 141.10546875 -3 82.232421875 -6 73 -6 c 4
 58.794921875 -6 56 -2.42578125 56 15 c 4
 56 28.7109375 61.078125 30 77 30 c 4
 120.364257812 30 l 5
 123.041992188 40.2705078125 124 93.361328125 124 156 c 4
 124 289 l 4
 124 428.002929688 122.177734375 612.83984375 114.014648438 630.961914062 c 5
 60.0546875 629 l 5
 47.5908203125 629 37 631.921875 37 649 c 4
 37 666.2421875 47.1669921875 667 60 667 c 4xea
 76.1201171875 667 143.072265625 665 173 665 c 4
 202.795898438 665 294.758789062 671 318 671 c 4
 418.227539062 671 539 640.591796875 539 498 c 4xdc
 539 403.826171875 445.255859375 351.275390625 403.256835938 332.276367188 c 4
 398.859375 330.24609375 392.604492188 327.858398438 391.962890625 327.625976562 c 5
 395.239257812 326.91015625 398.436523438 326.138671875 402.845703125 324.87890625 c 5
 466.462890625 305.692382812 565.940429688 257.674804688 571.998046875 92.10546875 c 4
 574.056640625 33.439453125 575.848632812 30 583 30 c 4
 629 30 l 4
 639.689453125 30 644 26.2470703125 644 5 c 4
 644 -2.955078125 635.852539062 -6 624 -6 c 4
 589.852539062 -6 490.955078125 -3 490.955078125 -3 c 5
 483.489257812 -3 480 -1.060546875 480 8 c 4
 480 66 l 4xda
 480 186.240234375 470.245117188 306.049804688 309.97265625 309 c 5
 288.967773438 309 245.926757812 310 218 310 c 4
 209.884765625 310 210 307.4375 210 302 c 4
 210 243.897460938 214.94921875 50.6982421875 219.830078125 30 c 5
EndSplineSet
Fore
SplineSet
351 336 m 0xdc
 356 336 359 336 362 337 c 0
 409 359 448 401 448 484 c 0
 448 581 359 639 266 639 c 0
 250 639 230 639 215 637 c 0
 212 637 210 611 210 586 c 2
 210 343 l 2
 210 339 211 338 223 338 c 0
 266 337 317 337 351 336 c 0xdc
221 30 m 2
 279 30 l 2
 291 30 293 26 293 14 c 0
 293 -1 291 -6 279 -6 c 0
 256 -6 201 -3 171 -3 c 0
 141 -3 82 -6 73 -6 c 0
 59 -6 56 -2 56 15 c 0
 56 29 61 30 77 30 c 2
 120 30 l 2
 123 30 124 93 124 156 c 2
 124 289 l 2
 124 428 121 631 114 631 c 2
 56 629 l 2
 42 629 37 634 37 649 c 0
 37 666 44 667 57 667 c 0
 73 667 143 665 173 665 c 0xea
 203 665 295 671 318 671 c 0
 418 671 539 641 539 498 c 0xdc
 539 404 445 351 403 332 c 0
 395 328 393 328 403 325 c 0
 468 304 566 258 572 92 c 0
 574 33 576 30 583 30 c 2
 629 30 l 2
 640 30 644 26 644 5 c 0
 644 -3 640 -6 628 -6 c 0
 594 -6 491 -3 491 -3 c 2
 484 -3 480 -1 480 8 c 2
 480 66 l 2xda
 480 186 470 306 310 309 c 0
 289 309 246 310 218 310 c 0
 210 310 210 307 210 302 c 0
 210 244 216 30 221 30 c 2
EndSplineSet
AlternateSubs2: "'aalt' Access All Alternates lookup 0 subtable" R.c2
AlternateSubs2: "'aalt' Access All Alternates in Latin lookup 0 subtable" R.c2
Position2: "'cpsp' Capital Spacing in Latin lookup 2 subtable" dx=4 dy=0 dh=8 dv=0
Substitution2: "'c2sc' Capitals to Small Capitals in Latin lookup 12 subtable" R.c2
EndChar

StartChar: S
Encoding: 83 83 44
Width: 528
VWidth: 0
Flags: W
HStem: -18 39<173.223 346.92> 645 20G<434.902 452.5> 646 34<204.313 335.692>
VStem: 52 89<456.935 570.338> 408 88<93.2024 199.721> 422 37<472.003 580.824 630.009 664.974>
AnchorPoint: "cedilla" 278 -100 basechar 0
AnchorPoint: "top" 269 780 basechar 0
AnchorPoint: "l;bl" 0 10 basechar 0
AnchorPoint: "l;x" 0 380 basechar 0
AnchorPoint: "l;hi" 0 650 basechar 0
AnchorPoint: "l;o" 0 200 basechar 0
AnchorPoint: "r;bl" 528 10 basechar 0
AnchorPoint: "r;x" 518 380 basechar 0
AnchorPoint: "r;hi" 518 650 basechar 0
AnchorPoint: "r;o" 528 200 basechar 0
LayerCount: 3
Back
SplineSet
425 648.135742188 m 5xb8
 425 659.715820312 426.8046875 665 443 665 c 4
 458.348632812 665 465 661.802734375 465 648 c 4
 465 636.734375 460 541.912109375 460 491 c 4
 460 477.95703125 455.278320312 472 441 472 c 4
 422.494140625 472 419 476.545898438 419 487 c 4
 419 491.28515625 422 542.198242188 422 551 c 4xd4
 422 572.977539062 343.958007812 646 271 646 c 4
 196.532226562 646 141 592.303710938 141 520 c 4
 141 338.374023438 496 414.58984375 496 178 c 4
 496 51.7822265625 380.997070312 -18 269 -18 c 4
 158.8984375 -18 69.455078125 16.298828125 68.0078125 30.767578125 c 5
 66.0009765625 66.9033203125 58 160.54296875 58 175 c 4
 58 183.501953125 60.8876953125 192 73 192 c 4
 78 192 l 4
 91.3798828125 192 95.9208984375 186.072265625 96.9921875 173.22265625 c 5
 102.993164062 81.19921875 l 4
 104.716796875 55.34765625 219.309570312 21 278 21 c 4
 347.64453125 21 408 71.955078125 408 139 c 4
 408 313.611328125 52 252.49609375 52 488 c 4
 52 602.115234375 159.798828125 680 269 680 c 4
 305.27734375 680 349.140625 675.8515625 405.684570312 637.482421875 c 4
 405.782226562 637.416015625 l 5
 405.874023438 637.342773438 l 4
 410.81640625 633.388671875 416.450195312 630 420 630 c 4
 421.994140625 630 423.0625 629.684570312 424.016601562 637.322265625 c 5
 425 648.135742188 l 5xb8
EndSplineSet
Fore
SplineSet
425 648.135742188 m 0xb8
 426 663 426.8046875 665 443 665 c 0
 462 665 465 664 465 648 c 0
 465 636.734375 459 540 459 489 c 0
 459 475.95703125 458 472 441 472 c 0
 422.494140625 472 419 476.545898438 419 487 c 0
 419 491.28515625 422 542.198242188 422 551 c 0xd4
 422 572.977539062 343.958007812 646 271 646 c 0
 196.532226562 646 141 592.303710938 141 520 c 0
 141 338.374023438 496 414.58984375 496 178 c 0
 496 51.7822265625 380.997070312 -18 269 -18 c 0
 158.8984375 -18 68.998046875 16.263671875 68.0078125 30.767578125 c 0
 65.5439453125 66.8681640625 58 162.54296875 58 177 c 0
 58 185.501953125 58 192 73 192 c 2
 78 192 l 2
 91.3798828125 192 96.1533203125 188.08984375 96.9921875 175.22265625 c 2
 102.993164062 81.19921875 l 2
 105 55 219.309570312 21 278 21 c 0
 347.64453125 21 408 71.955078125 408 139 c 0
 408 313.611328125 52 252.49609375 52 488 c 0
 52 602.115234375 159.798828125 680 269 680 c 0
 305.264648438 680 349.307617188 675.818359375 405.782226562 637.416015625 c 0
 410.729492188 633.46875 417.41015625 630 421 630 c 0
 424 630 424.5703125 641.743164062 425 648.135742188 c 0xb8
EndSplineSet
AlternateSubs2: "'aalt' Access All Alternates lookup 0 subtable" S.c2
AlternateSubs2: "'aalt' Access All Alternates in Latin lookup 0 subtable" S.c2
Position2: "'cpsp' Capital Spacing in Latin lookup 2 subtable" dx=4 dy=0 dh=8 dv=0
Substitution2: "'c2sc' Capitals to Small Capitals in Latin lookup 12 subtable" S.c2
EndChar

StartChar: T
Encoding: 84 84 45
Width: 690
VWidth: 0
Flags: W
HStem: -3 33<211.009 294.775 396.327 482.999> 632 34<68.8706 302.656 405.938 634.906>
VStem: 18 51<667.221 687.803> 305 91<292.34 632> 635 34<531.002 628.988 669.271 689.988>
AnchorPoint: "cedilla" 350 -100 basechar 0
AnchorPoint: "l;x" 60 380 basechar 0
AnchorPoint: "l;hi" 0 650 basechar 0
AnchorPoint: "l;o" 100 200 basechar 0
AnchorPoint: "r;x" 620 380 basechar 0
AnchorPoint: "r;hi" 690 650 basechar 0
AnchorPoint: "r;o" 590 200 basechar 0
LayerCount: 3
Back
SplineSet
669 545 m 4
 669 535.208984375 664.282226562 532 650 532 c 4
 636.775390625 532 632 537.80078125 632 549 c 4
 632 554.03125 634.743164062 616.1015625 634.986328125 626.021484375 c 5
 626.543945312 629.970703125 575.909179688 632 525 632 c 6
 409.6171875 632 l 5
 402.967773438 621.801757812 402.931640625 530.094726562 402 476.973632812 c 4
 402 473.889648438 396 216.953125 396 92 c 4
 396 59.8779296875 396.244140625 35.5791015625 397.0546875 30 c 5
 469 30 l 6
 481.189453125 30 483 26.33203125 483 14 c 4
 483 -1.0947265625 480.745117188 -6 469 -6 c 4
 445.841796875 -6 378.884765625 -3 349 -3 c 4
 319.123046875 -3 251.150390625 -6 228 -6 c 4
 213.794921875 -6 211 -2.42578125 211 15 c 4
 211 28.7109375 216.078125 30 232 30 c 6
 292.362304688 30 l 5
 301.138671875 62.294921875 305 441.03515625 305 545 c 4
 305 588.80859375 303.299804688 626.196289062 300.237304688 632 c 5
 157 632 l 6
 102.958984375 632 63.6298828125 628.153320312 62.9853515625 621.701171875 c 6
 55.98828125 551.735351562 l 6
 54.9619140625 538.391601562 50.8701171875 532 40 532 c 4
 31.158203125 532 17 531.466796875 17 544 c 4
 17 547.045898438 30.0068359375 622.203125 34.0087890625 672.23046875 c 4
 35.0986328125 685.849609375 37.259765625 689 53 689 c 4
 60.0087890625 689 69 689.217773438 69 680 c 6
 69 670.030273438 l 5
 77.669921875 666.383789062 126.868164062 666 174 666 c 6
 531 666 l 6
 591.22265625 666 636.467773438 668.83203125 637.014648438 674.298828125 c 4
 638.1484375 685.638671875 644.086914062 689 653 689 c 4
 667.020507812 689 673 686.95703125 673 675 c 4
 673 655.646484375 669 622.942382812 669 545 c 4
EndSplineSet
Fore
SplineSet
669 541 m 0
 669 531 664 531 650 531 c 0
 637 531 632 534 632 545 c 0
 632 550 635 615 635 625 c 0
 635 630 576 632 525 632 c 2
 410 632 l 2
 403 632 403 530 402 477 c 0
 402 474 396 217 396 92 c 0
 396 60 396 30 398 30 c 2
 469 30 l 2
 481 30 483 26 483 14 c 0
 483 -1 481 -6 469 -6 c 0
 446 -6 379 -3 349 -3 c 0
 319 -3 249 -6 226 -6 c 0
 212 -6 211 -2 211 15 c 0
 211 29 214 30 230 30 c 2
 292 30 l 2
 301 30 305 441 305 545 c 0
 305 589 303 632 299 632 c 2
 157 632 l 2
 103 632 64 628 63 622 c 2
 55 545 l 2
 54 532 51 531 40 531 c 0
 31 531 18 531 18 542 c 0
 18 545 30 622 34 672 c 0
 35 686 37 690 53 690 c 0
 60 690 69 690 69 681 c 2
 69 671 l 2
 69 666 127 666 174 666 c 2
 531 666 l 2
 591 666 637 669 637 674 c 0
 638 687 642 690 653 690 c 0
 667 690 673 690 673 676 c 0
 673 657 669 619 669 541 c 0
EndSplineSet
AlternateSubs2: "'aalt' Access All Alternates lookup 0 subtable" T.c2
AlternateSubs2: "'aalt' Access All Alternates in Latin lookup 0 subtable" T.c2
Position2: "'cpsp' Capital Spacing in Latin lookup 2 subtable" dx=4 dy=0 dh=8 dv=0
Substitution2: "'c2sc' Capitals to Small Capitals in Latin lookup 12 subtable" T.c2
EndChar

StartChar: U
Encoding: 85 85 46
Width: 755
VWidth: 0
Flags: W
HStem: -14 51<271.447 443.101> 631 36<37.0044 96.5454 194.145 280.979 500.006 574.418 670.357 717.94>
VStem: 96 88<122.172 480.65> 576 87<91.4437 570.145>
AnchorPoint: "top" 384 780 basechar 0
AnchorPoint: "l;x" 0 380 basechar 0
AnchorPoint: "l;hi" 0 650 basechar 0
AnchorPoint: "l;o" 0 200 basechar 0
AnchorPoint: "r;bl" 725 10 basechar 0
AnchorPoint: "r;x" 755 380 basechar 0
AnchorPoint: "r;hi" 755 650 basechar 0
AnchorPoint: "r;o" 755 200 basechar 0
AnchorPoint: "l;bl" 20 10 basechar 0
LayerCount: 3
Back
SplineSet
632 -10 m 4
 607.881835938 -10 589.20703125 63 570 63 c 4
 563.615234375 63 543.364257812 53.326171875 525.475585938 43.3876953125 c 5
 478.0859375 16.1640625 394.743164062 -14 318 -14 c 4
 113.853515625 -14 96 104.6796875 96 227 c 4
 96 260.01953125 97 496.01171875 97 575 c 4
 97 605.877929688 96.2021484375 627.169921875 94.3203125 631 c 5
 58 631 l 4
 45.9677734375 631 37 632.004882812 37 649 c 4
 37 665.841796875 44.91015625 667 58 667 c 4
 74.2314453125 667 120.138671875 664 150 664 c 4
 179.864257812 664 240.844726562 667 264 667 c 4
 278.205078125 667 281 663.42578125 281 646 c 4
 281 632.2890625 275.921875 631 260 631 c 4
 196.68359375 631 l 5
 188.758789062 601.306640625 184 269.678710938 184 228 c 4
 184 102.370117188 241.390625 37 382 37 c 4
 466.154296875 37 524.537109375 71.6328125 552.313476562 90.48046875 c 4
 576.08984375 106.649414062 576 101.291015625 576 247 c 4
 576 552 l 4
 576 593.454101562 574.34375 626.017578125 571.346679688 631 c 5
 523 631 l 4
 511.220703125 631 500 631.625976562 500 649 c 4
 500 666.2421875 510.166992188 667 523 667 c 4
 539.208007812 667 593.125976562 664 623 664 c 4
 652.849609375 664 690.71875 667 701 667 c 4
 715.205078125 667 718 663.42578125 718 646 c 4
 718 632.2890625 712.921875 631 697 631 c 4
 673.8671875 631 l 5
 665.873046875 615.3515625 666.759765625 462.639648438 662.999023438 316.934570312 c 4
 660 179.950195312 656 45.8505859375 656 25 c 4
 656 17.6552734375 655.369140625 -10 632 -10 c 4
EndSplineSet
Fore
SplineSet
632 -10 m 0
 608 -10 589 63 570 63 c 0
 564 63 543 53 525 43 c 0
 478 16 395 -14 318 -14 c 0
 114 -14 96 105 96 227 c 0
 96 260 97 496 97 575 c 0
 97 606 97 631 93 631 c 2
 55 631 l 2
 43 631 37 632 37 649 c 0
 37 666 42 667 55 667 c 0
 71 667 120 664 150 664 c 0
 180 664 243 667 266 667 c 0
 280 667 281 663 281 646 c 0
 281 632 278 631 262 631 c 2
 197 631 l 2
 189 631 184 270 184 228 c 0
 184 102 241 37 382 37 c 0
 466 37 524 71 552 90 c 0
 576 106 576 101 576 247 c 2
 576 552 l 2
 576 593 575 631 570 631 c 2
 520 631 l 2
 508 631 500 632 500 649 c 0
 500 666 507 667 520 667 c 0
 536 667 593 664 623 664 c 0
 653 664 691 667 701 667 c 0
 715 667 718 663 718 646 c 0
 718 632 713 631 697 631 c 2
 674 631 l 2
 666 631 667 463 663 317 c 0
 660 180 656 46 656 25 c 0
 656 18 655 -10 632 -10 c 0
EndSplineSet
AlternateSubs2: "'aalt' Access All Alternates lookup 0 subtable" U.c2
AlternateSubs2: "'aalt' Access All Alternates in Latin lookup 0 subtable" U.c2
Position2: "'cpsp' Capital Spacing in Latin lookup 2 subtable" dx=4 dy=0 dh=8 dv=0
Substitution2: "'c2sc' Capitals to Small Capitals in Latin lookup 12 subtable" U.c2
EndChar

StartChar: V
Encoding: 86 86 47
Width: 685
VWidth: 0
Flags: W
HStem: -28 130<314.5 368.5> 631 36<7.00512 65.3863 176 266.94 460.007 557.999 625.403 677.94>
AnchorPoint: "l;x" 30 380 basechar 0
AnchorPoint: "l;hi" 0 650 basechar 0
AnchorPoint: "l;o" 70 200 basechar 0
AnchorPoint: "r;x" 635 380 basechar 0
AnchorPoint: "r;hi" 685 650 basechar 0
AnchorPoint: "r;o" 595 200 basechar 0
LayerCount: 3
Back
SplineSet
322 -28 m 4
 306.930664062 -28 300.084960938 29.92578125 265.3046875 108.682617188 c 5
 262.249023438 114.793945312 74.498046875 602.34375 57.6171875 631 c 5
 28 631 l 4
 15.9677734375 631 7 632.004882812 7 649 c 4
 7 665.841796875 14.91015625 667 28 667 c 4
 44.2314453125 667 90.138671875 664 120 664 c 4
 149.885742188 664 226.862304688 667 250 667 c 4
 264.205078125 667 267 663.42578125 267 646 c 4
 267 632.2890625 261.921875 631 246 631 c 4
 176.231445312 631 l 5
 176.059570312 630.314453125 176 629.834960938 176 629 c 4
 176 618.798828125 181.908203125 594.7890625 187.82421875 579.012695312 c 5
 224.828125 471.000976562 305.821289062 250.022460938 346.793945312 143.09375 c 5
 356.172851562 119.645507812 363.682617188 102.715820312 366.366210938 98.154296875 c 5
 370.698242188 104.065429688 377.708984375 118.692382812 386.202148438 141.08203125 c 4
 438.638671875 276.67578125 558 568.750976562 558 618 c 4
 558 628.422851562 557.158203125 631 552 631 c 4
 481 631 l 4
 468.967773438 631 460 632.004882812 460 649 c 4
 460 665.0859375 464.459960938 667 478 667 c 4
 494.194335938 667 553.12109375 664 583 664 c 4
 612.849609375 664 650.71875 667 661 667 c 4
 675.205078125 667 678 663.42578125 678 646 c 4
 678 632.2890625 672.921875 631 657 631 c 4
 630.82421875 631 631.66015625 627.598632812 623.750976562 609.803710938 c 5
 392.752929688 66.80859375 l 5
 381.58984375 41.4384765625 376.13671875 39.8125 365.458007812 24.279296875 c 4
 345.372070312 -4.4140625 340.833984375 -28 322 -28 c 4
EndSplineSet
Fore
SplineSet
322 -28 m 0
 307 -28 300 30 265 109 c 0
 262 115 63 631 57 631 c 2
 26 631 l 2
 14 631 7 632 7 649 c 0
 7 666 13 667 26 667 c 0
 39 667 90 664 120 664 c 0
 150 664 227 667 250 667 c 0
 264 667 267 663 267 646 c 0
 267 632 262 631 246 631 c 2
 176 631 l 1
 176 629 l 2
 176 619 182 595 188 579 c 0
 225 471 306 250 347 143 c 0
 357 116 364 102 367 102 c 0
 370 102 376 115 386 141 c 0
 438 277 558 569 558 618 c 0
 558 628 557 631 552 631 c 2
 481 631 l 2
 469 631 460 632 460 649 c 0
 460 665 464 667 478 667 c 0
 494 667 553 664 583 664 c 0
 613 664 651 667 661 667 c 0
 675 667 678 663 678 646 c 0
 678 632 673 631 657 631 c 0
 631 631 632 628 624 610 c 2
 393 67 l 2
 382 42 376 40 365 24 c 0
 345 -5 341 -28 322 -28 c 0
EndSplineSet
AlternateSubs2: "'aalt' Access All Alternates lookup 0 subtable" V.c2
AlternateSubs2: "'aalt' Access All Alternates in Latin lookup 0 subtable" V.c2
Position2: "'cpsp' Capital Spacing in Latin lookup 2 subtable" dx=4 dy=0 dh=8 dv=0
Substitution2: "'c2sc' Capitals to Small Capitals in Latin lookup 12 subtable" V.c2
EndChar

StartChar: W
Encoding: 87 87 48
Width: 1008
VWidth: 0
Flags: W
HStem: -28 146<268 326.5> -28 130<644 702.5> 631 36<7.00584 69.8545 166.048 243.94 372.006 457.675 556 639.954 793.006 883.999 948.239 1000.99>
VStem: 483 73<513.641 602.523>
DStem2: 337 143 350 67 0.344548 0.938769<-27.5494 351.243> 574 527 476 555 0.267867 -0.963456<-98.1708 -22.7657 47.917 443.428>
AnchorPoint: "top" 502 780 basechar 0
AnchorPoint: "l;x" 20 380 basechar 0
AnchorPoint: "l;hi" 0 650 basechar 0
AnchorPoint: "l;o" 60 200 basechar 0
AnchorPoint: "r;x" 958 380 basechar 0
AnchorPoint: "r;hi" 1008 650 basechar 0
AnchorPoint: "r;o" 918 200 basechar 0
LayerCount: 3
Back
SplineSet
655 -28 m 4
 632.918945312 -28 625.48828125 33.048828125 600.154296875 109.051757812 c 4
 599.04296875 112.384765625 550.126953125 292.135742188 508.122070312 439.153320312 c 4
 504.579101562 451.200195312 502.122070312 459.080078125 500.943359375 461.3125 c 5
 499.06640625 458.513671875 496.157226562 450.54296875 491.802734375 438.9296875 c 4
 349.793945312 66.908203125 l 5
 339.6015625 41.4267578125 333.060546875 39.703125 322.458007812 24.279296875 c 4
 302.247070312 -4.5927734375 294.936523438 -28 279 -28 c 4
 256.918945312 -28 249.48828125 33.048828125 224.154296875 109.051757812 c 4
 222.237304688 114.802734375 77.8466796875 601.928710938 63.4775390625 631 c 5
 30 631 l 4
 18.220703125 631 7 631.625976562 7 649 c 4
 7 666.2421875 17.1669921875 667 30 667 c 4
 46.2275390625 667 93.13671875 664 123 664 c 4
 152.854492188 664 203.819335938 667 227 667 c 4
 241.205078125 667 244 663.42578125 244 646 c 4
 244 632.2890625 238.921875 631 223 631 c 4
 173 631 l 4
 170.349609375 631 166.55859375 630.885742188 165.969726562 625.291015625 c 5
 166.860351562 617.537109375 189.939453125 536.642578125 192.877929688 526.84765625 c 4
 235.85546875 380.922851562 307.849609375 162.94140625 313.860351562 142.905273438 c 5
 319.55078125 125.833007812 322.590820312 114.171875 324.208984375 110.249023438 c 5
 327.27734375 115.828125 330.7734375 125.940429688 337.198242188 143.07421875 c 5
 480.198242188 508.07421875 l 5
 483.212890625 516.111328125 485 520.849609375 485 525 c 4
 485 531.643554688 480.1953125 538.8515625 476.100585938 555.228515625 c 5
 464.743164062 595.416015625 453.755859375 625.306640625 450.623046875 631 c 5
 392 631 l 4
 379.829101562 631 372 632.220703125 372 649 c 4
 372 665.612304688 378.768554688 667 392 667 c 4
 408.18359375 667 473.112304688 664 503 664 c 4
 532.868164062 664 599.859375 667 623 667 c 4
 637.205078125 667 640 663.42578125 640 646 c 4
 640 631.975585938 632.861328125 631 620 631 c 4
 556.79296875 631 l 5
 556.234375 629.458007812 556 627.61328125 556 625 c 4
 556 601.849609375 570.956054688 538.544921875 573.903320312 526.756835938 c 5
 611.86328125 386.90234375 677.896484375 163.784179688 683.870117188 142.874023438 c 5
 692.939453125 114.841796875 697.206054688 97.466796875 699.900390625 93.44140625 c 5
 703.40625 98.43359375 708.7109375 114.451171875 719.19921875 141.076171875 c 5
 770.130859375 276.893554688 884 568.702148438 884 618 c 4
 884 628.422851562 883.158203125 631 878 631 c 4
 813 631 l 4
 800.829101562 631 793 632.220703125 793 649 c 4
 793 665.612304688 799.768554688 667 813 667 c 4
 829.19921875 667 886.124023438 664 916 664 c 4
 945.85546875 664 973.619140625 667 984 667 c 4
 998.240234375 667 1001 662.55078125 1001 648 c 4
 1001 634.641601562 996.55859375 631 980 631 c 4
 953.827148438 631 954.651367188 627.579101562 946.760742188 609.825195312 c 5
 725.78515625 66.8857421875 l 4
 715.61328125 41.455078125 709.052734375 39.6904296875 698.458007812 24.279296875 c 4
 678.247070312 -4.5927734375 670.936523438 -28 655 -28 c 4
EndSplineSet
Fore
SplineSet
655 -28 m 0x70
 633 -28 625 33 600 109 c 0
 599 112 551 292 508 439 c 0
 505 451 503 457 501 457 c 0
 499 457 497 451 492 439 c 2
 350 67 l 2
 340 42 333 39 322 24 c 0
 302 -5 295 -28 279 -28 c 0
 257 -28 249 33 224 109 c 0
 222 115 69 631 63 631 c 2
 27 631 l 2
 15 631 7 632 7 649 c 0
 7 666 14 667 27 667 c 0
 43 667 93 664 123 664 c 0
 153 664 204 667 227 667 c 0
 241 667 244 663 244 646 c 0
 244 632 239 631 223 631 c 2
 173 631 l 2
 170 631 167 631 166 625 c 1
 167 617 190 537 193 527 c 0
 236 381 308 163 314 143 c 0
 320 126 322 118 325 118 c 0xb0
 328 118 330 127 337 143 c 2
 480 508 l 2
 483 516 483 521 483 525 c 0
 483 532 480 539 476 555 c 0
 465 595 452 631 449 631 c 2
 392 631 l 2
 380 631 372 632 372 649 c 0
 372 666 379 667 392 667 c 0
 408 667 473 664 503 664 c 0
 533 664 600 667 623 667 c 0
 637 667 640 663 640 646 c 0
 640 632 633 631 620 631 c 2
 557 631 l 1
 556 629 556 628 556 625 c 0
 556 602 571 539 574 527 c 0
 612 387 678 164 684 143 c 0
 693 115 697 102 701 102 c 0
 704 102 709 115 719 141 c 0
 770 277 884 569 884 618 c 0
 884 628 883 631 878 631 c 2
 813 631 l 2
 801 631 793 632 793 649 c 0
 793 666 800 667 813 667 c 0
 827 667 863 664 916 664 c 0
 952 664 974 667 984 667 c 0
 998 667 1001 663 1001 648 c 0
 1001 635 997 631 980 631 c 0
 954 631 954 628 947 610 c 2
 726 67 l 2
 716 42 709 39 698 24 c 0
 678 -5 671 -28 655 -28 c 0x70
EndSplineSet
AlternateSubs2: "'aalt' Access All Alternates lookup 0 subtable" W.c2
AlternateSubs2: "'aalt' Access All Alternates in Latin lookup 0 subtable" W.c2
Position2: "'cpsp' Capital Spacing in Latin lookup 2 subtable" dx=4 dy=0 dh=8 dv=0
Substitution2: "'c2sc' Capitals to Small Capitals in Latin lookup 12 subtable" W.c2
EndChar

StartChar: X
Encoding: 88 88 49
Width: 638
VWidth: 0
Flags: W
HStem: -6 36<7.00512 78.4863 133 208.94 375.06 446 564.313 630.998> 631 36<32.0058 104.345 221.236 283.985 414.06 491 545.625 603.995>
DStem2: 135 129 135 50 0.58854 0.808468<-72.6172 225.272>
AnchorPoint: "l;bl" 0 10 basechar 0
AnchorPoint: "l;x" 60 380 basechar 0
AnchorPoint: "l;hi" 0 650 basechar 0
AnchorPoint: "l;o" 20 200 basechar 0
AnchorPoint: "r;bl" 638 10 basechar 0
AnchorPoint: "r;x" 578 380 basechar 0
AnchorPoint: "r;hi" 638 650 basechar 0
AnchorPoint: "r;o" 618 200 basechar 0
LayerCount: 3
Back
SplineSet
278 335.091796875 m 5
 263.250976562 360.212890625 106.440429688 616.12890625 91.1513671875 631 c 5
 53 631 l 6
 40.9677734375 631 32 632.004882812 32 649 c 4
 32 665.841796875 39.91015625 667 53 667 c 4
 69.17578125 667 140.1015625 664 170 664 c 4
 199.842773438 664 243.802734375 667 267 667 c 4
 281.205078125 667 284 663.42578125 284 646 c 4
 284 632.2890625 278.921875 631 263 631 c 6
 222 631 l 6
 216.684570312 631 213.358398438 630.548828125 212.905273438 630.38671875 c 4
 213.028320312 629.034179688 214.419921875 625.63671875 216.765625 620.162109375 c 4
 237.619140625 569.518554688 305.63671875 448.432617188 337.592773438 393.508789062 c 5
 337.419921875 393.408203125 338.758789062 392.399414062 342.20703125 386.65234375 c 5
 355.961914062 404.500976562 418.504882812 501.211914062 428.49609375 516.653320312 c 4
 461.5234375 565.692382812 491 614.971679688 491 630 c 6
 490.934570312 631 l 5
 435 631 l 6
 419.078125 631 414 632.2890625 414 646 c 4
 414 663.42578125 416.794921875 667 431 667 c 4
 454.263671875 667 479.201171875 664 509 664 c 4
 538.826171875 664 568.711914062 667 585 667 c 4
 598.381835938 667 604 665.361328125 604 649 c 4
 604 632.458007812 597.319335938 631 585 631 c 6
 560.09765625 631 l 5
 555.458984375 626.163085938 537.418945312 603.904296875 515.46484375 572.2890625 c 4
 456.413085938 487.254882812 383.28515625 395.01953125 363.520507812 365.373046875 c 4
 361.415039062 362.00390625 360.310546875 360.153320312 360.25 360 c 4
 360.583984375 359.150390625 361.625976562 357.658203125 363.541015625 354.594726562 c 4
 394.432617188 305.361328125 560.669921875 45.1572265625 575.892578125 30 c 5
 610 30 l 6
 622.032226562 30 631 28.9951171875 631 12 c 4
 631 -4.841796875 623.08984375 -6 610 -6 c 4
 593.797851562 -6 537.875 -3 508 -3 c 4
 478.133789062 -3 415.150390625 -6 392 -6 c 4
 377.794921875 -6 375 -2.42578125 375 15 c 4
 375 28.7109375 380.078125 30 396 30 c 6
 446 30 l 6
 451.46484375 30 454.796875 30.421875 455.530273438 30.6904296875 c 4
 455.303710938 32.400390625 453.9140625 35.4638671875 451.31640625 40.658203125 c 4
 425.451171875 92.3896484375 344.404296875 226.49609375 306.427734375 290.456054688 c 4
 304.495117188 293.709960938 302.958007812 296.754882812 302.39453125 297.723632812 c 5
 301.131835938 296.241210938 300.23046875 294.9375 298.473632812 292.301757812 c 4
 269.470703125 251.297851562 173.44921875 112.254882812 135.575195312 50.4599609375 c 4
 128.450195312 38.2470703125 124.084960938 31.671875 123.999023438 30.9873046875 c 4
 125.547851562 30.328125 128.349609375 30 134 30 c 6
 188 30 l 6
 203.921875 30 209 28.7109375 209 15 c 4
 209 -2.42578125 206.205078125 -6 192 -6 c 4
 168.7578125 -6 138.813476562 -3 109 -3 c 4
 79.15234375 -3 42.265625 -6 26 -6 c 4
 12.6181640625 -6 7 -4.361328125 7 12 c 4
 7 28.5419921875 13.6806640625 30 26 30 c 6
 62.92578125 30 l 5
 69.33203125 31.9814453125 98.5595703125 76.2060546875 134.515625 128.681640625 c 4
 178.993164062 193.594726562 230.693359375 255.920898438 278.614257812 317.818359375 c 4
 284.081054688 325.108398438 284.147460938 325.870117188 278.50390625 334.3359375 c 6
 278 335.091796875 l 5
EndSplineSet
Fore
SplineSet
278 335 m 0
 263 360 97 631 91 631 c 2
 52 631 l 2
 40 631 32 632 32 649 c 0
 32 666 38 667 51 667 c 0
 67 667 140 664 170 664 c 0
 200 664 246 667 269 667 c 0
 283 667 284 663 284 646 c 0
 284 632 279 631 263 631 c 2
 222 631 l 2
 210 631 214 628 217 620 c 0
 237 571 300 459 333 401 c 0
 336 397 340 389 342 389 c 0
 343 389 344 390 346 393 c 0
 365 420 419 503 428 517 c 0
 461 566 491 615 491 630 c 2
 491 631 l 1
 435 631 l 2
 419 631 414 632 414 646 c 0
 414 663 417 667 431 667 c 0
 447 667 473 664 509 664 c 0
 539 664 569 667 585 667 c 0
 598 667 604 665 604 649 c 0
 604 632 597 631 585 631 c 2
 562 631 l 2
 559 631 537 604 515 572 c 0
 456 487 384 396 364 366 c 0
 361 362 362 358 364 355 c 0
 395 306 570 30 576 30 c 2
 610 30 l 2
 629 30 631 29 631 12 c 0
 631 -5 628 -6 612 -6 c 0
 596 -6 538 -3 508 -3 c 0
 478 -3 415 -6 392 -6 c 0
 378 -6 375 -2 375 15 c 0
 375 29 380 30 396 30 c 2
 446 30 l 2
 455 30 456 33 451 41 c 0
 425 93 344 227 306 291 c 0
 303 296 301 297 298 292 c 0
 269 251 173 112 135 50 c 0
 126 35 121 30 133 30 c 2
 188 30 l 2
 204 30 209 29 209 15 c 0
 209 -2 206 -6 192 -6 c 0
 169 -6 139 -3 109 -3 c 0
 79 -3 42 -6 26 -6 c 0
 13 -6 7 -4 7 12 c 0
 7 29 14 30 26 30 c 2
 63 30 l 2
 68 30 99 77 135 129 c 0
 179 194 231 256 279 318 c 0
 284 325 283 328 278 335 c 0
EndSplineSet
AlternateSubs2: "'aalt' Access All Alternates lookup 0 subtable" X.c2
AlternateSubs2: "'aalt' Access All Alternates in Latin lookup 0 subtable" X.c2
Position2: "'cpsp' Capital Spacing in Latin lookup 2 subtable" dx=4 dy=0 dh=8 dv=0
Substitution2: "'c2sc' Capitals to Small Capitals in Latin lookup 12 subtable" X.c2
EndChar

StartChar: Y
Encoding: 89 89 50
Width: 597
VWidth: 0
Flags: W
HStem: -3 33<180.009 254.831 356.819 442.999> 636 36<7.00439 66.0247 182.737 262.958 400.06 474.999 525.734 589.995>
VStem: 260 91<55.8496 318.467>
AnchorPoint: "top" 328 780 basechar 0
AnchorPoint: "l;x" 30 380 basechar 0
AnchorPoint: "l;hi" 0 650 basechar 0
AnchorPoint: "l;o" 30 200 basechar 0
AnchorPoint: "r;x" 547 380 basechar 0
AnchorPoint: "r;hi" 597 650 basechar 0
AnchorPoint: "r;o" 547 200 basechar 0
LayerCount: 3
Back
SplineSet
359.184570312 30 m 5
 429 30 l 4
 441.189453125 30 443 26.33203125 443 14 c 4
 443 -1.0947265625 440.745117188 -6 429 -6 c 4
 405.841796875 -6 338.884765625 -3 309 -3 c 4
 279.13671875 -3 220.16015625 -6 197 -6 c 4
 182.794921875 -6 180 -2.42578125 180 15 c 4
 180 28.7109375 185.078125 30 201 30 c 4
 252.12890625 30 l 5
 258.577148438 42.759765625 260 146.856445312 260 271 c 4
 260 282.443359375 257.5078125 285.315429688 253.381835938 292.534179688 c 5
 220.541015625 352.421875 71.7255859375 619.432617188 56.12109375 636 c 5
 28 636 l 4
 15.9677734375 636 7 637.004882812 7 654 c 4
 7 670.841796875 14.91015625 672 28 672 c 4
 44.19921875 672 101.124023438 669 131 669 c 4
 160.865234375 669 222.846679688 672 246 672 c 4
 260.205078125 672 263 668.42578125 263 651 c 4
 263 637.2890625 257.921875 636 242 636 c 4
 183 636 l 4
 177.684570312 636 174.358398438 635.548828125 173.905273438 635.38671875 c 5
 174.028320312 634.034179688 175.419921875 630.63671875 177.765625 625.162109375 c 5
 198.618164062 574.521484375 290.62890625 408.447265625 319.673828125 352.360351562 c 5
 323.790039062 344.127929688 326.939453125 338.267578125 328.134765625 337.075195312 c 5
 329.674804688 338.102539062 332.413085938 342.321289062 336.354492188 349.415039062 c 5
 371.271484375 417.252929688 476 612.291992188 476 636 c 4
 421 636 l 4
 405.078125 636 400 637.2890625 400 651 c 4
 400 668.42578125 402.794921875 672 417 672 c 4
 440.263671875 672 465.201171875 669 495 669 c 4
 524.826171875 669 554.711914062 672 571 672 c 4
 584.381835938 672 590 670.361328125 590 654 c 4
 590 637.458007812 583.319335938 636 571 636 c 4
 536.150390625 636 l 5
 522.159179688 618.26171875 398.619140625 393.37890625 353.552734375 322.423828125 c 5
 350.8828125 317.973632812 351 315.919921875 351 313 c 4
 351 198.271484375 352.7578125 45.7685546875 359.184570312 30 c 5
EndSplineSet
Fore
SplineSet
360 30 m 2
 429 30 l 2
 441 30 443 26 443 14 c 0
 443 -1 441 -6 429 -6 c 0
 406 -6 368 -3 309 -3 c 0
 267 -3 209 -6 195 -6 c 0
 181 -6 180 -2 180 15 c 0
 180 29 183 30 199 30 c 2
 250 30 l 2
 259 30 260 150 260 271 c 0
 260 282 257 286 253 293 c 0
 224 347 63 636 54 636 c 2
 25 636 l 2
 13 636 7 637 7 654 c 0
 7 671 12 672 25 672 c 0
 38 672 73 669 131 669 c 0
 188 669 232 672 249 672 c 0
 260 672 263 668 263 651 c 0
 263 637 261 636 245 636 c 2
 186 636 l 2
 173 636 174 635 178 625 c 0
 199 574 291 408 320 352 c 0
 328 337 328 334 336 349 c 0
 363 401 475 611 475 633 c 0
 475 635 474 636 473 636 c 2
 421 636 l 2
 405 636 400 637 400 651 c 0
 400 668 403 672 417 672 c 0
 429 672 453 669 495 669 c 0
 538 669 555 672 571 672 c 0
 584 672 590 670 590 654 c 0
 590 637 583 636 571 636 c 2
 537 636 l 2
 532 636 393 384 354 322 c 0
 351 318 351 316 351 313 c 0
 351 206 353 30 360 30 c 2
EndSplineSet
AlternateSubs2: "'aalt' Access All Alternates lookup 0 subtable" Y.c2
AlternateSubs2: "'aalt' Access All Alternates in Latin lookup 0 subtable" Y.c2
Position2: "'cpsp' Capital Spacing in Latin lookup 2 subtable" dx=4 dy=0 dh=8 dv=0
Substitution2: "'c2sc' Capitals to Small Capitals in Latin lookup 12 subtable" Y.c2
EndChar

StartChar: Z
Encoding: 90 90 51
Width: 601
VWidth: 0
Flags: W
HStem: -3 43<182.998 530.092> 626 38<105.984 428.998> 666 20G<77 88>
VStem: 533 41<40 158.997>
AnchorPoint: "top" 314 780 basechar 0
AnchorPoint: "l;bl" 0 10 basechar 0
AnchorPoint: "l;x" 40 380 basechar 0
AnchorPoint: "l;hi" 0 650 basechar 0
AnchorPoint: "l;o" 20 200 basechar 0
AnchorPoint: "r;bl" 601 10 basechar 0
AnchorPoint: "r;x" 591 380 basechar 0
AnchorPoint: "r;hi" 601 650 basechar 0
AnchorPoint: "r;o" 601 200 basechar 0
LayerCount: 3
Back
SplineSet
100.943359375 618.416992188 m 4xd8
 96.943359375 595.416992188 89.009765625 544.669921875 87.91015625 540.272460938 c 4
 86.2021484375 533.440429688 85.126953125 523 76 523 c 4
 64.912109375 523 49 525.0703125 49 535 c 4xe8
 49 542.971679688 61.9873046875 614.091796875 70 676.192382812 c 4
 70 682.473632812 77.357421875 685 89 685 c 4
 95.5361328125 685 105 683.473632812 105 676 c 4
 105 670 l 4
 105 666.967773438 106.170898438 664 161 664 c 4
 542 664 l 4
 554.5859375 664 562 660.702148438 562 646 c 4
 562 627.880859375 324.573242188 301.45703125 182.567382812 58.4482421875 c 5
 177.30078125 50.0205078125 173 44.0654296875 173 42 c 4
 173 41.955078125 172.852539062 40 181 40 c 4
 518 40 l 4
 532.50390625 40 527.952148438 36.58203125 530.009765625 60.2392578125 c 4
 531.995117188 85.0537109375 532.000976562 108.088867188 533 147.038085938 c 5
 533 156.701171875 546.782226562 158 554 158 c 4
 562.592773438 158 574 156.212890625 574 146 c 4
 574 95.90234375 571 37.8447265625 571 8 c 4
 571 -4.4873046875 555.323242188 -6 546 -6 c 4
 433.967773438 -6 151.965820312 -3 48 -3 c 4
 39.1318359375 -3 37 1.08203125 37 15 c 4
 37 30.017578125 271.436523438 373.560546875 427.469726562 618.611328125 c 4
 427.53125 618.708007812 l 5
 427.599609375 618.799804688 l 4
 429.890625 621.854492188 431.583007812 624.768554688 431.821289062 625.327148438 c 5
 428.896484375 625.969726562 422.780273438 626 411 626 c 4
 109 626 l 4
 100.041015625 626 102.973632812 627.551757812 100.943359375 618.416992188 c 4xd8
EndSplineSet
Fore
SplineSet
101 618 m 0
 97 595 89 544 88 540 c 0
 86 529 86 522 77 522 c 0
 72 522 48 524 48 532 c 0
 48 535 61 610 70 677 c 0
 71 682 70 686 84 686 c 0
 92 686 107 685 106 678 c 2
 105 670 l 2
 105 667 106 664 161 664 c 2
 546 664 l 2
 559 664 562 661 562 646 c 0
 562 628 325 302 183 59 c 0
 176 49 172 40 184 40 c 2
 524 40 l 2
 531 40 528 42 530 60 c 0
 532 85 532 111 533 150 c 0
 533 158 547 159 554 159 c 0
 563 159 574 159 574 149 c 0
 574 99 571 38 571 8 c 0
 571 -4 563 -6 554 -6 c 0
 442 -6 152 -3 48 -3 c 0
 39 -3 37 1 37 15 c 0
 37 30 272 373 427 618 c 0
 429 620 429 622 429 623 c 0
 429 625 426 626 418 626 c 2
 106 626 l 2
 102 626 102 625 101 618 c 0
EndSplineSet
AlternateSubs2: "'aalt' Access All Alternates lookup 0 subtable" Z.c2
AlternateSubs2: "'aalt' Access All Alternates in Latin lookup 0 subtable" Z.c2
Position2: "'cpsp' Capital Spacing in Latin lookup 2 subtable" dx=4 dy=0 dh=8 dv=0
Substitution2: "'c2sc' Capitals to Small Capitals in Latin lookup 12 subtable" Z.c2
EndChar

StartChar: zero
Encoding: 48 48 52
Width: 500
VWidth: 0
Flags: W
HStem: -8 54<162.971 332.519> 337 46<169.617 330.265>
VStem: 55 39<117.657 258.618> 402 43<116.714 267.767>
AnchorPoint: "l;bl" 0 10 basechar 0
AnchorPoint: "l;x" 0 380 basechar 0
AnchorPoint: "l;hi" 0 650 basechar 0
AnchorPoint: "l;o" 0 200 basechar 0
AnchorPoint: "l;lo" 0 -260 basechar 0
AnchorPoint: "r;bl" 500 10 basechar 0
AnchorPoint: "r;x" 500 380 basechar 0
AnchorPoint: "r;hi" 500 650 basechar 0
AnchorPoint: "r;o" 500 200 basechar 0
AnchorPoint: "r;lo" 500 -260 basechar 0
LayerCount: 3
Back
SplineSet
55 189 m 4
 55 301.692382812 142.446289062 383 251 383 c 4
 374.745117188 383 445 293.399414062 445 188 c 4
 445 73.2900390625 356.518554688 -8 245 -8 c 4
 139.204101562 -8 55 83.45703125 55 189 c 4
402 202 m 4
 402 280.896484375 327.803710938 337 247 337 c 4
 165.568359375 337 94 270.20703125 94 189 c 4
 94 101.830078125 162.376953125 46 244 46 c 4
 354.263671875 46 402 117.275390625 402 202 c 4
EndSplineSet
Fore
SplineSet
55 189 m 0
 55 301.692382812 142.446289062 383 251 383 c 0
 374.745117188 383 445 293.399414062 445 188 c 0
 445 73.2900390625 356.518554688 -8 245 -8 c 0
 139.204101562 -8 55 83.45703125 55 189 c 0
402 202 m 0
 402 280.896484375 327.803710938 337 247 337 c 0
 165.568359375 337 94 270.20703125 94 189 c 0
 94 101.830078125 162.376953125 46 244 46 c 0
 354.263671875 46 402 117.275390625 402 202 c 0
EndSplineSet
AlternateSubs2: "'aalt' Access All Alternates lookup 0 subtable" zero.p zero.u zero.sub zero.sup zero.denom zero.numer
AlternateSubs2: "'aalt' Access All Alternates in Latin lookup 0 subtable" zero.p zero.u zero.sub zero.sup zero.denom zero.numer
Substitution2: "'pnum' Proportional Numbers in Latin lookup 10 subtable" zero.p
Substitution2: "lining_figures subtable" zero.u
Substitution2: "'subs' Subscript in Latin lookup 8 subtable" zero.sub
Substitution2: "'sups' Superscript in Latin lookup 7 subtable" zero.sup
Substitution2: "denominators subtable" zero.denom
Substitution2: "numerators subtable" zero.numer
EndChar

StartChar: one
Encoding: 49 49 53
Width: 500
VWidth: 0
Flags: W
HStem: -5 33<147.001 214.217 292.783 355.997> 360 31<150.003 213.001 294.727 359>
VStem: 215 77<28 360>
AnchorPoint: "l;bl" 0 10 basechar 0
AnchorPoint: "l;x" 0 380 basechar 0
AnchorPoint: "l;hi" 0 650 basechar 0
AnchorPoint: "l;o" 0 200 basechar 0
AnchorPoint: "l;lo" 0 -260 basechar 0
AnchorPoint: "r;bl" 500 10 basechar 0
AnchorPoint: "r;x" 500 380 basechar 0
AnchorPoint: "r;hi" 500 650 basechar 0
AnchorPoint: "r;o" 500 200 basechar 0
AnchorPoint: "r;lo" 500 -260 basechar 0
LayerCount: 3
Back
SplineSet
294.9921875 350.7734375 m 4
 292 292.922851562 292 195.989257812 292 117 c 4
 292 89.9853515625 291.999023438 64.0791015625 293 37.0556640625 c 5
 293 28.9326171875 293.294921875 28 302 28 c 4
 342 28 l 4
 353.849609375 28 356 21.36328125 356 12 c 4
 356 3.0947265625 355.171875 -5 342 -5 c 4
 322.86328125 -5 275.890625 -3 251 -3 c 4
 226.111328125 -3 180.138671875 -5 161 -5 c 4
 148.236328125 -5 147 0.939453125 147 12 c 4
 147 21.7626953125 149.623046875 28 164 28 c 4
 206 28 l 4
 215.66015625 28 214 27.322265625 214 37.0517578125 c 5
 215.001953125 66.103515625 215 94.96484375 215 125 c 4
 215 214 l 4
 215 259.999023438 214.999023438 306.959960938 213.002929688 350.864257812 c 4
 213 350.931640625 l 5
 213 351 l 6
 213 359.880859375 214.23828125 360 206 360 c 4
 164 360 l 4
 152.150390625 360 150 366.63671875 150 376 c 4
 150 384.905273438 150.828125 393 164 393 c 4
 183.13671875 393 230.109375 391 255 391 c 4
 279.888671875 391 325.861328125 393 345 393 c 4
 357.763671875 393 359 387.060546875 359 376 c 4
 359 366.237304688 356.376953125 360 342 360 c 4
 303 360 l 4
 293.467773438 360 296.01171875 360.965820312 294.9921875 350.7734375 c 4
EndSplineSet
Fore
SplineSet
295 351 m 0
 292 293 292 196 292 117 c 0
 292 90 292 64 293 37 c 0
 293 29 293 28 302 28 c 2
 342 28 l 2
 354 28 356 21 356 12 c 0
 356 3 355 -5 342 -5 c 0
 323 -5 276 -3 251 -3 c 0
 226 -3 178 -5 159 -5 c 0
 147 -5 147 1 147 12 c 0
 147 22 148 28 162 28 c 2
 207 28 l 2
 212 28 214 29 214 37 c 0
 215 66 215 95 215 125 c 2
 215 214 l 2
 215 260 215 307 213 351 c 0
 213 360 214 360 206 360 c 2
 161 360 l 2
 151 360 150 367 150 376 c 0
 150 385 150 393 161 393 c 0
 180 393 230 391 255 391 c 0
 280 391 329 393 348 393 c 0
 359 393 359 387 359 376 c 0
 359 366 359 360 345 360 c 2
 299 360 l 2
 295 360 296 359 295 351 c 0
EndSplineSet
AlternateSubs2: "'aalt' Access All Alternates lookup 0 subtable" one.p one.u one.sub one.sup one.denom one.numer
AlternateSubs2: "'aalt' Access All Alternates in Latin lookup 0 subtable" one.p one.u one.sub one.sup one.denom one.numer
Substitution2: "'pnum' Proportional Numbers in Latin lookup 10 subtable" one.p
Substitution2: "lining_figures subtable" one.u
Substitution2: "'subs' Subscript in Latin lookup 8 subtable" one.sub
Substitution2: "'sups' Superscript in Latin lookup 7 subtable" one.sup
Substitution2: "denominators subtable" one.denom
Substitution2: "numerators subtable" one.numer
EndChar

StartChar: two
Encoding: 50 50 54
Width: 500
VWidth: 0
Flags: W
HStem: -3 64<161.004 399.99> 361 48<146.285 261.741>
VStem: 287 74<216.875 335.002>
AnchorPoint: "l;bl" 0 10 basechar 0
AnchorPoint: "l;x" 0 380 basechar 0
AnchorPoint: "l;hi" 0 650 basechar 0
AnchorPoint: "l;o" 0 200 basechar 0
AnchorPoint: "l;lo" 0 -260 basechar 0
AnchorPoint: "r;bl" 500 10 basechar 0
AnchorPoint: "r;x" 500 380 basechar 0
AnchorPoint: "r;hi" 500 650 basechar 0
AnchorPoint: "r;o" 500 200 basechar 0
AnchorPoint: "r;lo" 500 -260 basechar 0
LayerCount: 3
Back
SplineSet
74.03125 30.2666015625 m 4
 127.229492188 80.396484375 287 150.359375 287 270 c 4
 287 328.65234375 253.287109375 361 206 361 c 4
 138.768554688 361 86.1982421875 300 77 300 c 4
 68.4462890625 300 57 314.392578125 57 323 c 4
 57 341.813476562 154.61328125 409 230 409 c 4
 305.600585938 409 361 352.633789062 361 280 c 4
 361 192.55078125 238.33984375 109.30859375 178.502929688 74.4033203125 c 4
 167.682617188 68.1396484375 159.709960938 63.521484375 155.75390625 61 c 5
 387.551757812 61 l 5
 393.75 66.345703125 418.189453125 127 425 127 c 4
 429.322265625 127 446 124.374023438 446 117 c 4
 446 104.748046875 427.955078125 37.427734375 418.887695312 5.1875 c 4
 418.844726562 5.0341796875 l 5
 418.78515625 4.8857421875 l 4
 416.352539062 -1.1962890625 412.383789062 -3 405 -3 c 4
 79 -3 l 4
 66.95703125 -3 61 3.1298828125 61 11 c 4
 61 18.998046875 69.0068359375 26.2470703125 74.03125 30.2666015625 c 4
EndSplineSet
Fore
SplineSet
74 30 m 0
 127 80 287 150 287 270 c 0
 287 329 253 361 206 361 c 0
 139 361 81 299 76 299 c 0
 72 299 57 314 57 323 c 0
 57 338 154 409 230 409 c 0
 306 409 361 353 361 280 c 0
 361 193 240 112 178 74 c 0
 167 67 161 64 161 63 c 0
 161 61 166 61 178 61 c 2
 387 61 l 2
 391 61 422 129 425 129 c 0
 429 129 447 125 447 121 c 0
 447 116 428 40 419 5 c 0
 417 -1 412 -3 405 -3 c 2
 79 -3 l 2
 67 -3 60 3 60 11 c 0
 60 19 69 26 74 30 c 0
EndSplineSet
AlternateSubs2: "'aalt' Access All Alternates lookup 0 subtable" two.p two.u two.sub two.sup two.denom two.numer
AlternateSubs2: "'aalt' Access All Alternates in Latin lookup 0 subtable" two.p two.u two.sub two.sup two.denom two.numer
Substitution2: "'pnum' Proportional Numbers in Latin lookup 10 subtable" two.p
Substitution2: "lining_figures subtable" two.u
Substitution2: "'subs' Subscript in Latin lookup 8 subtable" two.sub
Substitution2: "'sups' Superscript in Latin lookup 7 subtable" two.sup
Substitution2: "denominators subtable" two.denom
Substitution2: "numerators subtable" two.numer
EndChar

StartChar: three
Encoding: 51 51 55
Width: 500
VWidth: 0
Flags: W
HStem: -216 31<182.246 283.309> 86 50<137.354 207.011> 366 44<157.593 278.148>
VStem: 308 67<213.392 335.932> 356 69<-111.159 43.1381>
AnchorPoint: "l;bl" 0 10 basechar 0
AnchorPoint: "l;x" 0 380 basechar 0
AnchorPoint: "l;hi" 0 650 basechar 0
AnchorPoint: "l;o" 0 200 basechar 0
AnchorPoint: "l;lo" 0 -260 basechar 0
AnchorPoint: "r;bl" 500 10 basechar 0
AnchorPoint: "r;x" 500 380 basechar 0
AnchorPoint: "r;hi" 500 650 basechar 0
AnchorPoint: "r;o" 500 200 basechar 0
AnchorPoint: "r;lo" 500 -260 basechar 0
LayerCount: 3
Fore
SplineSet
425 -27 m 0xe8
 425 -139 323 -216 223 -216 c 0
 175 -216 77 -196 77 -164 c 0
 77 -151 98 -141 118 -141 c 0
 136 -141 146 -147 161 -156 c 0
 182 -168 193 -185 233 -185 c 0
 294 -185 356 -116 356 -39 c 0xe8
 356 53 310 89 208 89 c 0
 187 89 160 86 155 86 c 0
 141 86 141 98 138 106 c 0
 137 109 136 112 136 116 c 0
 136 130 150 133 159 136 c 0
 258 164 308 200 308 272 c 0
 308 322 275 366 226 366 c 0
 151 366 119 315 113 315 c 0
 108 315 92 330 92 335 c 0
 92 347 162 410 238 410 c 0
 321 410 375 360 375 284 c 0xf0
 375 214 328 179 282 159 c 0
 265 152 247 144 247 141 c 0
 247 138 257 138 275 137 c 0
 361 130 425 87 425 -27 c 0xe8
EndSplineSet
AlternateSubs2: "'aalt' Access All Alternates lookup 0 subtable" three.p three.u three.sub three.sup three.denom three.numer
AlternateSubs2: "'aalt' Access All Alternates in Latin lookup 0 subtable" three.p three.u three.sub three.sup three.denom three.numer
Substitution2: "'pnum' Proportional Numbers in Latin lookup 10 subtable" three.p
Substitution2: "lining_figures subtable" three.u
Substitution2: "'subs' Subscript in Latin lookup 8 subtable" three.sub
Substitution2: "'sups' Superscript in Latin lookup 7 subtable" three.sup
Substitution2: "denominators subtable" three.denom
Substitution2: "numerators subtable" three.numer
EndChar

StartChar: four
Encoding: 52 52 56
Width: 500
VWidth: 0
Flags: W
HStem: -3 60<108.222 302 371.441 449> 377 20G<345 358.5>
VStem: 302 78<-213.25 -3> 302 67<-198.683 -3 57 290>
DStem2: 122 140 112 83 0.638018 0.770022<-66.4694 222.55>
AnchorPoint: "l;bl" 0 10 basechar 0
AnchorPoint: "l;x" 0 380 basechar 0
AnchorPoint: "l;hi" 0 650 basechar 0
AnchorPoint: "l;o" 0 200 basechar 0
AnchorPoint: "l;lo" 0 -260 basechar 0
AnchorPoint: "r;bl" 500 10 basechar 0
AnchorPoint: "r;x" 500 380 basechar 0
AnchorPoint: "r;hi" 500 650 basechar 0
AnchorPoint: "r;o" 500 200 basechar 0
AnchorPoint: "r;lo" 500 -260 basechar 0
LayerCount: 3
Fore
SplineSet
369 368 m 2xd0
 369 72 l 2xd0
 369 57 369 57 381 57 c 2
 439 57 l 2
 446 57 449 57 449 47 c 2
 449 7 l 2
 449 -3 449 -3 437 -3 c 2
 382 -3 l 2
 374 -3 370 -3 371 -14 c 0
 374 -75 380 -194 380 -199 c 0
 380 -208 374 -212 361 -213 c 2
 316 -217 l 2
 308 -217 302 -211 302 -201 c 2
 302 -15 l 2xe0
 302 -5 301 -3 289 -3 c 2
 58 -3 l 2
 51 -3 37 -3 37 8 c 0
 37 36 98 112 122 140 c 2
 255 300 l 2
 263 309 337 397 353 397 c 0
 364 397 369 387 369 368 c 2xd0
286 293 m 2
 112 83 l 2
 98 66 89 57 118 57 c 2
 286 57 l 2
 302 57 302 58 302 74 c 2
 302 290 l 2
 302 314 299 308 286 293 c 2
EndSplineSet
AlternateSubs2: "'aalt' Access All Alternates lookup 0 subtable" four.p four.u four.sub four.sup four.denom four.numer
AlternateSubs2: "'aalt' Access All Alternates in Latin lookup 0 subtable" four.p four.u four.sub four.sup four.denom four.numer
Substitution2: "'pnum' Proportional Numbers in Latin lookup 10 subtable" four.p
Substitution2: "lining_figures subtable" four.u
Substitution2: "'subs' Subscript in Latin lookup 8 subtable" four.sub
Substitution2: "'sups' Superscript in Latin lookup 7 subtable" four.sup
Substitution2: "denominators subtable" four.denom
Substitution2: "numerators subtable" four.numer
EndChar

StartChar: five
Encoding: 53 53 57
Width: 500
VWidth: 0
Flags: HMW
HStem: -224 38<102.014 170.156> 326 68<154.5 370.68> 394 20G<400.5 409.5>
VStem: 97 48<152.5 265.672> 306 77<-67.9818 76.2691>
AnchorPoint: "l;bl" 0 10 basechar 0
AnchorPoint: "l;x" 0 380 basechar 0
AnchorPoint: "l;hi" 0 650 basechar 0
AnchorPoint: "l;o" 0 200 basechar 0
AnchorPoint: "l;lo" 0 -260 basechar 0
AnchorPoint: "r;bl" 500 10 basechar 0
AnchorPoint: "r;x" 500 380 basechar 0
AnchorPoint: "r;hi" 500 650 basechar 0
AnchorPoint: "r;o" 500 200 basechar 0
AnchorPoint: "r;lo" 500 -260 basechar 0
LayerCount: 3
Back
SplineSet
182.924804688 326 m 0xac
 172.583007812 326 166.359375 324.786132812 164.935546875 318.379882812 c 1
 157.986328125 283.6328125 145 217.954101562 145 212 c 0
 145 209.637695312 145.401367188 208.744140625 145.401367188 208.744140625 c 1
 145.939453125 208.5078125 148.848632812 208.541992188 153.327148438 207.982421875 c 1
 280.499023438 195.965820312 383 153.318359375 383 19 c 0
 383 -156.900390625 149.697265625 -224 113 -224 c 0
 103.665039062 -224 102 -213.3984375 102 -203 c 0
 102 -194.762695312 104.348632812 -187.400390625 112.463867188 -186.047851562 c 1
 178.095703125 -173.120117188 306 -117.526367188 306 3 c 0
 306 104.484375 217.578125 143 115 143 c 0
 104.325195312 143 97 147.03515625 97 158 c 0
 97 173.249023438 129.025390625 305.416015625 144.045898438 385.5234375 c 0
 145.571289062 394.67578125 156.9609375 394 162 394 c 0xac
 170.365234375 394 306.115234375 385 369 385 c 0
 380.018554688 385 389.438476562 386.174804688 390.21484375 388.114257812 c 1
 390.21484375 388.114257812 398.39453125 414 403 414 c 0
 407 414 l 0
 412.154296875 414 423 413.610351562 423 405 c 0
 423 404.896484375 l 1
 422.993164062 404.793945312 l 0
 420.990234375 375.755859375 419.998046875 362.891601562 418.99609375 335.844726562 c 1
 417.76171875 317.326171875 393.194335938 316 379 316 c 0xdc
 300.814453125 316 262.779296875 322.006835938 182.924804688 326 c 0xac
EndSplineSet
Fore
SplineSet
178 326 m 0xd8
 168 326 166 324 165 318 c 0
 158 283 145 218 145 212 c 0
 145 208 147 209 153 208 c 0
 280 196 383 153 383 19 c 0
 383 -157 150 -224 113 -224 c 0
 104 -224 102 -219 102 -203 c 0
 102 -190 104 -187 112 -186 c 0
 178 -173 306 -118 306 3 c 0
 306 104 218 143 115 143 c 0
 104 143 97 147 97 158 c 0
 97 173 129 306 144 386 c 0
 146 395 152 394 157 394 c 0xd8
 165 394 306 385 369 385 c 0
 380 385 388 386 390 388 c 0
 392 390 398 414 403 414 c 2
 407 414 l 2xb8
 412 414 423 414 423 405 c 0
 421 376 420 363 419 336 c 0
 418 317 393 316 379 316 c 0
 301 316 258 322 178 326 c 0xd8
EndSplineSet
AlternateSubs2: "'aalt' Access All Alternates lookup 0 subtable" five.p five.u five.sub five.sup five.denom five.numer
AlternateSubs2: "'aalt' Access All Alternates in Latin lookup 0 subtable" five.p five.u five.sub five.sup five.denom five.numer
Substitution2: "'pnum' Proportional Numbers in Latin lookup 10 subtable" five.p
Substitution2: "lining_figures subtable" five.u
Substitution2: "'subs' Subscript in Latin lookup 8 subtable" five.sub
Substitution2: "'sups' Superscript in Latin lookup 7 subtable" five.sup
Substitution2: "denominators subtable" five.denom
Substitution2: "numerators subtable" five.numer
EndChar

StartChar: six
Encoding: 54 54 58
Width: 500
VWidth: 0
Flags: HMW
HStem: -8 37<191.865 311.498> 333 28<141.615 285.732> 624 34<342.36 383.539>
VStem: 45 73<111.524 320.651> 370 74<95.5518 262.371>
AnchorPoint: "l;bl" 0 10 basechar 0
AnchorPoint: "l;x" 0 380 basechar 0
AnchorPoint: "l;hi" 0 650 basechar 0
AnchorPoint: "l;o" 0 200 basechar 0
AnchorPoint: "l;lo" 0 -260 basechar 0
AnchorPoint: "r;bl" 500 10 basechar 0
AnchorPoint: "r;x" 500 380 basechar 0
AnchorPoint: "r;hi" 500 650 basechar 0
AnchorPoint: "r;o" 500 200 basechar 0
AnchorPoint: "r;lo" 500 -260 basechar 0
LayerCount: 3
Back
SplineSet
378.045898438 626.186523438 m 4
 238.288085938 568.697265625 168.665039062 431.56640625 146.8125 373.955078125 c 5
 142.7734375 362.848632812 138.217773438 351.548828125 137.9921875 348.043945312 c 5
 141.215820312 347.443359375 152.017578125 351.377929688 161.4765625 352.954101562 c 5
 193.602539062 358.977539062 221.891601562 361 253 361 c 4
 358.264648438 361 444 291.9453125 444 189 c 4
 444 65.2529296875 353.405273438 -8 244 -8 c 4
 128.165039062 -8 45 74.8125 45 231 c 4
 45 507.956054688 338.909179688 658 367 658 c 4
 375.76953125 658 385 644.161132812 385 635 c 4
 385 630.384765625 381.772460938 627.428710938 378.045898438 626.186523438 c 4
126.936523438 297.387695312 m 4
 121.98828125 273.634765625 118 238.786132812 118 201 c 4
 118 120.686523438 160.443359375 29 258 29 c 4
 323.62109375 29 370 99.966796875 370 168 c 4
 370 261.87109375 321.127929688 333 217 333 c 4
 203.341796875 333 169.20703125 329.993164062 151.513671875 327.043945312 c 4
 129.622070312 323.237304688 131.975585938 321.573242188 126.936523438 297.387695312 c 4
EndSplineSet
Fore
SplineSet
373 624 m 0
 237 566 169 431 147 374 c 0
 142 362 140 355 140 352 c 0
 140 350 141 350 143 350 c 0
 146 350 151 351 161 353 c 0
 193 359 222 361 253 361 c 0
 358 361 444 292 444 189 c 0
 444 65 353 -8 244 -8 c 0
 128 -8 45 75 45 231 c 0
 45 508 340 658 368 658 c 0
 377 658 385 641 385 635 c 0
 385 629 378 626 373 624 c 0
127 297 m 0
 122 273 118 239 118 201 c 0
 118 121 160 29 258 29 c 0
 324 29 370 100 370 168 c 0
 370 262 321 333 217 333 c 0
 203 333 170 330 152 327 c 0
 130 323 132 321 127 297 c 0
EndSplineSet
AlternateSubs2: "'aalt' Access All Alternates lookup 0 subtable" six.p six.u six.sub six.sup six.denom six.numer
AlternateSubs2: "'aalt' Access All Alternates in Latin lookup 0 subtable" six.p six.u six.sub six.sup six.denom six.numer
Substitution2: "'pnum' Proportional Numbers in Latin lookup 10 subtable" six.p
Substitution2: "lining_figures subtable" six.u
Substitution2: "'subs' Subscript in Latin lookup 8 subtable" six.sub
Substitution2: "'sups' Superscript in Latin lookup 7 subtable" six.sup
Substitution2: "denominators subtable" six.denom
Substitution2: "numerators subtable" six.numer
EndChar

StartChar: seven
Encoding: 55 55 59
Width: 500
VWidth: 0
Flags: W
HStem: 332 64<125.683 408.003> 401 20G<104 119.5>
VStem: 81 47<397.584 420.391>
AnchorPoint: "l;bl" 0 10 basechar 0
AnchorPoint: "l;x" 0 380 basechar 0
AnchorPoint: "l;hi" 0 650 basechar 0
AnchorPoint: "l;o" 0 200 basechar 0
AnchorPoint: "l;lo" 0 -260 basechar 0
AnchorPoint: "r;bl" 500 10 basechar 0
AnchorPoint: "r;x" 500 380 basechar 0
AnchorPoint: "r;hi" 500 650 basechar 0
AnchorPoint: "r;o" 500 200 basechar 0
AnchorPoint: "r;lo" 500 -260 basechar 0
LayerCount: 3
Back
SplineSet
111.967773438 274.552734375 m 6xd0
 111.190429688 268.33984375 104.0546875 267.036132812 99.0400390625 266.989257812 c 4
 92.22265625 266.926757812 81 269.424804688 81 278 c 4xd0
 81 288.603515625 87.0048828125 335.193359375 93.015625 399.305664062 c 5
 95.1240234375 418.282226562 101.228515625 420 112 420 c 4
 125.260742188 420 127.741210938 408.916992188 127.982421875 398.9296875 c 5xe0
 143.622070312 396.053710938 228.538085938 396 289 396 c 6
 455 396 l 4
 463.592773438 396 475 394.212890625 475 384 c 4
 475 379.673828125 472.5625 376.416015625 470.662109375 372.616210938 c 5
 348.3125 145.821289062 170.350585938 -219 159 -219 c 4
 140.922851562 -219 120 -204.497070312 120 -188 c 4
 120 -181.135742188 343.290039062 202.3046875 408.388671875 315.4765625 c 5
 413.180664062 324.103515625 416.716796875 329.676757812 416.971679688 330.76171875 c 5
 415.057617188 331.553710938 410.692382812 332 402 332 c 4
 203 332 l 4
 174.776367188 332 126.474609375 328.979492188 120.885742188 325.090820312 c 5
 111.967773438 274.552734375 l 6xd0
EndSplineSet
Fore
SplineSet
112 274 m 2
 111 266 104 266 99 266 c 0
 88 266 81 268 81 277 c 0
 81 280 87 336 93 400 c 0
 95 419 96 421 112 421 c 0
 127 421 128 417 128 405 c 2
 128 400 l 2
 128 396 239 396 289 396 c 2
 455 396 l 2
 464 396 475 394 475 384 c 0
 475 380 473 377 471 373 c 0
 349 146 169 -220 158 -220 c 0
 147 -220 119 -205 119 -189 c 0
 119 -182 343 202 408 315 c 0
 417 331 420 332 402 332 c 2
 203 332 l 2
 175 332 119 330 118 322 c 2
 112 274 l 2
EndSplineSet
AlternateSubs2: "'aalt' Access All Alternates lookup 0 subtable" seven.p seven.u seven.sub seven.sup seven.denom seven.numer
AlternateSubs2: "'aalt' Access All Alternates in Latin lookup 0 subtable" seven.p seven.u seven.sub seven.sup seven.denom seven.numer
Substitution2: "'pnum' Proportional Numbers in Latin lookup 10 subtable" seven.p
Substitution2: "lining_figures subtable" seven.u
Substitution2: "'subs' Subscript in Latin lookup 8 subtable" seven.sub
Substitution2: "'sups' Superscript in Latin lookup 7 subtable" seven.sup
Substitution2: "denominators subtable" seven.denom
Substitution2: "numerators subtable" seven.numer
EndChar

